<?xml version="1.0" encoding="UTF-8"?>
<svg id="_레이어_2" data-name="레이어 2" xmlns="http://www.w3.org/2000/svg" xmlns:xlink="http://www.w3.org/1999/xlink" viewBox="0 0 22.53 26.81">
  <defs>
    <style>
      .cls-1 {
        clip-path: url(#clippath);
      }

      .cls-2 {
        fill: #f7f8f8;
      }

      .cls-3 {
        fill: #6ab2d6;
      }

      .cls-4 {
        fill: #6bbbe1;
      }

      .cls-5 {
        fill: #3281a4;
      }

      .cls-6 {
        fill: #3281a3;
      }

      .cls-7 {
        fill: #3282a5;
      }

      .cls-8 {
        fill: #11253a;
      }

      .cls-9 {
        fill: #53a1c7;
      }

      .cls-10 {
        fill: #4984a3;
      }

      .cls-11 {
        fill: #3381a4;
      }

      .cls-12 {
        fill: #3382a5;
      }

      .cls-13 {
        fill: #52a4c9;
      }

      .cls-14 {
        fill: #4ea0c6;
      }
    </style>
    <clipPath id="clippath">
      <circle class="cls-3" cx="11.27" cy="11.27" r="8.46"/>
    </clipPath>
  </defs>
  <g id="_레이어_1-2" data-name="레이어 1">
    <g>
      <path class="cls-2" d="m22.53,11.27c0,7.67-11.27,15.55-11.27,15.55,0,0-11.27-7.87-11.27-15.55C0,5.04,5.04,0,11.27,0s11.27,5.04,11.27,11.27Z"/>
      <g>
        <circle class="cls-3" cx="11.27" cy="11.27" r="8.46"/>
        <g class="cls-1">
          <path class="cls-4" d="m2.51,14.72c-.09-.24-.17-.49-.26-.73-.09-.36-.18-.72-.27-1.08-.02-.21-.05-.42-.07-.63.72-.21,1.72-.04,2.48-.02.8.02,1.6.07,2.4.12.85.06,1.69.15,2.54.27.65.09,1.59.06,2.07.58-.62.4-1.45.52-2.17.68-.74.17-1.49.24-2.25.34-1.49.19-2.98.34-4.47.48Z"/>
          <path class="cls-6" d="m19.3,6.5c.37.83.76,1.65.97,2.55.02.08,0,.16,0,.24-.15.01-.3.04-.45.04-.35-.02-.71-.05-1.06-.08-.32-.02-.65-.04-.97-.06-.31-.05-.62-.09-.94-.14-.11-.02-.23-.04-.34-.05-.91-.16-1.81-.27-2.7-.53-.08-.02-.16-.04-.24-.05-.18-.05-.36-.09-.54-.14-.11-.02-.22-.04-.34-.06-.96-.29-1.93-.58-2.89-.87-.18-.05-.36-.1-.54-.15-1.09-.41-2.19-.81-3.28-1.22-.63-.26-1.27-.52-1.9-.78.4-.6.98-1.02,1.54-1.46.07-.05.15-.1.22-.14.16.26.76.24,1.03.28.47.06.94.12,1.4.18,1.02.13,2.05.25,3.08.34,1.04.09,2.08.14,3.12.12.77-.01,2.17.12,2.8-.35.65.48,1.16,1.1,1.62,1.76.13.19.26.39.39.58Z"/>
          <path class="cls-4" d="m17.29,4.16c-.63.47-2.04.34-2.8.35-1.04.02-2.09-.03-3.12-.12-1.03-.09-2.05-.21-3.08-.34-.47-.06-.94-.12-1.4-.18-.28-.04-.88-.01-1.03-.28.19-.13.39-.27.58-.4.19-.1.39-.2.58-.3.08-.04.16-.09.25-.13.24-.1.49-.19.73-.29.1-.03.2-.07.3-.1.13-.04.25-.07.38-.11.1-.03.2-.06.3-.08.15-.03.29-.07.44-.1.23-.03.46-.06.69-.1.7,0,1.4,0,2.09,0,.28.04.55.09.83.13,1.19.27,2.32.69,3.33,1.39.32.22.61.46.92.68Zm-5.87-.78c.35.59,2.36.6,2.76.02-.37-.55-2.36-.58-2.76-.02Zm-1.09.21c-.29-.39-1.54-.38-1.81,0,.37.31,1.47.32,1.81,0Z"/>
          <path class="cls-6" d="m20.48,10.61c0,.46.03.91.01,1.37,0,.28-.07.56-.11.84,0,.06,0,.12-.01.18-.16.54-.32,1.09-.48,1.63-.01-.05-.02-.09-.04-.15-2.75.29-5.49.61-8.24.9-2.72.29-5.54.41-8.23.91-.29-.52-.58-1.05-.87-1.57,1.49-.14,2.98-.29,4.47-.48.75-.09,1.5-.17,2.25-.34.72-.16,1.55-.28,2.17-.68-.48-.51-1.42-.49-2.07-.58-.84-.12-1.69-.21-2.54-.27-.8-.06-1.6-.1-2.4-.12-.76-.02-1.76-.19-2.48.02-.13-.67-.15-1.34.01-2.01.24.01.49.03.73.04.8.07,1.6.13,2.4.2.5.17,1.61.17,2.11,0,.91-.02,1.82-.04,2.73-.05.1,0,.2,0,.3,0,1.04,0,2.09,0,3.13,0,.31,0,.62,0,.92,0,.2.01.39.03.59.04l1.02.06c1.55.24,3.12.54,4.61,1.03v-.99Z"/>
          <path class="cls-6" d="m5.89,18.88c-.44-.37-.89-.74-1.33-1.12,2.42-.64,4.82-1.56,7.31-1.85,1.2-.14,2.46-.2,3.65.03,1.08.21,1.89.72,2.79,1.32-.55.66-1.21,1.2-1.91,1.69-.08.06-.16.1-.25.16-.23.04-.45.07-.68.11-1.61.19-3.22.12-4.83-.08-.8-.1-1.6-.2-2.41-.27-.76-.06-1.63-.24-2.35,0Z"/>
          <path class="cls-4" d="m18.31,17.26c-.9-.6-1.71-1.11-2.79-1.32-1.19-.23-2.45-.18-3.65-.03-2.49.3-4.89,1.21-7.31,1.85-.39-.49-.78-.98-1.17-1.47,2.69-.5,5.51-.62,8.23-.91,2.75-.29,5.49-.61,8.24-.9.01.06.02.11.04.15-.38.96-.88,1.85-1.57,2.63Zm-.43-2c-.26.1-.35.3-.34.54,0,.23.11.42.34.49.41-.24.41-.72,0-1.03Z"/>
          <path class="cls-4" d="m5.89,18.88c.73-.24,1.59-.06,2.35,0,.81.06,1.61.17,2.41.27,1.61.2,3.22.27,4.83.08.05,0,.09.02.15.03v.15c-.73.29-1.45.61-2.2.84-.5.15-1.04.17-1.56.25-.44,0-.89,0-1.33,0-1.7-.09-3.24-.67-4.64-1.62Zm3.23.84c.32.34,1.89.39,2.25.07-.2-.36-1.76-.42-2.25-.07Z"/>
          <path class="cls-9" d="m15.62,19.41v-.15c-.05-.01-.1-.02-.15-.03.23-.04.45-.07.68-.11-.18.1-.36.2-.53.29Z"/>
          <path class="cls-10" d="m10.53,20.5c.44,0,.89,0,1.33,0-.44,0-.89,0-1.33,0Z"/>
          <path class="cls-4" d="m10.19,10.46c-.1,0-.2,0-.3,0-.91.02-1.82.03-2.73.05-.41,0-.83.02-1.24,0-.29-.02-.61-.14-.86,0-.8-.07-1.6-.13-2.4-.2.15-.1.31-.21.53-.36-.37-.06-.68-.11-1.03-.17-.03.02-.11.06-.19.1.11-.51.19-1.03.34-1.53.37-1.17.93-2.25,1.77-3.16.63.26,1.27.52,1.9.78-.05.08-.09.15-.15.25.11.2.24.43.36.66-.05.11-.1.22-.15.32.08.17.39-.02.4.28h-.27c-.7.05-3.08.11-2.68,1.31v.36c.09.11.17.22.26.33h.54s.09-.09.13-.14c.16.03.33.07.49.1.06.02.13.04.19.05.2.53.25.81.84.83.66.03.73-.02.83-.63l.05.04c.14-.1.28-.2.42-.3.09-.03.18-.06.27-.1.46-.17.95-.31,1.1-.87.04-.05.09-.1.14-.16.06.08.1.14.14.21.32-.04.65-.1.86.1h.81s0,.06,0,.09h-.68c0,.22,0,.4,0,.58-.07.22-.02.28.34.34-.04.06-.08.12-.12.18.02.12.03.24.06.42.96.1,1.9-.07,2.88-.05-.06-.23-.1-.39-.16-.59-.07.17-.11.28-.17.44-.23-.31-.27-.85.01-1.13.05.23.09.39.14.59.18-.24-.04-.42-.03-.61.16-.23.35-.11.58-.04v.32s.03.02.05.02c.04-.07.08-.13.14-.21h.31c.04.15.08.27.12.42.13-.07.21-.11.34-.18.1.09.19.19.32.31.03,0,.1.02.17.03.03.07.07.14.09.2-.05.11-.09.22-.16.38.28.08.54.15.78.22.28-.25.56-.24.92-.12-.22.1-.43.22-.64.34-.34-.02-.68-.04-1.02-.06-.05-.2-.18-.17-.32-.12-.09.03-.18.06-.27.08-.31,0-.62,0-.92,0-.5-.11-1.06-.05-1.57-.05-.51,0-1.07-.07-1.57.05Z"/>
          <path class="cls-4" d="m1.97,9.88c.08-.04.15-.08.19-.1.35.06.66.11,1.03.17-.22.15-.38.26-.53.36-.24-.01-.49-.03-.73-.04.02-.13.03-.26.05-.39Z"/>
          <path class="cls-8" d="m7.99,2.45c-.24.1-.49.19-.73.29-.04-.36.46-.47.71-.57,0,.09.01.18.02.28Z"/>
          <path class="cls-8" d="m8.67,2.24c-.13.04-.25.07-.38.11-.04-.07-.08-.14-.13-.23.16-.07.26-.11.38-.16.05.1.09.19.14.28Z"/>
          <path class="cls-4" d="m15.86,10.57c.21-.12.42-.24.64-.34-.36-.12-.63-.13-.92.12-.24-.07-.5-.14-.78-.22.07-.16.11-.27.16-.38-.03-.06-.06-.13-.09-.2-.07-.01-.14-.02-.17-.03-.13-.12-.23-.22-.32-.31-.12.06-.21.11-.34.18-.04-.14-.08-.27-.12-.42h-.31c-.05.08-.09.15-.14.21-.02,0-.03-.02-.05-.02v-.32c-.22-.07-.41-.19-.58.04,0,.2.22.37.03.61-.05-.2-.09-.37-.14-.59-.29.28-.25.82-.01,1.13.06-.16.11-.27.17-.44.05.21.1.36.16.59-.98-.02-1.92.15-2.88.05-.02-.18-.04-.29-.06-.42.04-.06.08-.12.12-.18.58.08,1.16.11,1.7-.17.04-.29-.21-.24-.33-.33.03-.04.05-.08.09-.14-.13-.09-.25-.19-.38-.28-.08.03-.15.05-.22.07,0,.02,0,.04,0,.05.09.03.19.05.29.08.03.05.08.11.12.17-.48-.09-.95-.1-1.46.09-.02.02-.09.06-.15.11v-.58h.68s0-.06,0-.09h-.81c-.21-.2-.54-.14-.86-.1-.05-.07-.09-.13-.14-.21-.05.06-.1.11-.14.16-.08-.12-.16-.23-.24-.35.09-.05.18-.1.27-.15,0-.03-.02-.05-.03-.08-.1-.04-.85-.48-.83-.12-.2-.06-.39-.13-.59-.19.16-.08.33-.16.49-.24,0-.03-.02-.06-.03-.09-.14.03-.28.07-.43.1,0,.08-.02.15-.02.22-.34-.03-.69-.07-1.03-.1h.27c-.01-.3-.32-.11-.4-.28.05-.1.1-.21.15-.32-.13-.23-.25-.46-.36-.66.06-.1.11-.18.15-.25,1.09.41,2.19.81,3.28,1.22.09.11.18.22.28.35.12-.09.19-.14.26-.19.96.29,1.93.58,2.89.87-.03.31.19.26.34.06.18.05.36.09.54.14-.03.05-.07.1-.1.15l.08.09c.09-.06.18-.12.27-.18.88.26,1.79.37,2.7.53-.06.02-.12.03-.18.05,0,.02,0,.04,0,.07.14.03.28.05.44.08.02-.05.05-.1.07-.14.31.05.62.09.94.14-.03.02-.06.03-.16.08.25.11.44.19.63.27.18-.11.34-.2.51-.3.35.03.71.06,1.06.08.15,0,.3-.02.45-.04.05.23.11.46.15.7.03.2.04.41.06.62,0,.32,0,.63,0,.99-1.49-.49-3.06-.8-4.61-1.03Z"/>
          <path class="cls-4" d="m18.76,9.25c-.16.1-.33.19-.51.3-.19-.08-.38-.16-.63-.27.1-.05.13-.06.16-.08.32.02.65.04.97.06Z"/>
          <path class="cls-4" d="m9.8,7.34c-.07.05-.14.11-.26.19-.11-.13-.19-.24-.28-.35.18.05.36.1.54.15Z"/>
          <path class="cls-4" d="m13.03,8.27c-.15.2-.37.25-.34-.06.11.02.22.04.34.06Z"/>
          <path class="cls-4" d="m16.85,9.05s-.05.09-.07.14c-.16-.03-.3-.06-.44-.08,0-.02,0-.04,0-.07.06-.02.12-.03.18-.05.11.02.23.04.34.05Z"/>
          <path class="cls-4" d="m13.81,8.46c-.09.06-.18.12-.27.18l-.08-.09s.07-.1.1-.15c.08.02.16.04.24.05Z"/>
          <path class="cls-11" d="m11.42,3.38c.41-.55,2.39-.53,2.76.02-.4.58-2.41.57-2.76-.02Z"/>
          <path class="cls-6" d="m10.32,3.6c-.35.32-1.44.31-1.81,0,.28-.38,1.53-.39,1.81,0Z"/>
          <path class="cls-13" d="m10.19,10.46c.5-.11,1.05-.05,1.57-.05.51,0,1.07-.07,1.57.05-1.04,0-2.09,0-3.13,0Z"/>
          <path class="cls-14" d="m5.05,10.51c.26-.14.58-.02.86,0,.41.03.83,0,1.24,0-.5.16-1.61.16-2.11,0Z"/>
          <path class="cls-4" d="m14.25,10.47c.09-.03.18-.05.27-.08.14-.05.28-.07.32.12-.2-.01-.39-.03-.59-.04Z"/>
          <path class="cls-12" d="m17.88,15.26c.41.32.41.8,0,1.03-.23-.07-.33-.26-.34-.49,0-.24.08-.44.34-.54Z"/>
          <path class="cls-5" d="m9.12,19.72c.48-.34,2.05-.28,2.25.07-.36.31-1.93.27-2.25-.07Z"/>
          <path class="cls-6" d="m6.18,7.48c.34.03.69.07,1.03.1h0c.2.06.39.13.59.19.2.12.39.23.59.35.08.12.16.23.24.35-.15.57-.64.7-1.1.87-.09.03-.18.06-.27.1-.2.02-.39.04-.59.05-.08-.15-.16-.3-.26-.49-.45.23-1.02-.14-1.32.43-.06,0-.12,0-.18,0-.16-.03-.33-.07-.49-.1-.31-.18-.62-.36-.93-.54-.4-1.2,1.98-1.27,2.68-1.31Z"/>
          <path class="cls-4" d="m6.67,9.49c.2-.02.39-.04.59-.05-.14.1-.28.2-.42.3l-.05-.04c-.1.61-.18.66-.83.63-.6-.02-.64-.3-.84-.83.1,0,.21.02.31.02.42,0,.84-.02,1.25-.03Z"/>
          <path class="cls-11" d="m11.61,9.14c.12.1.37.05.33.33-.54.28-1.12.25-1.7.17-.36-.07-.41-.12-.34-.34.06-.05.13-.09.15-.11.51-.18.98-.18,1.46-.09.03.01.07.02.1.04Z"/>
          <path class="cls-7" d="m6.67,9.49c-.42,0-.84.02-1.25.03-.1,0-.21-.01-.31-.02-.06-.02-.13-.04-.19-.05.06,0,.11,0,.18,0,.3-.58.87-.2,1.32-.43.1.19.18.34.26.49Z"/>
          <path class="cls-4" d="m3.49,8.8c.31.18.62.36.93.54-.04.05-.09.09-.13.14h-.54c-.08-.11-.17-.21-.26-.33v-.36Z"/>
          <path class="cls-4" d="m8.39,8.12c-.2-.12-.39-.23-.59-.35-.02-.36.73.08.83.12,0,.03.02.05.03.08-.09.05-.18.1-.27.15Z"/>
          <path class="cls-4" d="m11.61,9.14s-.07-.02-.1-.04c-.04-.06-.08-.12-.12-.17-.11-.03-.2-.06-.29-.08,0-.02,0-.04,0-.05.07-.02.14-.05.22-.07.13.1.25.19.38.28-.04.06-.06.1-.09.14Z"/>
          <path class="cls-4" d="m7.21,7.58c0-.07.02-.14.02-.22.16-.04.29-.07.43-.1,0,.03.02.06.03.09-.16.08-.33.16-.49.24,0,0,0,0,0,0Z"/>
        </g>
      </g>
    </g>
  </g>
</svg>