<?xml version="1.0" encoding="UTF-8"?>
<svg id="_레이어_2" data-name="레이어 2" xmlns="http://www.w3.org/2000/svg" xmlns:xlink="http://www.w3.org/1999/xlink" viewBox="0 0 22.53 26.81">
  <defs>
    <style>
      .cls-1 {
        clip-path: url(#clippath);
      }

      .cls-2 {
        fill: #f7f8f8;
      }

      .cls-3 {
        fill: #b3b4b6;
      }

      .cls-4 {
        fill: #b2b4b6;
      }

      .cls-5 {
        fill: #c9cbcc;
      }

      .cls-6 {
        fill: #11253a;
      }

      .cls-7 {
        fill: #707782;
      }
    </style>
    <clipPath id="clippath">
      <circle class="cls-5" cx="11.27" cy="11.16" r="8.57"/>
    </clipPath>
  </defs>
  <g id="_레이어_1-2" data-name="레이어 1">
    <g>
      <path class="cls-2" d="m22.53,11.27c0,7.67-11.27,15.55-11.27,15.55,0,0-11.27-7.87-11.27-15.55C0,5.04,5.04,0,11.27,0s11.27,5.04,11.27,11.27Z"/>
      <g>
        <circle class="cls-5" cx="11.27" cy="11.16" r="8.57"/>
        <g class="cls-1">
          <path class="cls-5" d="m7.91,2.27c-.15-.2-.31-.39-.47-.6-.13.1-.24.2-.1.37.09.01.17.02.28.04.03.09.05.18.08.27-.05.02-.1.04-.15.05-.32-.06-.63-.19-.93-.08,0,.02.02.04.02.06h.34c-.05.14-.09.24-.13.35-.05.02-.1.04-.15.07-.05-.06-.11-.11-.17-.18-.2.12-.38.23-.56.34.03.08.05.15.07.21-.04.02-.08.04-.12.06-.04-.08-.08-.16-.12-.24-.19-.17-.31-.24-.83.39.01.05.03.1.04.15-.08.04-.13.06-.18.09-.03.09-.06.16-.09.23-.02,0-.04,0-.06-.01,0-.07-.02-.13-.03-.28-.12.11-.2.19-.27.27.13.13.22.23.32.33-.02.02-.04.04-.06.06-.16-.09-.32-.18-.49-.27-.04.09-.07.14-.1.21.07.04.13.07.18.1-.29.44-.59.77-.97.93-.06.23-.11.4-.17.62.01.01.06.05.11.09l-.1.16c-.21-.19-.25-.42-.16-.69-.07.09-.15.18-.22.27.02.18.04.34.05.42-.23.39-.38.92-.73,1.21-.03.08-.07.17-.11.26.04.05.09.11.14.18-.12.16-.24.32-.37.48.03.09.07.19.1.29-.07.05-.13.09-.21.14.14.32-.29.58-.07.92q.08-.17.24-.13c0,.08,0,.16,0,.24-.03.3-.06.6-.1.9-.1.69-.03,1.37.1,2.04.07.65.26,1.27.5,1.88.05.12.09.23.14.35.03.08.07.16.1.25l.24.46.29.54c.37.48.73.96,1.1,1.44.38.35.75.69,1.13,1.04.13.1.27.2.4.3.67.59,1.66.89,2.46,1.24.64.25,1.31.39,2,.43.2.02.4.03.6.05.38,0,.76-.02,1.15-.02.48-.09.96-.17,1.43-.26.14-.03.27-.07.41-.1.81-.23,1.57-.59,2.28-1.03.79-.49,1.5-1.09,2.13-1.78l.82-1.06c.07-.12.14-.24.21-.36.15-.28.29-.55.44-.83.01,0,.02-.02.01-.03.06-.14.12-.28.19-.41.09-.25.18-.49.27-.74.51-1.1.41-2.5.39-3.68-.02-.13-.03-.26-.05-.4-.05-.27-.1-.54-.14-.81-.02-.09-.04-.19-.06-.28-.06-.27-.12-.54-.16-.74-.13-.28-.23-.49-.33-.71-.06-.44-.53-1.01-.77-1.39-.27-.42-.59-.79-.9-1.18-.63-.79-1.58-1.35-2.39-1.96-.75-.27-1.58-.56-2.4-.86.12-.1.23-.2.39-.34-.13-.04-.21-.06-.25-.08-.23.12-.43.23-.62.33-.23-.03-.46-.06-.7-.1.02-.06.04-.13.05-.16.27-.09.55.08.78-.25-.45-.04-.84-.08-1.21.08-.35-.35-.76-.15-1.12-.2-.09.08-.16.14-.25.21-.13-.04-.59-.25-.65,0,.14.11.25.19.37.28l-.89.15c-.05-.29-.28-.23-.52-.31.12.16.2.26.27.36-.06.02-.13.04-.19.06-.12-.03-.24-.06-.4-.1-.02-.01-.07-.06-.14-.13-.06.08-.1.14-.12.15.03.12.04.19.06.26-.08.03-.16.05-.24.08Zm12.45,5.21v-.55c-.14-.09-.27-.18-.42-.28.03.62.08.7.42.84Zm-2-2.9s.05-.05.08-.07c-.27-.29-.53-.57-.8-.86-.02.02-.04.03-.06.05.2.35.42.68.78.88Z"/>
          <path class="cls-5" d="m19.67,15.12c-.08-.16-.16-.29-.27-.44-.07.12-.11.18-.13.22-.24.07-.68.32-.76-.07.11-.04.23-.09.34-.13-.04-.04-.09-.08-.13-.12-.04-.09-.08-.18-.14-.31h.32c-.05-.17-.09-.32-.14-.48.05-.04.11-.08.16-.12.06.09.12.17.18.26-.02,0-.05.01-.07.02.05-.21.1-.42.15-.63.02,0,.03,0,.05.01v-1.15s.11-.04.23-.09v-1.11s-.08-.03-.16-.07c.05-.09.1-.17.16-.25.15.01.3.02.51.03-.15.12-.26.2-.32.25v1.99c-.17.06-.27.17-.11.41.07-.07.14-.13.21-.19.32.23-.72,1.67.09,1.53-.06.14-.12.28-.19.41Z"/>
          <path class="cls-5" d="m1.8,9.69s0,.1,0,.15c.01,0,.03-.02.04-.03.12.15.23.3.36.46.05-.15.1-.31.15-.46.03,0,.06,0,.09,0,.02.15.04.3.07.46-.08.05-.14.08-.16.09-.07.65-.13,1.27-.2,1.89-.04,0-.07-.02-.11-.03-.08.13-.16.26-.24.4-.14-.68-.2-1.36-.1-2.04.04-.3.07-.6.1-.9Z"/>
          <path class="cls-5" d="m3.08,16.1c.08-.06.17-.13.25-.2-.01-.11-.03-.22-.04-.32.02,0,.04-.01.05-.02.07.1.14.19.24.32.08-.11.13-.2.18-.26-.17-.21-.31-.38-.46-.56.04.05.08.1.12.16.06-.14.11-.28.16-.42.1.09.19.17.24.21.08.14.14.26.2.37l.05-.02c.12.29.25.59.38.9.05-.02.13-.04.22-.07.06.06.13.12.16.15-.03.24-.06.45-.1.68-.11-.16-.21-.3-.32-.45-.07-.02-.14-.04-.2-.06-.14-.17-.28-.33-.43-.52-.1.02-.22.04-.36.07-.02.11-.03.22-.05.34.2.17.38.32.59.5,0,.05-.02.13-.03.15.09.19.16.33.24.48-.37-.48-.73-.96-1.1-1.44Z"/>
          <path class="cls-6" d="m3.13,6.07c-.21.41-.45.8-.64,1.22-.31.68-.54,1.38-.66,2.12,0,.01-.02.02-.03.04q-.16-.04-.24.13c-.21-.34.21-.6.07-.92.07-.05.13-.09.21-.14-.03-.1-.07-.21-.1-.29.13-.16.24-.32.37-.48-.06-.07-.1-.13-.14-.18.04-.1.07-.19.11-.26.35-.29.5-.82.73-1.21,0-.08-.03-.25-.05-.42.07-.08.14-.18.22-.27-.09.27-.05.5.16.69Z"/>
          <path class="cls-6" d="m10.33,1.75c-.08,0-.16,0-.24,0-.11-.09-.23-.17-.37-.28.06-.24.52-.03.65,0,.09-.08.16-.13.25-.21.36.05.77-.14,1.12.2.37-.16.76-.12,1.21-.08-.22.33-.51.16-.78.25,0,.03-.03.09-.05.16-.08-.02-.16-.03-.24-.05-.52,0-1.03,0-1.55,0Z"/>
          <path class="cls-5" d="m20.12,13.96c-.05-.11-.1-.22-.15-.34.06-.08.11-.16.16-.24.02-.31.05-.62.07-.94-.12.05-.24.09-.35.14-.02-.02-.03-.04-.05-.06.05-.14.1-.29.17-.49.06.15.1.23.15.35.1-.06.18-.1.23-.13v-1.15s-.02,0-.03,0c.06-.19.11-.39.17-.58-.02,0-.03-.01-.05-.02.02-.07.05-.14.07-.21.03,1.18.12,2.57-.39,3.68Z"/>
          <path class="cls-6" d="m5.95,3.25c-.41.31-.82.62-1.22.94-.1-.1-.19-.2-.32-.33.08-.08.16-.15.27-.27.02.14.02.21.03.28.02,0,.04,0,.06.01.03-.07.06-.15.09-.23.05-.02.11-.05.18-.09-.01-.05-.02-.1-.04-.15.51-.64.64-.56.83-.39.04.08.08.16.12.24Z"/>
          <path class="cls-6" d="m4.67,4.24c-.48.56-.95,1.12-1.43,1.68-.05-.04-.1-.08-.11-.09.06-.22.11-.39.17-.62.38-.16.68-.49.97-.93-.05-.03-.11-.06-.18-.1.03-.06.06-.12.1-.21.17.09.33.18.49.27Z"/>
          <path class="cls-5" d="m17.92,16.09c.24-.15.42-.15.52.06.13.28.29.37.56.19l-.82,1.06c-.01-.09-.02-.18-.04-.32-.05-.03-.13-.09-.21-.14.61-.33.59-.51,0-.84Z"/>
          <path class="cls-5" d="m10.78,20.59c0-.38.09-.45.65-.43.16.11.28.17.46.23.01.05.02.11.04.18-.38,0-.76.02-1.15.02Z"/>
          <path class="cls-5" d="m20.25,8.8c-.4-.25-.33-.63-.49-1.01-.1-.03-.19-.05-.35-.1.14-.14.25-.24.35-.34.1.21.2.43.33.71.04.19.1.46.16.74Z"/>
          <path class="cls-5" d="m8.18,20.11c.63,0,1.25.06,1.82.37.06.03.12.04.18.06-.69-.04-1.36-.18-2-.43Z"/>
          <path class="cls-6" d="m20.35,7.49c-.35-.14-.39-.22-.42-.84.15.1.28.19.42.28v.55Z"/>
          <path class="cls-6" d="m7.56,2.41c-.23.11-.46.22-.7.33.04-.11.08-.21.13-.35h-.34s-.02-.04-.02-.06c.31-.11.62.01.93.08Z"/>
          <path class="cls-6" d="m18.35,4.59c-.36-.2-.58-.53-.78-.88.02-.02.04-.03.06-.05.27.29.53.57.8.86-.03.02-.05.05-.08.07Z"/>
          <path class="cls-6" d="m6.71,2.81c-.22.13-.43.25-.65.38-.02-.07-.05-.13-.07-.21.17-.11.35-.22.56-.34.06.06.11.12.17.18Z"/>
          <path class="cls-6" d="m7.91,2.27c-.07.03-.14.05-.2.08-.03-.09-.05-.18-.08-.27-.11-.01-.19-.03-.28-.04-.14-.17-.03-.27.1-.37.16.21.31.4.47.6Z"/>
          <path class="cls-6" d="m13.3,1.98c-.16-.03-.32-.05-.49-.08.2-.1.39-.21.62-.33.04.01.12.04.25.08-.15.13-.27.24-.39.34Z"/>
          <path class="cls-5" d="m19.21,15.98c-.02-.08-.03-.16-.05-.26.09-.17.19-.35.31-.56.04,0,.11,0,.18-.01-.15.28-.29.55-.44.83Z"/>
          <path class="cls-6" d="m8.75,2.01c-.2.06-.4.12-.6.19-.02-.07-.03-.14-.06-.26.01-.02.06-.08.12-.15.08.07.13.11.14.13.16.04.28.07.4.1Z"/>
          <path class="cls-6" d="m9.19,1.91c-.08.02-.17.03-.25.05-.08-.1-.15-.2-.27-.36.24.08.48.02.52.31Z"/>
          <path class="cls-5" d="m13.36,20.31c.05-.12.1-.25.16-.4.09.11.17.2.25.3-.14.03-.27.07-.41.1Z"/>
          <path class="cls-5" d="m5.31,18.58h.38c0,.12.02.21.02.3-.13-.1-.27-.2-.4-.3Z"/>
          <path class="cls-5" d="m2.55,15.1c.1.04.21.09.3.13-.03.15-.04.24-.06.33l-.24-.46Z"/>
          <path class="cls-3" d="m5.55,14s-.03,0-.05,0c-.13-.08-.26-.16-.4-.25-.4-.49,1.1-.66,1.36-.81.64-.03,1.28-.05,1.91-.08.18.02.36.03.55.05.47.07.96.11,1.42.19.39.07.63.25.97.47-.06.29-.3.29-.46.39-.17.07-.33.13-.5.2-.13.02-.26.03-.4.05-.18.02-.35.03-.53.05-.29.03-.57.07-.86.1-.31,0-.63,0-.94,0-.1-.02-.2-.03-.31-.05-.59-.1-1.19-.2-1.78-.3Z"/>
          <path class="cls-3" d="m18.96,9.35c.5.22.88.37.35.79-.07.02-.13.03-.2.05-.23.07-.46.13-.69.2-.13.02-.26.03-.4.05-.92.07-1.82.12-2.75.02-.39-.05-1.93-.17-1.87-.76.1-.09.21-.18.27-.23.54-.19,1.04-.34,1.57-.31.66-.02,1.32-.03,1.98-.05.52.02,1.04.06,1.54.22.06.02.13.02.19.03Z"/>
          <path class="cls-3" d="m17.92,16.09c.59.34.61.52,0,.84-.32.07-.63.15-.95.21-.16.03-.32.03-.49.04-.17.02-.33.03-.5.05-.3,0-.6,0-.89,0-.28-.02-.56-.03-.84-.05-.17-.02-.33-.03-.5-.05-.31-.12-1.67-.18-1.49-.74.64-.34,1.12-.46,1.84-.55.12-.02.23-.03.35-.05.08,0,.16,0,.25,0,.38,0,.76,0,1.14,0,.12,0,.23,0,.35,0,.23.03.46.06.7.1.35.07.69.13,1.04.2Z"/>
          <path class="cls-3" d="m12.43,3.67c.57,0,1.14.03,1.7.12.37.06.96.11,1.23.39.66.66-1.92.88-2.29.91-1.03.09-2.35.08-3.32-.33-1.26-.53,1.05-.96,1.44-1.01.41-.06.82-.05,1.23-.08Z"/>
          <path class="cls-5" d="m10.43,19.95c-.31-.3-.92-.21-1.29-.06-.16-.02-.31-.04-.48-.06v-.2c-.06-.01-.13-.03-.24-.05-.02-.17-.04-.35-.06-.58h.48v.24c.42.07.82.2,1.25.22.44.03.88,0,1.31.07.02.02.08.06.14.11.3.05.52-.09.68-.25.51-.11,1.67-.15,2.02-.57.08-.01.15-.02.24-.03.04-.06.09-.13.14-.21.05.04.1.08.13.11.11-.02.2-.04.29-.05,0,.03.02.06.03.09-.21.12-.43.24-.65.37.01.04.03.08.03.1-.21.04-.42.08-.62.11-.03.07-.05.13-.07.19-.2.02-.39.03-.61.05-.02.02-.05.08-.11.18-.84.07-1.71.14-2.61.21Z"/>
          <path class="cls-4" d="m6.26,16.39s.1,0,.15,0c.4,0,.79,0,1.19,0,.05,0,.1,0,.15,0,.21.07.43.13.64.2.05.03.1.07.15.1.07.53-1,.56-1.33.57-.65.04-1.33-.04-1.87-.4.06-.09.09-.16.13-.22.08-.03.17-.07.25-.1.18-.05.36-.1.55-.15Z"/>
          <path class="cls-3" d="m11.13,10.09c.18.03.36.07.54.1.12.1.25.19.42.33-.79.52-2.6.75-3.27-.07.11-.1.17-.16.23-.21.26-.05.53-.1.79-.15.43,0,.86,0,1.29,0Z"/>
          <path class="cls-3" d="m17.79,6.71c-.18.47-.89.47-1.32.5-.36.02-1.48.08-1.75-.24-.61-.73,2.33-.56,2.66-.48.14.03.27.14.4.22Z"/>
          <path class="cls-5" d="m6.49,18.59c-.1-.37-.42-.31-.64-.37-.05-.12-.1-.23-.16-.36h.38s.05.1.11.21c.09-.09.17-.17.28-.28.1.02.23.04.38.06.04.06.08.12.11.17.29.07.58-.23.88.03-.36.2-.76.04-1.19.14.16.14.27.23.37.32-.01.02-.03.04-.04.05-.05-.02-.11-.04-.16-.06-.11.03-.23.07-.33.1Z"/>
          <path class="cls-5" d="m12.06,15.62c.11-.11.23-.21.32-.3.19.01.32.02.45.03.09-.12.17-.23.26-.36.11.03.23.06.36.1.03-.05.07-.11.13-.19.11,0,.23.02.33.03.15-.03.29-.07.44-.1.05.1.09.18.13.25-.81.2-1.6.39-2.39.59-.01-.02-.02-.04-.03-.05Z"/>
          <path class="cls-5" d="m16.88,15.89c-.23-.03-.46-.06-.7-.1.09-.04.18-.08.3-.13-.09-.06-.15-.11-.22-.16,0-.02,0-.04,0-.06h.99s.01-.07.02-.11c-.32-.11-.35-.15-.47-.46.18.03.3.05.45.07.11.11.25.24.41.39.06,0,.15,0,.24-.01,0,.03,0,.07,0,.1-.11,0-.23.01-.36.02-.22.33-.62.18-.94.26.11.08.2.14.29.2Z"/>
          <path class="cls-5" d="m15.75,14.99c0,.11.01.2.02.33h-.62c-.06-.05-.14-.13-.23-.21-.09.04-.18.08-.28.12-.01-.02-.02-.04-.04-.05.04-.05.08-.11.13-.18-.05-.04-.1-.09-.16-.13.09-.19.88-.11,1.17.12Z"/>
          <path class="cls-5" d="m18.07,15.7c.08-.1.13-.17.19-.25-.04-.08-.08-.16-.14-.27.12-.02.22-.03.31-.04.08.09.14.17.21.26.07-.02.14-.04.23-.07,0,.14.02.28.03.49-.19-.06-.35-.11-.55-.17-.05,0-.14.03-.28.05Z"/>
          <path class="cls-5" d="m2.73,10.29c.25.21.24,1.09-.05,1.55-.05-.08-.1-.15-.15-.22.03,0,.05,0,.08,0,.04-.44.08-.88.12-1.33Z"/>
          <path class="cls-5" d="m8.29,19c-.02.08-.04.19-.05.28-.22-.05-.42-.1-.64-.15-.09-.12-.21-.27-.33-.43,0-.02.02-.04.03-.05.31.11.62.22,1,.35Z"/>
          <path class="cls-5" d="m14.45,15.79c-.12.02-.23.03-.35.05,0-.24-.37-.21-.53-.24,0-.03,0-.07,0-.1.31-.05.62-.09.96-.14,0,.13.01.21.02.29-.07.03-.13.06-.21.09.06.03.09.04.12.05Z"/>
          <path class="cls-5" d="m5.27,16.07c-.09.1-.18.21-.26.3-.03-.17-.05-.34-.08-.53.37.31.42-.19.69-.24.07.04.15.1.27.18-.22.12-.4.21-.58.31l-.04-.02Z"/>
          <path class="cls-5" d="m17.79,11.28c-.21.07-.42.13-.66.21-.09-.04-.21-.09-.33-.14,0-.02,0-.04.01-.06.32-.04.64-.08.96-.12,0,.04.01.08.02.12Z"/>
          <path class="cls-5" d="m16.77,14.66c.02-.44.04-.85.07-1.27.04,0,.08,0,.12.01-.01.1-.02.19-.04.33.12.26.07.78-.15.92Z"/>
          <path class="cls-5" d="m2.46,9.08c-.02-.22-.03-.45-.05-.72.07-.04.17-.1.26-.15.02.02.04.04.06.06-.22.24.04.6-.18.83-.03,0-.06,0-.09-.01Z"/>
          <path class="cls-5" d="m7.5,15.2h.55s0,.03,0,.04h.6s0,.05,0,.07c-.34.07-.75-.17-1.03.23-.04-.11-.07-.19-.13-.34Z"/>
          <path class="cls-5" d="m2.41,13.37c-.18-.14-.18-.79,0-1.01v1.01Z"/>
          <path class="cls-5" d="m2.69,9.33c.13.09.23.17.34.25-.01.09-.02.2-.04.33-.05-.05-.09-.09-.12-.12-.04.03-.08.06-.18.13v-.59Z"/>
          <path class="cls-5" d="m16.87,13.29c-.19-.38-.02-.73-.03-1.07,0,.34.29.66.03,1.07Z"/>
          <path class="cls-5" d="m15.02,17.91h.41c.02.19.05.38.08.61-.05.01-.11.03-.24.07.04-.15.07-.25.1-.36-.1-.09-.2-.19-.35-.32Z"/>
          <path class="cls-5" d="m15.63,17.87c.18,0,.35-.02.53-.03,0,0,0,.02,0,.03.11-.03.22-.06.34-.09l.03.07c-.1.07-.2.14-.28.19-.23-.03-.43-.05-.63-.07,0-.03,0-.06,0-.1Z"/>
          <path class="cls-5" d="m5.2,14.73c-.07.05-.13.09-.24.16.01-.14.02-.23.03-.36-.12.07-.19.11-.27.16-.01,0-.02-.02-.03-.03l.28-.51s.04.02.06.03c-.02.05-.04.1-.06.16.07.12.13.23.22.39Z"/>
          <path class="cls-5" d="m11.4,14.88c-.17.11-.34.22-.48.3-.19-.02-.33-.03-.47-.05,0-.02,0-.03-.01-.05.14-.02.28-.03.37-.05.2-.1.37-.18.53-.26.01.03.03.06.04.1Z"/>
          <path class="cls-5" d="m10.05,15.26c-.26.01-.51.23-.84.03.31-.1.56-.25.84-.03Z"/>
          <path class="cls-5" d="m15.07,11.26c-.28-.04-.56-.07-.84-.11.18-.2.56-.16.84.11Z"/>
          <path class="cls-5" d="m15.84,15.79c-.38,0-.76,0-1.14,0,.27-.19.68-.04,1.05-.2.02.05.06.12.09.2Z"/>
          <path class="cls-5" d="m6.45,18.56c.02.07.04.11.06.17.15-.02.29-.04.45-.06-.03.07-.07.13-.1.19h-.31c-.08-.06-.18-.14-.31-.25.11-.02.17-.04.21-.05Z"/>
          <path class="cls-5" d="m12.37,20.08c.1-.22.27-.22.61,0h-.61Z"/>
          <path class="cls-5" d="m5.96,15.76c.02-.12.04-.18.06-.29.15.05.27.08.39.12,0,.04,0,.07,0,.11-.13.02-.27.04-.45.06Z"/>
          <path class="cls-5" d="m5.87,15.36c-.06-.13-.08-.19-.14-.31h.41s.02.05.03.07c-.09.07-.17.14-.3.24Z"/>
          <path class="cls-5" d="m19.44,8.37c-.16-.03-.28-.06-.4-.08,0-.02-.02-.04-.03-.06.1-.06.21-.13.35-.22.03.16.05.24.08.36Z"/>
          <path class="cls-5" d="m19.12,13.94l-.05-.07s-.01.06-.02.09c.02,0,.05-.01.07-.02Z"/>
          <path class="cls-7" d="m10.33,1.75c.52,0,1.03,0,1.55,0-.52,0-1.03,0-1.55,0Z"/>
          <path class="cls-5" d="m2.5,9.22c-.03.09-.06.18-.09.26h-.07c-.04-.14-.08-.29-.14-.49.12.1.2.16.29.23Z"/>
          <path class="cls-5" d="m15.99,17.23c.17-.02.33-.03.5-.05-.07.22-.26.24-.5.05Z"/>
          <path class="cls-5" d="m5.64,15.08c-.12.02-.18.02-.29,0,.04-.1.07-.19.1-.28.03,0,.06,0,.1,0,.03.08.06.17.1.28Z"/>
          <g>
            <path class="cls-5" d="m3.89,7.89c-.17.26.03.3.14.4-.01.09-.03.18-.05.33.11-.02.2-.04.29-.06v-.26s-.07.07-.1.1c-.09-.17-.19-.34-.28-.51Z"/>
            <path class="cls-5" d="m7.06,8.92s0,.06,0,.09c.21-.01.43-.02.67-.03.04.03.11.08.18.13.13-.04.27-.08.41-.12,0-.02,0-.05,0-.07h-1.25Z"/>
          </g>
          <path class="cls-5" d="m11.5,16.2c-.1-.07-.15-.1-.23-.15.07-.08.13-.16.23-.28v.44Z"/>
          <path class="cls-4" d="m9.69,6.97c-1.05-.13-2.11-.32-3.16-.23-.6.05-2.03.07-2.34.72.15.3.45.37.73.44.34.09.7.11,1.06.16h0c.08.02.17.03.25.05.1,0,.2,0,.3,0,.12.02.23.03.35.05.33,0,.66,0,.99,0,.16-.02.31-.03.47-.05,0,0,0,0,0,0,.12-.01.25-.03.37-.04.08,0,.16,0,.25,0,.2-.03.4-.07.6-.1.21-.07.84-.18.87-.48.03-.27-.55-.43-.73-.51Z"/>
        </g>
      </g>
    </g>
  </g>
</svg>