<?xml version="1.0" encoding="UTF-8"?>
<svg id="_레이어_2" data-name="레이어 2" xmlns="http://www.w3.org/2000/svg" xmlns:xlink="http://www.w3.org/1999/xlink" viewBox="0 0 22.53 26.81">
  <defs>
    <style>
      .cls-1 {
        clip-path: url(#clippath);
      }

      .cls-2 {
        fill: #f7f8f8;
      }

      .cls-3 {
        fill: #e7a05c;
      }

      .cls-4 {
        fill: #6b4a5e;
      }

      .cls-5 {
        fill: #935674;
      }

      .cls-6 {
        fill: #945574;
      }

      .cls-7 {
        fill: #ba6f97;
      }

      .cls-8 {
        fill: #b47e95;
      }

      .cls-9 {
        fill: #b06976;
      }

      .cls-10 {
        fill: #af6a76;
      }

      .cls-11 {
        fill: #af6976;
      }

      .cls-12 {
        fill: #dc6434;
      }

      .cls-13 {
        fill: #11253a;
      }

      .cls-14 {
        fill: #964f74;
      }
    </style>
    <clipPath id="clippath">
      <circle class="cls-7" cx="11.27" cy="11.27" r="8.46"/>
    </clipPath>
  </defs>
  <g id="_레이어_1-2" data-name="레이어 1">
    <g>
      <path class="cls-2" d="m22.53,11.27c0,7.67-11.27,15.55-11.27,15.55,0,0-11.27-7.87-11.27-15.55C0,5.04,5.04,0,11.27,0s11.27,5.04,11.27,11.27Z"/>
      <g>
        <circle class="cls-7" cx="11.27" cy="11.27" r="8.46"/>
        <g class="cls-1">
          <path class="cls-13" d="m14.57,21.46c-.13-.15-.5-.13-.68.04.24-.01.44-.02.68-.04Zm.09-.23s0,.06,0,.08c.16-.01.31-.03.47-.04-.17-.22-.32-.12-.47-.04Zm1.79-1.4s.02.06.04.1c.14-.04.29-.09.43-.13,0-.02,0-.04,0-.06-.08-.02-.16-.03-.26-.05-.07.05-.13.1-.2.15Z"/>
          <path class="cls-13" d="m9.3,22.26h-.34c.12-.11.24-.21.41-.37-.03.17-.05.27-.06.37Z"/>
          <path class="cls-13" d="m8.76,21.43c-.12.07-.23.15-.36.22-.03.01-.09-.04-.13-.07.15-.09.27-.3.49-.15Z"/>
          <path class="cls-12" d="m27.35,19.77c-.26.14-.81.1-1.11.13-.39.3-.39.63-.22,1.06.09.24.24.78.55.76-.15.03-.31.08-.46.09-.25.03-.51.04-.76.05-.23.02-.46.04-.69.06-.23,0-.46,0-.69,0-.21-.03-.42-.07-.63-.1-.11-.02-.23-.04-.34-.06-.16-.03-.33-.06-.49-.1-.69-.18-1.32-.49-1.81-1.03-.02-.04-.03-.08-.05-.11-.5-.64-.64-1.38-.51-2.17.29-1.77,1.27-3.18,2.37-4.53l.26.05s0-.03,0-.05c.32-.05.64-.11.99-.17.03-.04.07-.12.13-.21.06.08.11.13.15.19.22-.04.43-.08.67-.12.02.02.06.07.14.15-.19.09-.36.17-.55.26.02.13.05.28.07.43-.66,1.17-1.61,2.68-.86,4.04.74,1.34,2.51,1.37,3.85,1.35Z"/>
          <path class="cls-13" d="m13.85,22.26c-.36-.02-.71-.04-1.09-.06-.02-.1-.03-.19-.04-.27-.34-.02-.68-.05-1.07-.08.07-.11.1-.17.14-.23h.6s0-.04.01-.06c.16.09.31.18.5.28.23-.01.5-.03.78-.05,0-.01,0-.02,0-.04-.24-.03-.48-.07-.72-.1,0-.01-.01-.02-.02-.03.21-.06.42-.12.73-.21.04.04.13.12.24.23h.61c.06-.06.12-.14.19-.22.24.1.37-.04.56-.16.27-.16.43-.21.75-.26,0-.01-.01-.03-.02-.04.68-.37,1.45-.82,1.99-1.38.2-.2.33-.43.55-.61.23-.19.5-.25.55-.59-.07-.06-.13-.1-.22-.17.29-.09.36.13.48.25.02.29-.06.59-.03.88.04.3.13.49.11.8.14.26.3.56.46.86,0,0,.02-.01.02-.02.13.19.26.38.38.57v.26c.23.3.48.64.75,1-.89.06-1.85-.13-2.71.15-.06-.04-.12-.09-.19-.14h-3.64c-.04-.06-.08-.12-.12-.18-.08-.02-.15-.04-.26-.06.06-.09.11-.15.16-.21-.1-.22-.3-.1-.44-.13Z"/>
          <path class="cls-6" d="m20.27,8.65c-.8.07-1.77-.38-2.56-.55-.87-.19-1.74-.21-2.63-.28h0c-.85-.16-1.8-.07-2.67-.09-.69-.01-1.36-.09-2.04-.15-1.01-.15-2.03-.24-3.03-.46-1.27-.27-2.52-.64-3.77-.97-.08-.02-.15-.09-.23-.14-.05.06-.1.13-.15.19-.07.13-.14.26-.2.38,1.89.94,3.73,1.84,5.75,2.45,2.09.63,4.22,1.09,6.4,1.32,1.76.31,3.69.36,5.48.25,0-.03,0-.07,0-.1-.07-.63-.11-1.26-.34-1.86Z"/>
          <path class="cls-13" d="m22.51,13.84c-1.1,1.35-2.07,2.76-2.37,4.53-.13.79,0,1.52.51,2.17.02.03.03.07.05.11h-.39c.05.37.53.46.66.83-.13.1-.27.2-.41.3.02-.08.05-.17.08-.26-.26-.35-.53-.7-.8-1.06.01,0,.03-.01.04-.02-.07-.15-.15-.31-.22-.46-.02,0-.03.02-.05.03,0-.43-.09-.88.16-1.23.1.13.17.23.25.33.02,0,.03,0,.05-.01l-.04-.59s-.04,0-.05,0c.04-.06.08-.12.13-.18-.04-.09-.08-.19-.15-.34-.06.17-.11.29-.16.45-.16-.39-.07-.97.32-1.1-.03-.06-.06-.12-.12-.24.19-.38.39-.76.58-1.14.16-.31.2-.56.42-.83,0-.06,0-.11.01-.17.02.01.04.03.07.04.22-.28.45-.55.68-.84.11-.01.22-.03.36-.05-.17-.58.23-.89.55-1.22.11.03.23.06.35.09.09-.15.15-.26.22-.37.07-.02.14-.04.22-.06.03-.07.06-.13.09-.2-.08-.09-.14-.16-.21-.24.01-.02.02-.04.03-.06.1,0,.19.02.33.03-.06-.08-.1-.12-.14-.18.18-.16.36-.33.54-.49.01.01.03.03.04.04.01-.06.02-.12.03-.19.17.04.32.08.48.12.2-.21.37-.41.57-.62-.09-.07-.13-.1-.17-.14-.16.14-.31.27-.46.4-.02-.02-.04-.05-.06-.07.37-.3.6-.75,1.1-.89.13-.11.25-.21.38-.33.07.04.13.08.21.13.07,0,.15-.02.18-.02.14-.16.26-.3.38-.43h.09c-.07-.16-.14-.32-.2-.48h-.11c.11-.18.22-.36.36-.57,0,0-.05-.07-.05-.08.09-.24.16-.43.23-.62-.02,0-.04-.02-.06-.03.06-.05.12-.1.18-.16,0-.09,0-.18.01-.28.15-.18.3-.37.53-.64.05-.29.36-.84.69-1.1.1.02.21.04.31.06.21-.22.41-.43.62-.65v-.22c-.05-.05-.11-.1-.19-.17,0-.08,0-.18.02-.27.02-.01.05-.03.07-.04.18.16.36.33.54.49-.22.22-.45.45-.66.67-.71.75-1.25,1.62-1.67,2.56-.19.56-.37,1.11-.56,1.67-1.21.98-2.35,2.03-3.42,3.15-.34.36-.65.76-.97,1.14Z"/>
          <path class="cls-3" d="m20.25,8.41c-.03-.06-.07-.13-.1-.2-.08-.16-.16-.32-.23-.49-1.32-.2-2.64-.4-3.97-.59-.99-.03-1.99-.07-2.98-.1-.2-.02-.39-.03-.59-.05-.32-.02-.65-.04-.97-.06,0-.02,0-.05,0-.07-.08.03-.16.06-.23.09-.72-.1-1.42-.19-2.13-.29,0,.01,0,.03,0,.04-.09-.05-.18-.11-.27-.16,0,.02,0,.04-.01.07-.2-.03-.39-.07-.59-.1-.51-.1-1.01-.2-1.52-.3-.15-.04-.3-.09-.44-.13-.2-.05-.39-.1-.59-.15-.1-.02-.19-.04-.29-.06-.22-.06-.44-.11-.65-.19-.26-.11-.51-.25-.77-.38-.03.03-.07.06-.1.09-.14.18-.28.37-.43.55-.02.03-.03.06-.05.09.08.05.15.12.23.14,1.26.33,2.51.7,3.77.97,1,.21,2.02.31,3.03.46.68.06,1.35.14,2.04.15.87.02,1.82-.07,2.67.09.89.07,1.76.09,2.63.28.79.17,1.76.62,2.56.55,0-.08,0-.16-.01-.24Z"/>
          <path class="cls-13" d="m7.78,2.54c-.22.1-.44.19-.65.29-.04.02-.06.06-.09.09-.18.08-.36.16-.54.25-.08.05-.16.1-.24.15-.72.4-1.33.94-1.91,1.5-.14.14-.27.28-.41.42-.1-.2-.05-.28.26-.39-.01-.07-.03-.14-.04-.22-.13-.1-.26-.2-.39-.29.14-.14.28-.3.43-.45,0-.03-.01-.06-.02-.08.11.03.21.06.32.09.12-.1.24-.2.39-.33.01-.04.03-.12.06-.23.08.05.14.09.19.12.48-.31.97-.62,1.5-.96.03,0,.12.02.24.04.27-.33.59-.09.91,0Z"/>
          <path class="cls-13" d="m3.81,5.38c-.14.18-.28.37-.43.55-.08-.08-.17-.15-.23-.21-.12.06-.21.11-.34.17v-.28c.09-.03.16-.06.27-.09-.02-.08-.03-.15-.05-.21.08-.06.17-.13.27-.21.05.06.1.11.16.17.08-.01.16-.02.24-.03.03.04.07.08.11.13Z"/>
          <path class="cls-13" d="m19.38,4.06s0,.1,0,.11c.1.1.19.18.29.27.06,0,.15,0,.24.02.05.18.1.36.14.52.05.05.1.1.16.16-.13.06-.26.12-.39.18-.02-.02-.03-.03-.05-.05.04-.09.08-.18.16-.33-.25-.25-.52-.53-.8-.81-.06-.01-.13-.02-.2-.04,0-.01,0-.02,0-.03h.45Z"/>
          <path class="cls-13" d="m17.96,2.64c.05-.07.1-.14.17-.25.04.29.08.54.12.78-.06.05-.12.1-.21.18-.02-.14-.03-.23-.04-.3-.1-.12-.18-.22-.28-.33.1-.04.17-.06.24-.09Z"/>
          <path class="cls-13" d="m15.46,2.94c-.15-.07-.29-.14-.44-.2-.16-.08-.33-.16-.49-.24.04-.08.08-.15.13-.23.21.12.41.24.61.36.02-.02.03-.04.05-.06.05.13.09.25.14.38Z"/>
          <path class="cls-13" d="m20.11,14.43c.05-.15.1-.3.14-.44.06.18.12.36.17.5.18-.01.31-.02.44-.04,0,.02,0,.05,0,.07-.11.1-.22.2-.32.3-.09-.12-.18-.23-.3-.38-.02,0-.08,0-.14-.02Z"/>
          <path class="cls-13" d="m20.44,13.25c.05-.3.1-.59.16-.89.05.07.1.14.15.21v.61c-.11.03-.21.05-.31.07Z"/>
          <path class="cls-13" d="m20.15,8.22c-.08-.16-.16-.32-.23-.49,0-.05,0-.1,0-.15.08.09.15.17.25.29.05-.1.07-.14.09-.19.03-.03.07-.07.1-.1.11.28.04.48-.2.64Z"/>
          <path class="cls-13" d="m20.25,13.99c.05-.17.1-.33.15-.5.1.14.45.47.29.67-.15-.06-.3-.12-.44-.17Z"/>
          <path class="cls-5" d="m14.34,2.45c-.05.1-.11.21-.16.31-.32-.14-.36-.24-.29-.49.15.06.3.12.45.18Z"/>
          <path class="cls-13" d="m16.54,3.57c-.18-.11-.36-.23-.54-.34.12-.06.23-.12.35-.18.08.12.13.19.17.24,0,.11.02.2.02.28Z"/>
          <path class="cls-13" d="m3.69,5.12c-.13-.04-.23-.08-.38-.13.14-.24.21-.21.49-.23-.05.16-.08.25-.11.35Z"/>
          <path class="cls-13" d="m17.27,2.15c.13.06.26.12.4.18.03.07.06.14.09.21h-.4c-.03-.14-.06-.27-.09-.39Z"/>
          <path class="cls-13" d="m13.6,2.15s-.06.04-.1.06c-.18-.04-.36-.07-.54-.11-.05-.04-.1-.07-.14-.11.37-.11.64-.06.78.15Z"/>
          <path class="cls-13" d="m18.5,5.18c-.15-.11-.29-.23-.44-.34.09-.07.17-.14.26-.22.01.01.03.02.04.04-.01.06-.02.11-.02.11.07.17.11.29.16.41Z"/>
          <path class="cls-13" d="m17.03,3.87c-.13-.08-.27-.16-.4-.24.05-.06.1-.12.15-.19.22.07.29.22.25.43Z"/>
          <path class="cls-13" d="m15.71,1.37c.07-.02.13-.04.21-.06.05.07.09.13.14.2h.34c.08.1.14.18.2.25h-.27s.02-.03.03-.05c-.21-.11-.43-.23-.64-.34Z"/>
          <path class="cls-13" d="m20.99,9.73c-.03.15-.07.3-.11.49-.26-.19-.12-.34-.09-.49.02-.03.05-.05.07-.08.05.03.09.06.13.08Z"/>
          <path class="cls-4" d="m20.61,11.99c0-.14,0-.28,0-.41,0-.08-.06-.15-.09-.23.03-.24.06-.49.09-.73,0-.03,0-.07,0-.1.02.16.05.33.04.49,0,.33-.03.65-.04.98Z"/>
          <path class="cls-13" d="m8.59,2.13h-.52c.06-.08.09-.14.15-.21.14.04.27.07.4.11,0,.04-.02.07-.03.11Z"/>
          <path class="cls-13" d="m8.02,2.24c-.1.04-.19.08-.31.13-.06-.07-.12-.13-.18-.19.01-.02.02-.05.03-.07.15.02.29.04.44.05,0,.03.01.05.02.08Z"/>
          <path class="cls-13" d="m12.19,1.7c-.21-.03-.43-.06-.64-.08.22-.02.45-.23.64.08Z"/>
          <path class="cls-13" d="m20.99,9.73s-.08-.05-.13-.08c-.02.03-.04.05-.07.08-.03-.08-.06-.17-.08-.25.03-.02.05-.03.08-.05.08.03.16.05.25.08-.02.08-.03.15-.05.22Z"/>
          <path class="cls-13" d="m20.36,7.58s-.07.07-.1.1c.02-.15.04-.31.06-.47.06,0,.11,0,.2.01-.07.14-.12.25-.17.37Z"/>
          <path class="cls-13" d="m16.64,1.81c.16.05.33.1.49.15-.16.02-.33.05-.52.08.01-.11.02-.17.03-.22Z"/>
          <path class="cls-13" d="m15.32,1.12h.17c.03.1.05.2.08.29h-.22c0-.12-.01-.21-.02-.29Z"/>
          <path class="cls-13" d="m20.75,12.77v-.2s.05-.08.13-.17c.03.18.05.31.07.43-.02,0-.04.02-.07.03-.04-.03-.08-.06-.13-.09Z"/>
          <path class="cls-13" d="m17.47,4.26c-.08-.07-.16-.14-.24-.21.04-.05.07-.1.11-.15.19.1.18.23.13.36Z"/>
          <path class="cls-13" d="m15.9,3.17c-.08-.05-.16-.09-.25-.14.02-.06.05-.13.07-.19.03,0,.06,0,.09-.01.03.11.05.22.08.34Z"/>
          <path class="cls-3" d="m1.72,11.01s.09,0,.14,0c.11.07.23.13.34.2.18.13.36.26.54.38-.12.18-.25.37-.37.55l-.06-.07c-.1.07-.2.13-.3.2-.06-.02-.12-.03-.19-.05-.03-.4-.07-.81-.1-1.21Z"/>
          <path class="cls-13" d="m.99,12.06c.09.12.17.25.25.36-.05.13-.09.23-.13.33-.23-.18-.28-.35-.12-.69Z"/>
          <path class="cls-13" d="m3.45,17.49c.05-.11.09-.21.16-.34.1.09.17.16.25.23-.06.08-.11.14-.16.2-.07-.03-.14-.06-.24-.1Z"/>
          <path class="cls-5" d="m15.67,19.57c-.16-.04-.32-.09-.49-.13-.2.13-2.47-.15-3.63-.46-.46-.1-.92-.19-1.37-.3-.08-.02-.16-.06-.24-.1-.13-.02-.26-.03-.39-.05-1.2-.38-2.41-.72-3.58-1.2-1.11-.46-2.09-1.09-3.12-1.68,0,.03,0,.06,0,.09.06.11.13.23.19.34.38.51.75,1.01,1.13,1.52.67.66,1.34,1.26,2.15,1.74.75.44,1.56.65,2.34,1.01.15.05.3.09.45.14.43.05.87.1,1.3.16.03,0,.06,0,.09,0-.03,0-.06,0-.09,0,.12.01.24.03.35.04.21-.19.45-.19.63,0,.31-.03.63-.06.94-.09-.04-.13-.08-.26-.13-.44.04-.04.52.16.62.18-.05.09-.08.15-.11.21,1.05-.12,2.03-.44,2.94-.97Z"/>
          <path class="cls-13" d="m12.72,20.54c1.05-.12,2.03-.44,2.94-.97.42-.27.84-.53,1.26-.8,0,.08.02.16.03.24.11.09.23.18.34.28-.02.02-.03.05-.05.07h-.26c-.04.07-.08.13-.13.21-.1-.01-.2-.03-.35-.05-.13.14-.28.3-.44.47.05.07.11.13.18.23-.11.05-.21.1-.36.17.03-.16.05-.25.07-.38-.13.06-.25.12-.38.18.05.04.09.08.15.14-.06.08-.12.16-.19.26-.05-.08-.09-.14-.15-.23-.11.01-.22.02-.33.03-.03.1-.05.18-.08.28-.08-.06-.14-.11-.2-.16h-.24c-.06.12-.11.23-.17.35-.18-.08-.31-.14-.48-.21v.29h-.8c-.14-.12-.28-.23-.42-.35.02-.02.04-.03.06-.05Z"/>
          <path class="cls-13" d="m19.53,15.65s.06-.07.09-.1c.11.14.23.28.38.47-.04.1-.1.27-.16.41h-.5s-.01.06-.02.1c.12.03.25.06.45.11-.27.36-.52.69-.74.98-.27.13-.61-.08-.74.29.02.11.05.22.08.34-.04-.04-.09-.08-.13-.12-.07.16-.14.32-.2.47-.13-.03-.21-.05-.29-.07-.01-.06-.03-.12-.05-.2.07-.04.14-.07.26-.13-.11-.05-.19-.08-.26-.11.18-.19.36-.39.54-.58.21-.26.43-.51.64-.77.21-.36.42-.73.63-1.09Z"/>
          <path class="cls-5" d="m12.72,20.54s-.04.03-.06.05c-.11,0-.22,0-.32.01-.04-.13-.08-.26-.13-.44.04-.04.52.16.62.18-.05.09-.08.15-.11.21Z"/>
          <path class="cls-13" d="m17.81,18.57c-.11.19-.23.38-.37.62-.13-.09-.21-.15-.33-.24.24-.16.44-.29.64-.43.02.01.04.03.06.04Z"/>
          <path class="cls-13" d="m19.73,15.36l.23-.49c.05.06.1.12.19.22v.2c-.14.02-.28.05-.42.07Z"/>
          <path class="cls-11" d="m17.33,18.39c-.04-.05-.08-.11-.11-.15.14-.11.23-.19.36-.28.02.04.06.09.09.14-.11.1-.23.19-.34.29Z"/>
          <path class="cls-13" d="m14.57,21.46c-.24.01-.44.02-.68.04.18-.16.55-.18.68-.04Z"/>
          <path class="cls-13" d="m14.66,21.23c.15-.07.3-.17.47.04-.16.01-.31.03-.47.04,0-.03,0-.06,0-.08Z"/>
          <path class="cls-5" d="m10.77,20.68c.21-.19.45-.19.63,0-.21,0-.42,0-.63,0Z"/>
          <path class="cls-13" d="m16.45,19.83c.07-.05.14-.1.2-.15.09.02.17.03.26.05,0,.02,0,.04,0,.06-.14.04-.29.09-.43.13-.01-.03-.02-.06-.04-.1Z"/>
          <path class="cls-10" d="m18.66,5.52c-.07-.1-.11-.22-.17-.33-.15-.11-.29-.23-.44-.34-.08-.07-.16-.13-.25-.2-3.16.19-6.45-.18-9.44-1.22-.07-.03-.13-.06-.2-.1-.38-.13-.76-.27-1.13-.4-.18.08-.36.16-.54.25.05.12.1.23.15.35l.56.19s0-.02,0-.02c.06.04.11.09.17.13.62.23,1.24.46,1.86.69.03.02.07.03.1.05.77.23,1.53.46,2.3.68.5.14,1.01.26,1.52.39.1.02.2.03.29.05.38.06.75.13,1.13.19.27.05.53.1.8.15.29.06.58.13.87.19.55.08,1.11.16,1.66.23.45.06.99.22,1.43.1-.23-.34-.45-.68-.67-1.03Z"/>
          <path class="cls-10" d="m6.26,3.32c.08-.05.16-.1.24-.15.05.12.1.23.15.35-.13-.07-.26-.13-.4-.2Z"/>
          <path class="cls-5" d="m17.6,4.33s-.08-.04-.14-.07c-.08-.07-.16-.14-.24-.21-.07-.06-.13-.12-.2-.18-.13-.08-.27-.16-.4-.24-.03-.02-.06-.04-.09-.05-.18-.11-.36-.23-.54-.34-.03-.02-.07-.04-.1-.06-.08-.05-.16-.09-.25-.14-.07-.03-.13-.06-.2-.09-.15-.07-.29-.14-.44-.2l-.49-.24c-.06-.02-.13-.03-.19-.05-.05.1-.11.21-.16.31-.32-.14-.36-.24-.29-.49-.1-.04-.19-.08-.29-.12-.03.02-.06.04-.1.06,0,.11-.02.21-.03.33-.11-.02-.18-.03-.27-.04-.25.14-.52.26-.81.15,0-.02,0-.05,0-.07h.53c.02-.17.03-.32.04-.47-.05-.04-.1-.07-.14-.11-.68.12-1.44-.07-2.14-.05-.85.03-1.7.16-2.5.46-.13.04-.27.09-.4.13-.22.1-.44.19-.65.29-.04.02-.06.06-.09.09.38.13.76.27,1.13.4.07.03.13.06.2.1,3,1.05,6.28,1.41,9.44,1.22-.07-.1-.13-.19-.21-.31Z"/>
          <path class="cls-5" d="m12.97,2.1c.18.04.36.07.54.11,0,.11-.02.21-.03.33-.11-.02-.18-.03-.27-.04-.25.14-.52.26-.81.15,0-.02,0-.05,0-.07h.53c.02-.17.03-.32.04-.47Z"/>
          <path class="cls-9" d="m15.12,10.37c-2.18-.23-4.3-.69-6.4-1.32-2.02-.61-3.86-1.51-5.75-2.45-.62.99-.98,2.08-1.12,3.23.35.11.7.22,1.04.33.13.04.25.11.38.16.03.02.07.03.1.05,2.73.83,5.45,1.45,8.32,1.56.03,0,.07,0,.1,0,1.32,0,2.64,0,3.96,0,.82-.06,1.65-.1,2.47-.2.68-.08,1.68-.05,2.28-.39.03-.24.06-.49.09-.73-1.78.11-3.71.06-5.48-.25Z"/>
          <path class="cls-7" d="m19.52,12.37h-4.3c-.19.04-.44-.11-.54.19.07.09.13.17.19.24-.04.18-.07.34-.1.45.09.14.14.25.21.33.26.32.13.74.29,1.08l2.84.05c.21,0,.42,0,.64,0,.31-.01.62-.03.93-.04.24-.79.04-1.54-.15-2.3Z"/>
          <path class="cls-8" d="m19.91,7.58c-.19-.34-.38-.69-.58-1.03-.44.11-.97-.04-1.43-.1-.56-.07-1.11-.15-1.66-.23-.29-.06-.58-.13-.87-.19-.26-.05-.53-.1-.8-.15-.38-.06-.75-.13-1.13-.19-.1-.02-.2-.03-.29-.05-.51-.13-1.02-.25-1.52-.39-.77-.22-1.53-.45-2.3-.68-.03-.02-.07-.03-.1-.05-.62-.23-1.24-.46-1.86-.69-.06-.04-.11-.09-.17-.13,0,0,0,.02,0,.02l-.56-.19c-.13-.07-.26-.13-.4-.2-.72.4-1.33.94-1.91,1.5-.14.14-.27.28-.41.42,0,.02-.01.03-.02.05.26.13.51.27.77.38.21.09.43.13.65.19,0,0,0,0,0,0,.1.02.19.04.29.06h0c.2.05.39.1.59.15.15.04.3.09.44.13.03-.02.06-.03.09-.04-.03.01-.06.02-.09.04.51.1,1.01.2,1.52.3.2.03.39.07.59.1,0-.02,0-.04.01-.07.09.05.18.11.27.16,0-.01,0-.03,0-.04.7.09,1.41.19,2.13.29.07-.03.15-.06.23-.09,0,.02,0,.05,0,.07.32.02.65.04.97.06.2.02.39.03.59.05.99.03,1.99.07,2.98.1,1.32.19,2.65.39,3.97.59,0-.05,0-.1,0-.15Z"/>
          <path class="cls-11" d="m18.81,16.6c-1.56.2-3.08.35-4.62.33h-.49c-2.02-.15-4.03-.31-6.01-.79-.99-.24-1.97-.52-2.94-.83-.33-.1-2.28-.98-2.41-.68l.5,1.02c1.03.6,2.02,1.23,3.12,1.68,1.16.48,2.38.82,3.58,1.2.13.02.26.03.39.05.08.03.16.08.24.1.46.1.91.2,1.37.3,1.16.3,3.42.58,3.63.46.17.05.33.09.49.13.42-.27.84-.53,1.26-.8.13-.13.27-.25.4-.38-.04-.05-.08-.11-.11-.15.14-.11.23-.19.36-.28.02.04.06.09.09.14.02,0,.03,0,.05,0,.18-.19.36-.39.54-.58.21-.26.43-.51.64-.77-.03-.06-.07-.11-.09-.15Zm-3.99,2.76c-.09-.02-.16-.04-.24-.06.04-.23.18-.23.38-.2-.06.1-.1.17-.15.26Z"/>
          <path class="cls-11" d="m14.97,19.09c-.06.1-.1.17-.15.26-.09-.02-.16-.04-.24-.06.04-.23.18-.23.38-.2Z"/>
          <path class="cls-14" d="m14.73,15.89c-.24,0-.48,0-.73,0-1.58-.29-3.09-.77-4.66-1.14-1.62-.38-3.23-.75-4.84-1.16-.08-.03-.16-.06-.25-.09-.83-.26-1.58-.67-2.25-1.23-.06-.02-.12-.03-.19-.05-.01.12-.04.25-.03.37.04.3.11.61.17.91.1.32.2.65.29.97.03.05.06.11.09.16.13-.3,2.08.58,2.41.68.97.3,1.95.59,2.94.83,1.98.47,3.99.63,6.01.79h.49c1.54.02,3.06-.13,4.62-.33.02.03.05.09.09.15.21-.36.42-.73.63-1.09-1.59.05-3.21.31-4.8.24Z"/>
          <path class="cls-3" d="m19.67,14.68c-.31.01-.62.03-.93.04-.21,0-.42,0-.64,0l-2.84-.05c-.07,0-.13,0-.2,0-.16-.02-.33-.03-.49-.05-3.49-.25-6.87-.9-10.12-2.22,0,0,0,0,0,0-.13-.06-.26-.12-.39-.18-.05-.02-.1-.03-.15-.05-.07-.03-.13-.06-.2-.09-.08-.04-.16-.07-.24-.11-.12-.08-.23-.16-.35-.24,0,0,0,.02-.01.03-.12-.06-.25-.11-.37-.17-.12.18-.25.37-.37.55l-.06-.07c-.1.07-.2.13-.3.2.67.56,1.42.97,2.25,1.23.08.03.16.06.25.09,1.61.41,3.23.78,4.84,1.16,1.56.37,3.08.85,4.66,1.14.24,0,.48,0,.73,0,0-.02-.01-.05-.02-.07,0,.02.01.05.02.07,1.59.07,3.21-.18,4.8-.24.03-.03.06-.07.09-.1.04-.06.07-.13.11-.19.08-.16.16-.33.23-.49,0-.03,0-.07,0-.1-.1-.03-.2-.06-.29-.09Z"/>
          <path class="cls-8" d="m2.2,11.21c-.11-.07-.23-.13-.34-.2.1,0,.21-.02.31,0,.02,0,.02.13.03.2Z"/>
          <path class="cls-8" d="m3.47,11.98c.08.04.16.07.24.11.07.03.13.06.2.09.05.02.1.03.15.05.13.06.26.12.39.18,0,0,0,0,0,0,3.25,1.31,6.63,1.97,10.12,2.22.16.02.33.03.49.05.07,0,.13,0,.2,0-.15-.34-.03-.76-.29-1.08-.07-.09-.12-.19-.21-.33.02-.11.06-.28.1-.45-.06-.07-.12-.15-.19-.24.11-.29.36-.15.54-.19h3.62c.2,0,.41,0,.68,0,.19.76.4,1.51.15,2.3.1.03.2.06.29.09.05-.11.1-.22.15-.34.05-.15.1-.3.14-.44h0c.05-.16.1-.33.15-.5.01-.08.03-.16.04-.24.05-.3.1-.59.16-.89,0-.13,0-.25,0-.38,0-.14,0-.28,0-.41,0-.08-.06-.15-.09-.23-.6.34-1.59.31-2.28.39-.82.1-1.65.14-2.47.2-1.32,0-2.64,0-3.96,0-.03,0-.07,0-.1,0-2.87-.12-5.58-.73-8.32-1.56-.03-.02-.07-.03-.1-.05-.13-.05-.25-.12-.38-.16-.35-.12-.7-.22-1.04-.33-.03.16-.06.33-.09.49-.02.23-.03.46-.05.69.05,0,.09,0,.14,0,.1,0,.21-.02.31,0,.02,0,.02.13.03.2.18.13.36.26.54.38.12.06.25.11.37.17,0,0,0-.02.01-.03l.35.24"/>
        </g>
      </g>
    </g>
  </g>
</svg>