<?xml version="1.0" standalone="no"?>
<!DOCTYPE svg PUBLIC "-//W3C//DTD SVG 20010904//EN"
 "http://www.w3.org/TR/2001/REC-SVG-20010904/DTD/svg10.dtd">
<svg version="1.0" xmlns="http://www.w3.org/2000/svg"
 width="512.000000pt" height="512.000000pt" viewBox="0 0 512.000000 512.000000"
 preserveAspectRatio="xMidYMid meet">
<metadata>
Created by potrace 1.14, written by Peter Selinger 2001-2017
</metadata>
<g transform="translate(0.000000,512.000000) scale(0.100000,-0.100000)"
fill="#000000" stroke="none">
<path d="M2370 5117 c-3 -3 -39 -8 -79 -11 -41 -4 -77 -9 -80 -11 -4 -2 -31
-6 -61 -10 -206 -25 -492 -116 -720 -229 -796 -395 -1327 -1157 -1418 -2036
-14 -138 -6 -535 13 -615 2 -11 6 -36 9 -55 15 -125 78 -358 138 -510 180
-462 470 -841 873 -1142 161 -120 277 -187 509 -293 97 -44 351 -124 476 -149
225 -45 295 -51 570 -50 253 1 379 17 617 79 908 238 1623 972 1837 1888 13
56 27 120 30 142 29 193 34 252 34 450 0 198 -13 338 -48 508 -222 1092 -1134
1918 -2245 2036 -85 9 -447 15 -455 8z"/>
</g>
</svg>
