<?xml version="1.0" encoding="UTF-8"?>
<svg id="_레이어_2" data-name="레이어 2" xmlns="http://www.w3.org/2000/svg" xmlns:xlink="http://www.w3.org/1999/xlink" viewBox="0 0 22.53 26.81">
  <defs>
    <style>
      .cls-1 {
        clip-path: url(#clippath);
      }

      .cls-2 {
        fill: #983a6f;
      }

      .cls-3 {
        fill: #a03c75;
      }

      .cls-4 {
        fill: #9f3c75;
      }

      .cls-5 {
        fill: #b35688;
      }

      .cls-6 {
        fill: #b35687;
      }

      .cls-7 {
        fill: #ab5381;
      }

      .cls-8 {
        fill: #b45687;
      }

      .cls-9 {
        fill: #b45688;
      }

      .cls-10 {
        fill: #11253a;
      }

      .cls-11 {
        fill: #2d2e2e;
      }
    </style>
    <clipPath id="clippath">
      <circle class="cls-7" cx="11.27" cy="11.27" r="8.46"/>
    </clipPath>
  </defs>
  <g id="_레이어_1-2" data-name="레이어 1">
    <g>
      <path class="cls-11" d="m22.53,11.27c0,7.67-11.27,15.55-11.27,15.55,0,0-11.27-7.87-11.27-15.55C0,5.04,5.04,0,11.27,0s11.27,5.04,11.27,11.27Z"/>
      <g>
        <circle class="cls-7" cx="11.27" cy="11.27" r="8.46"/>
        <g class="cls-1">
          <path class="cls-10" d="m1.29,12.87s.04,0,.06,0c.04-.08.08-.16.14-.29.22.39-.22.77.08,1.11.07-.12.13-.22.19-.33-.04-.4.21-.84-.12-1.23-.06.08-.11.15-.18.25-.05-.08-.09-.15-.16-.25v.76Zm.74,1.24c-.01-.1-.02-.17-.03-.25,0-.08-.01-.17-.02-.25l-.07-.02c-.08.13-.16.27-.24.41-.04.6.03.83.35.92-.09-.29-.28-.54-.16-.84.06.01.11.02.18.03ZM4.88,1.15s.06,0,.08,0c.01-.13.02-.26.03-.4h-.39c.12.17.2.28.28.39Zm-2.73,14.5c.07-.09.12-.15.19-.24-.12-.07-.22-.13-.32-.19-.02.02-.03.04-.05.06.05.11.11.22.18.36Z"/>
          <path class="cls-10" d="m1.27,9.44c.12-.44.26-.81.47-1.22.11.08.18.14.26.2-.04.1-.08.2-.1.25.05.15.09.26.15.4-.34.13-.48.37-.41.73.1.07.2.14.28.19,0,.33,0,.63,0,.92-.28-.05-.33-.3-.41-.51h-.27c-.17-.33,0-.64.04-.95Z"/>
          <path class="cls-10" d="m1.29,12.87v-.76c.07.11.11.17.16.25.07-.09.12-.17.18-.25.33.39.08.83.12,1.23-.06.11-.12.21-.19.33-.3-.33.15-.72-.08-1.11-.06.13-.1.21-.14.29-.02,0-.04,0-.06,0Z"/>
          <path class="cls-10" d="m2.41,14.33s.02.07.04.1c-.04.04-.08.07-.14.13.06.22.12.45.18.67-.47.04-.44-.74-.5-1.05.18.07.3.11.43.16Z"/>
          <path class="cls-10" d="m2.04,14.11c-.07-.01-.12-.02-.18-.03-.11.3.08.56.16.84-.32-.09-.39-.32-.35-.92.08-.14.16-.27.24-.41l.07.02c0,.08.01.17.02.25,0,.08.02.15.03.25Z"/>
          <path class="cls-10" d="m4.88,1.15c-.08-.11-.16-.23-.28-.39h.39c-.01.14-.02.27-.03.4-.03,0-.06,0-.08,0Z"/>
          <path class="cls-10" d="m2.15,15.65c-.07-.14-.12-.25-.18-.36.02-.02.03-.04.05-.06.1.06.2.12.32.19-.07.09-.12.15-.19.24Z"/>
          <path class="cls-9" d="m2.83,15.27l.31.1s0,.06,0,.09c-.06.04-.11.07-.17.11-.05-.1-.1-.2-.14-.29Z"/>
          <path class="cls-10" d="m19.08,6.36c-.35-.42-.69-.85-1.04-1.27-.14-.13-.28-.27-.43-.4-.18-.16-.36-.32-.54-.48.05-.06.1-.11.17-.18.13.06.23.1.36.16,0-.09,0-.17.01-.2-.12-.14-.22-.25-.32-.37-.05.08-.1.16-.16.25-.07-.07-.12-.11-.18-.17-.1.07-.18.14-.27.21-.11-.08-.23-.16-.34-.24.05-.08.11-.15.15-.22.13.05.22.08.3.11.02-.03.03-.05.05-.08-.24-.16-.48-.32-.73-.49-.02.01-.04.02-.06.03.05.14.27.41.03.49-.09-.04-.18-.07-.26-.11-.33-.16-.67-.31-1-.47-.2-.08-.39-.17-.59-.25.05-.09.09-.18.15-.3.16.1.28.17.41.25.07,0,.16-.01.29-.02-.09-.12-.15-.19-.21-.27l-.02.03c-.14-.06-.27-.12-.37-.17-.17-.03-.31-.05-.44-.07-.05-.09-.08-.15-.12-.24-.23.04-.5-.12-.65.15.03.14.04.24.06.34-.11-.02-.22-.03-.33-.05-.15-.04-.29-.07-.44-.11,0-.05-.01-.11-.02-.16.3-.01.59-.2.64-.46-.48.08-.93.16-1.39.24,0,.02,0,.04.01.06-.09,0-.19-.02-.28-.03-.03.09-.05.17-.08.24h-.35s.02-.05.03-.07c-.74-.35-1.41-.46-2.23-.45,0,.02,0,.05,0,.07.34.09.96.1.98.56-.46.11-.92.23-1.37.34-.04.01-.07.02-.11.04-.16.05-.32.11-.48.16-.07.05-.14.1-.18.13-.63.11-1.1.5-1.63.76-.1-.09-.21-.19-.32-.29.26-.14.51-.27.77-.4-.02-.1-.04-.17-.06-.26-.39.08-.68.36-1.02.56-.25.15-.89.27-.79.67-.13-.01-.27-.02-.4-.03,0-.01,0-.03,0-.04.05-.01.11-.03.18-.05.22-.84,1.04-1.19,1.63-1.73.06,0,.13-.01.19-.02.2-.12.39-.23.58-.34,0-.01,0-.02-.01-.04h.42c.05-.07.08-.13.13-.19.09,0,.19-.02.29-.02.6-.29,1.23-.43,1.9-.35-.04.03-.08.07-.13.1.36.33,1.4.35,2.1,0-.27-.07-.47-.13-.67-.18,0-.03,0-.07,0-.1h.91c-.05.13-.09.24-.13.35h.2c.12.07.2.12.33.2.07-.41.33-.41.62-.39.03-.06.06-.11.09-.17.08.01.15.03.23.04.03.14.06.29.1.45.23.03.44.06.65.09,0,.01,0,.03-.01.04.21.06.42.12.62.18.01-.02.02-.04.03-.05.05.06.11.12.17.2.26.1.54.21.82.31.01-.02.02-.04.03-.06.04.05.09.11.16.2.11-.05.22-.11.39-.19-.02.12-.04.23-.06.34.15.1.32.22.5.34.02.03.04.06.05.09.1-.1.2-.19.32-.3.12.11-.13.24-.1.44.06.04.15.11.2.15.16-.06.28-.1.39-.14.09.15.15.27.24.42,0,.01-.03.06-.06.14.06.07.13.15.19.23.03-.02.05-.04.08-.06-.04-.09-.07-.18-.11-.26.02-.01.03-.03.05-.04.23.2.45.41.68.61l-.02.06c-.15-.06-.29-.13-.44-.19-.01.01-.03.03-.04.04.13.15.25.31.4.49.08-.12.13-.18.2-.28.08.07.14.12.23.2-.12.06-.19.09-.29.14.09.1.17.18.25.26.08,0,.16,0,.24,0,.04.1.08.19.14.32-.13.06-.27.12-.46.19-.09.22.27.22.24.45.14-.05.24-.09.33-.12.04-.04.07-.08.12-.13.05,0,.11,0,.18-.01.04.03.09.07.13.1-.02.14-.03.26-.05.4-.13.02-.26.05-.34.07-.08.11-.13.19-.19.26Z"/>
          <path class="cls-3" d="m19.09,16.25c-1.85.9-3.71,1.73-5.69,2.3-.02.02-.03.03-.05.05-.43.18-.73.45-1.19.57-.4.1-.79.27-1.2.33-1.07.16-2.15-.13-3.14.46.37.13.75.26,1.12.4.07.01.13.02.2.04.18.04.36.07.54.11.16.01.33.03.49.04.12.01.24.04.35.04.53,0,1.07,0,1.6,0,.08-.01.17-.03.25-.04.15-.02.29-.04.44-.06.02,0,.03-.01.05-.02.03,0,.06,0,.09,0,.65-.2,1.31-.41,1.96-.61.07-.03.13-.06.2-.09.52-.31,1.05-.62,1.57-.93.1-.07.19-.14.29-.21.33-.31.68-.61,1-.93.3-.31.57-.65.85-.97.09-.14.18-.29.27-.43,0-.02,0-.03,0-.05Z"/>
          <path class="cls-10" d="m17.96,20.69c.06.08.13.15.19.23.03-.01.05-.02.08-.04-.01.07-.03.15-.05.27-.1-.06-.18-.1-.29-.16h-.23c-.01.05-.02.1-.04.17h-.24c-.01-.06-.02-.11-.04-.19h-1.38l.02.05c-.14.07-.28.13-.47.22,0,0-.02.06-.05.12-.1,0-.2.01-.31.02-.03.05-.05.1-.09.18-.1,0-.21.01-.35.02.01.07.02.14.04.2.11-.05.2-.1.32-.15.02.09.04.14.05.2.08.02.16.04.24.06,0,.06.01.12.02.17-.66.14-.87-.14-1.47-.31.05-.1.09-.18.13-.27h.46c.03-.07.05-.12.07-.17,0,.02.02.04.03.05.49-.27.97-.54,1.42-.79.51.02,1.56-.17,1.95.11Z"/>
          <path class="cls-10" d="m14.92,19.86c.07-.03.13-.06.2-.09.05.06.1.13.16.2.29-.19.55-.36.83-.53.05.02.12.04.18.06.17-.2.33-.38.5-.58-.04-.03-.07-.06-.09-.08.1-.07.19-.14.29-.21,0,.05.02.09.04.2.32-.21.6-.41.91-.61.05.07.09.13.13.18-.02-.01-.05-.02-.07-.03-.64.67-1.28,1.21-2.15,1.52-.05.14-.09.26-.13.4-.15-.08-.24-.13-.35-.18-.04.07-.08.12-.1.17-.12.02-.23.03-.37.05.04.11.06.17.1.3-.21-.07-.38-.12-.55-.17,0-.04,0-.07-.01-.11.22-.13.45-.25.67-.38,0-.02-.01-.04-.02-.06-.05-.01-.1-.03-.15-.04Z"/>
          <path class="cls-10" d="m4.11,17.28c.38.39.75.78,1.13,1.16-.06.04-.13.09-.2.14-.53.01-.63-.59-1.07-.78.02-.18.03-.38.05-.59.03.02.06.05.09.07Z"/>
          <path class="cls-10" d="m5.58,18.7c.08.05.16.09.24.14.03.03.06.07.09.1-.04.28-.03.55-.03.82-.03.02-.06.04-.08.06-.28-.13-.57-.26-.86-.39.1-.24.38-.03.56.02.09-.09.17-.17.26-.26-.07-.05-.14-.1-.22-.16.02-.11.03-.22.05-.34Z"/>
          <path class="cls-10" d="m12.13,20.59c.08-.01.17-.03.25-.04.02.04.04.11.06.11.14,0,.29-.01.43-.02.15,0,.3.02.46.02.02.11.04.19.06.28-.2.15-.37-.01-.6-.07-.14.06-.31.14-.49.22,0,.03.02.06.02.09-.12-.02-.25-.04-.37-.05,0-.01,0-.03,0-.04.13-.03.25-.06.39-.1-.02-.13-.04-.24-.06-.37-.05,0-.09-.02-.14-.03Z"/>
          <path class="cls-10" d="m10.23,20.74c.02.1.04.2.08.38-.33-.06-.6-.1-.91-.16.11-.1.18-.16.25-.22h.59Z"/>
          <path class="cls-10" d="m8.95,20.35c.07.01.13.02.2.04,0,.06-.01.13-.01.16-.12.12-.23.21-.35.32-.07.02-.17.03-.27.06-.05-.17-.1-.35-.15-.52.02-.01.04-.02.07-.03.13.1.18.36.45.24.02-.08.04-.17.06-.26Z"/>
          <path class="cls-10" d="m14.28,20.53v.28c-.16-.06-.3-.11-.46-.16-.05.02-.13.05-.22.08-.04-.03-.09-.07-.12-.1,0-.2.49-.25.8-.1Z"/>
          <path class="cls-10" d="m10.23,20.74h-.59c-.07-.04-.14-.07-.23-.12.12-.05.2-.09.28-.12.16.01.33.03.49.04.02.07.03.13.05.2Z"/>
          <path class="cls-10" d="m4.81,19.22c.04-.24.06-.38.09-.54.13.08.22.14.38.24-.16.1-.29.19-.48.3Z"/>
          <path class="cls-10" d="m3.91,17.59s-.09.08-.14.13c-.1-.07-.18-.13-.32-.23.06-.08.11-.16.18-.25.12.14.19.23.28.35Z"/>
          <path class="cls-10" d="m8.19,20.31c-.03.18-.05.29-.08.46-.14-.11-.21-.18-.33-.28.14-.06.24-.1.41-.18Z"/>
          <path class="cls-10" d="m12.87,20.65c-.14,0-.29.02-.43.02-.02,0-.04-.07-.06-.11.15-.02.29-.04.44-.06.02.05.03.1.05.15Z"/>
          <path class="cls-10" d="m18.83,16.73c.09-.14.18-.29.27-.43.22.18-.08.27-.07.42-.08,0-.14,0-.2,0Z"/>
          <path class="cls-10" d="m20.87,6.2v-.29c.05,0,.11-.02.19-.03v.32h-.19Z"/>
          <path class="cls-10" d="m19.89,3.06v-.3c.06,0,.12,0,.19,0v.3h-.19Z"/>
          <path class="cls-9" d="m3.55,15.31c-.07.04-.12.08-.21.14-.04-.14-.06-.23-.09-.35-.05-.02-.12-.04-.2-.08.01-.07.03-.14.04-.21.02-.01.04-.02.06-.03.13.17.25.33.4.53Z"/>
          <path class="cls-10" d="m3.91,5.67c-.19.26-.39.52-.58.79-.09-.03-.19-.05-.25-.07-.12.08-.21.15-.33.23,0,.05.02.14.03.18-.11.17-.2.31-.29.45.01,0,.03.02.04.03-.05.06-.11.12-.17.19,0,.09-.01.17-.02.25-.07.12-.14.24-.21.34.06.12.1.21.15.3-.02.02-.04.04-.06.06-.11-.1-.22-.21-.34-.32-.02-.15-.05-.31-.07-.46.07-.08.12-.15.19-.22,0-.06.02-.13.03-.21.06-.03.13-.06.15-.07.13-.33.25-.62.37-.92.03-.07.07-.13.1-.2.08-.11.17-.22.26-.35.06-.02.13-.05.21-.08,0-.02,0-.03-.01-.05.09-.04.19-.07.28-.11.05.06.11.12.17.18.08-.11.12-.17.16-.23.19.03.22.15.21.29Z"/>
          <path class="cls-10" d="m4.7,3.96c-.1-.4.54-.52.79-.67.34-.2.64-.48,1.02-.56.02.1.04.16.06.26-.26.14-.51.27-.77.4.11.1.21.19.32.28-.18.13-.36.26-.54.39.04-.14.07-.28.11-.43-.03-.02-.06-.04-.09-.05-.22.19-.17.27-.12.56-.05.04-.09.07-.14.11-.07-.13-.11-.28-.31-.24-.05.08-.1.16-.12.19-.16.06-.25.1-.35.14v-.19s.02,0,.03.01c.04-.07.08-.14.11-.21Z"/>
          <path class="cls-10" d="m3.91,5.67c0-.14-.02-.26-.21-.29-.04.06-.08.12-.16.23-.06-.07-.11-.12-.17-.18.13-.12.26-.24.38-.35-.06-.53.42-.61.79-.73.11.1.23.19.34.29-.18.18-.36.36-.53.54-.15.16-.29.32-.44.49Z"/>
          <path class="cls-5" d="m3.23,6.7c.08.03.17.07.25.1-.06.11-.11.22-.17.33-.02,0-.04-.02-.06-.02,0-.07-.02-.15-.03-.23-.04,0-.07,0-.1.01.04-.06.07-.13.11-.19Z"/>
          <path class="cls-10" d="m2.64,6.02c-.03.07-.07.13-.1.2-.08-.13-.17-.25-.25-.38l.03-.03c.11.07.21.14.32.21Z"/>
          <path class="cls-10" d="m18.18,21.31v1.75s-.04,0-.06,0v-1.75s.04,0,.06,0Z"/>
          <path class="cls-5" d="m3.34,7.5c-.14-.02-.24-.04-.34-.06,0-.02,0-.05-.01-.07.07-.06.14-.12.25-.2.04.12.06.2.11.32Z"/>
          <path class="cls-5" d="m19.08,6.36l-1.04-1.27c-.17.16-.35.32-.52.47-.07.06-.13.14-.2.2-.43.52-.88.57-1.51.52-.58-.05-1.19.06-1.77.16-.44,0-.83.17-1.18.44-.05.03-.1.07-.15.1-.15.1-.29.2-.44.29-.11.02-.22.04-.33.06-.15-.04-.3-.07-.45-.11,0,0,0,0,0,0-.67.04-1.47.21-2.11.44-.32.02-.92.17-1.22.05-.25-.1-.23-.24-.34-.47-.19.04-.39.08-.59.12h0c-.2.1-.39.2-.59.29-.21.02-.42.03-.63.05-.07-.02-.13-.03-.2-.05-.03,0-.07,0-.1,0h0c-.16-.02-.33-.03-.49-.05-.3.03-.54-.05-.69-.34-.13-.13-.26-.26-.39-.39-.23-.03-.46-.06-.69-.1-.06.11-.11.22-.17.33-.02,0-.04-.02-.06-.02,0-.07-.02-.15-.03-.23-.04,0-.07,0-.1.01-.17.38-.35.75-.52,1.13-.31.6-.44,1.24-.54,1.9.28.18.76-.14,1.06-.22.5-.12.99,0,1.49.08.05,0,.1,0,.15,0h.54s.07.03.1.05c.34.03.68.07,1.03.1.11.02.23.03.34.05.08.02.15.05.23.05.67,0,1.35,0,2.02,0l.44-.05c.2-.02.39-.03.59-.05.07,0,.13,0,.2,0h0c.1-.03.2-.06.29-.1.03-.02.07-.03.1-.05.13-.05.26-.1.39-.15.02-.02.03-.03.05-.05.18-.08.36-.16.54-.25h0s.07,0,.1,0c.29,0,.59-.03.88-.02.34.01.69.1.98-.18.05,0,.1,0,.15,0,.7-.15,1.53-.18,2.18-.45.67-.28,1.26-.86,1.84-1.29.16.07.29.12.45.19.44-.3.95-.2,1.46-.16-.19-.36-.37-.72-.56-1.07ZM3,7.44v-.07c.06-.06.13-.12.23-.2.04.12.06.2.11.32-.14-.02-.24-.04-.34-.06Z"/>
          <path class="cls-2" d="m19.63,7.44c-.51-.04-1.02-.14-1.46.16-.16-.07-.29-.12-.45-.19-.58.43-1.17,1.01-1.84,1.29-.65.27-1.49.31-2.18.45-.05,0-.1,0-.15,0-.29.27-.64.19-.98.18-.29-.01-.59.01-.88.02-.03,0-.07,0-.1,0-.18.08-.36.16-.54.25-.02.02-.03.03-.05.05-.13.05-.26.1-.39.15-.03.02-.07.03-.1.05-.1.03-.2.06-.29.1-.07,0-.13,0-.2,0-.2.02-.39.03-.59.05l-.44.05c-.67,0-1.35,0-2.02,0-.08,0-.15-.03-.23-.05-.11-.02-.23-.03-.34-.05-.34-.03-.68-.07-1.03-.1-.03-.02-.07-.03-.1-.05h-.54s-.1,0-.15,0c-.5-.08-.99-.2-1.49-.08-.3.07-.78.4-1.06.22-.02.08-.04.15-.05.23-.03.25-.06.51-.09.76.03.51.06,1.01.08,1.52.01-.11.03-.22.04-.34.25.03.45.06.65.09.71-.02,1.35-.23,2.06-.31.55-.07,1.05-.11,1.47-.52.33-.13.67-.13,1.01-.03.23.06.47.09.7.13.02,0,.03,0,.05,0,.66-.03,1.32-.07,1.97-.1.06,0,.12-.03.18-.05l.63-.05c.66-.29,1.31-.58,1.97-.88.22-.1.57-.29.83-.27.32.03.46.33.65.58.5-.04,1.03-.07,1.5-.24.58-.21.77-.69,1.25-.98.43-.27,1.06-.05,1.56-.26.35-.15,1.16-.84,1.54-.68-.14-.36-.28-.72-.43-1.08Z"/>
          <path class="cls-9" d="m20.06,8.51c-.38-.16-1.19.53-1.54.68-.49.21-1.12-.01-1.56.26-.47.3-.67.77-1.25.98-.48.17-1,.2-1.5.24-.19-.25-.33-.54-.65-.58-.26-.03-.6.16-.83.27-.65.3-1.31.59-1.97.88l-.63.05c-.06.02-.12.04-.18.05-.66.04-1.32.07-1.97.1-.02,0-.03,0-.05,0-.23-.04-.47-.07-.7-.13-.34-.1-.68-.1-1.01.03-.42.41-.92.45-1.47.52-.7.09-1.34.29-2.06.31-.2-.03-.41-.05-.65-.09-.01.11-.03.23-.04.34,0,.1,0,.2.03.29.12.54.25,1.07.38,1.61.01.03.02.07.04.1.13.28.26.56.39.83.1.03.21.06.31.1,0,.03,0,.06,0,.09-.06.04-.11.07-.17.11.02.05.04.1.07.14.11,0,.23.01.34.02-.11,0-.23-.01-.34-.02.11.2.23.39.34.59.37.03.72.17,1.09.17.35,0,.65-.13.98-.2.66-.15,1.21-.18,1.83-.48.7-.34,1,.24,1.72.19.8-.06,1.54-.1,2.34-.07h0c.08-.02.15-.04.23-.07.22-.09.44-.18.66-.28.08-.03.16-.06.24-.1.11-.03.23-.07.34-.1.26-.08.52-.16.78-.24.67-.14,1.24-.34,1.86-.63.33-.16.64-.16.97-.26.33-.09.51-.35.76-.58.94-.87,2.19-1.08,3.3-1.66.08-1.19-.08-2.34-.44-3.47ZM3.34,15.45c-.04-.14-.06-.23-.09-.35-.05-.02-.12-.04-.2-.08.01-.07.03-.14.04-.21.02-.01.04-.02.06-.03.13.17.25.33.4.53-.07.04-.12.08-.21.14Z"/>
          <path class="cls-10" d="m10.91,2.21c-.34.02-.68.04-1.02.05-.03-.46-.64-.48-.98-.56,0-.02,0-.05,0-.07.81,0,1.49.1,2.23.45,0,.02-.02.05-.03.07h.35c.02-.07.05-.15.08-.24.1.01.19.02.28.03,0-.02,0-.04-.01-.06.46-.08.91-.16,1.39-.24-.05.26-.34.45-.64.46,0,.05.01.11.02.16-.11,0-.22,0-.33,0-.41-.12-.9,0-1.33-.04Z"/>
          <path class="cls-8" d="m10.91,2.21c.44.03.92-.09,1.33.04-.08.01-.17.03-.25.04,0,.02,0,.04,0,.07.26.05.52.11.82.17.05-.04.12-.1.2-.17.11.02.22.03.33.05.07.03.14.06.21.09-.11.09-.21.18-.32.28.02.02.04.05.05.07-.07.03-.14.07-.23.11-.13-.39-.42-.25-.69-.21-.06-.05-.13-.11-.2-.16-.15.06-.31.12-.49.19-.07-.1-.14-.19-.22-.3-.18-.01-.38-.02-.61-.04.02-.09.03-.15.04-.22Z"/>
          <path class="cls-10" d="m13.56,2.49c-.07-.03-.14-.06-.21-.09-.02-.1-.04-.21-.06-.34.15-.27.42-.11.65-.15.04.09.08.15.12.24.13.02.27.04.44.07.1.05.24.11.37.17l.02-.03c.06.08.12.15.21.27-.13.01-.22.02-.29.02-.14-.08-.25-.15-.41-.25-.06.12-.11.21-.15.3,0,0-.02,0-.02,0,0,0-.02,0-.02,0-.13-.04-.27-.09-.4-.13-.08-.02-.16-.04-.24-.06Z"/>
          <path class="cls-10" d="m17.07,4.22c-.13-.1-.26-.2-.39-.3.09-.07.18-.14.27-.21.06.06.11.1.18.17.06-.09.11-.16.16-.25.1.12.2.23.32.37,0,.04,0,.11-.01.2-.13-.06-.24-.11-.36-.16-.06.07-.11.12-.17.18Z"/>
          <path class="cls-10" d="m16.2,3.62s-.07-.06-.11-.09c.24-.08.02-.35-.03-.49.02-.01.04-.02.06-.03.24.16.48.32.73.49-.02.03-.03.05-.05.08-.08-.03-.17-.06-.3-.11-.05.07-.1.14-.15.22-.05-.02-.09-.04-.14-.06Z"/>
          <path class="cls-8" d="m13.01,2.36c-.08.07-.15.13-.2.17-.3-.06-.56-.12-.82-.17,0-.02,0-.04,0-.07.08-.01.17-.03.25-.04.11,0,.22,0,.33,0,.15.04.29.07.44.11Z"/>
          <path class="cls-8" d="m8.41,2.64c.03.19.02.2-.32.35-.05-.06-.11-.12-.16-.19.16-.05.32-.11.48-.16Z"/>
          <path class="cls-6" d="m19.94,14.32c-.55.12-1.03.65-1.59.84-.42.02-.85.03-1.27.05-.26.07-.52.13-.78.2-.26.15-.52.29-.78.44-.06.05-.13.1-.19.15-.17.13-.35.26-.52.38-.07.05-.14.1-.21.15-.02,0-.03,0-.05,0-.05.02-.1.04-.15.05-.46.24-.91.49-1.37.73-.21.03-.42.06-.64.1-.05,0-.1,0-.15,0-.21.02-.42.03-.64.05-.47.03-.95.07-1.42.1-.82.31-1.63.62-2.45.93-.39.03-.78.07-1.17.1-.18.03-.36.05-.54.1-.07.02-.13.09-.19.14.03.03.06.07.09.1.64.34,1.28.68,1.92,1.02.99-.59,2.07-.3,3.14-.46.41-.06.8-.23,1.2-.33.46-.12.75-.39,1.19-.57.02-.02.03-.03.05-.05,1.97-.56,3.83-1.4,5.69-2.3.19-.36.39-.72.58-1.07.1-.21.19-.43.29-.64,0-.06-.02-.12-.03-.21Z"/>
          <path class="cls-4" d="m14.53,16.53s.03,0,.05,0c.07-.05.14-.1.21-.15.17-.13.35-.26.52-.38.06-.05.13-.1.19-.15.26-.15.52-.29.78-.44.26-.07.52-.13.78-.2.42-.02.85-.03,1.27-.05.56-.19,1.04-.72,1.59-.84.01.08.02.14.03.21.06-.17.15-.34.18-.52.13-.67.24-1.35.35-2.02-1.11.58-2.36.79-3.3,1.66-.24.23-.43.48-.76.58-.34.1-.64.1-.97.26-.62.29-1.19.49-1.86.63-.26.08-.52.16-.78.24-.11.03-.23.07-.34.1-.08.03-.16.06-.24.1-.22.09-.44.19-.66.28-.07.03-.15.04-.23.07-.8-.03-1.54.02-2.34.07-.72.05-1.02-.53-1.72-.19-.62.3-1.18.34-1.83.48-.33.07-.64.19-.98.2-.38,0-.72-.14-1.09-.17.12.2.25.39.37.59.09.11.17.22.26.33l.09.07c.38.39.75.78,1.13,1.16.11.08.23.17.34.25l.24.14c.06-.05.12-.12.19-.14.18-.05.36-.07.54-.1.39-.03.78-.07,1.17-.1.82-.31,1.63-.62,2.45-.93.47-.03.95-.07,1.42-.1.21-.02.42-.03.64-.05.05,0,.1,0,.15,0,.21-.03.42-.06.64-.1.46-.24.91-.49,1.37-.73.05-.02.1-.04.15-.05"/>
          <path class="cls-10" d="m16.69,18.84s.06.05.09.08c-.17.19-.33.38-.5.58-.06-.02-.13-.04-.18-.06-.27.18-.53.34-.83.53-.06-.07-.11-.14-.16-.2.52-.31,1.05-.62,1.57-.93Z"/>
          <path class="cls-10" d="m5.23,4.39c-.11.09-.23.17-.34.26-.11-.1-.23-.19-.34-.29.1-.04.19-.08.35-.14.02-.03.07-.11.12-.19.21-.04.25.11.31.24-.04.04-.07.08-.11.12Z"/>
          <path class="cls-10" d="m5.58,4.08s-.04.05-.06.08c-.02,0-.03,0-.05,0-.05-.29-.1-.37.12-.56.03.02.06.04.09.05-.04.14-.07.28-.11.43Z"/>
          <path class="cls-8" d="m5.48,4.16s.03,0,.05,0c0,.06.03.14,0,.18-.07.1-.18.17-.3.05.04-.04.07-.08.11-.12.05-.04.09-.07.14-.11Z"/>
          <path class="cls-8" d="m14.3,2.94c-.05.1-.11.19-.17.3-.09-.05-.15-.08-.27-.14.15-.09.27-.15.38-.22l.06.06Z"/>
          <path class="cls-8" d="m13.8,2.55c.13.04.26.09.4.13-.12.06-.23.12-.37.19-.01-.15-.02-.24-.03-.32Z"/>
          <path class="cls-8" d="m16.09,3.53c-.09-.04-.18-.07-.26-.11-.33-.16-.67-.31-1-.47-.2-.08-.39-.17-.59-.25h-.02s-.02,0-.02,0c-.12.06-.23.12-.37.19-.01-.15-.02-.24-.03-.32-.08-.02-.16-.04-.24-.06-.11.09-.21.18-.32.28l.05.07c-.07.03-.14.07-.23.11-.13-.39-.42-.25-.69-.21-.06-.05-.13-.11-.2-.16-.15.06-.31.12-.49.19-.07-.1-.14-.19-.22-.3-.18-.01-.38-.02-.61-.04.02-.09.03-.15.04-.22-.34.02-.68.04-1.02.05-.46.11-.92.23-1.37.34-.04.01-.07.02-.11.04.03.19.02.2-.32.35-.05-.06-.11-.12-.16-.19-.07.05-.14.1-.18.13-.63.11-1.1.5-1.63.76-.18.13-.36.26-.54.39-.02.03-.04.05-.06.08,0,.06.03.14,0,.18-.07.1-.18.17-.3.05-.11.09-.23.17-.34.26-.18.18-.36.36-.53.54.06.05.12.13.18.14.26.05.53.07.8.1.2.02.39.03.59.05.33.02.62-.05.88-.26.21-.16.47-.21.73-.18l.1.05h.44s.07,0,.1,0c.26-.12.51-.16.78-.01.13.07.29.08.44.11.03,0,.07,0,.1,0,.13.02.26.03.39.05,0,.02,0,.03,0,.05.16,0,.33,0,.49,0,.18,0,.36,0,.54,0h0c.23,0,.46,0,.69,0,.03,0,.07,0,.1,0,0,0,0,0,0,0,.15-.06.29-.13.44-.19.1-.08.2-.16.29-.24h0c.11-.08.23-.16.34-.25.12-.11.24-.22.35-.31.57.07,1.14.14,1.7.21,0-.04,0-.07-.01-.11.21-.08.43-.15.64-.23.02,0,.03,0,.05,0,.08-.03.17-.05.24-.09.17-.12.43-.17.45-.45-.04-.03-.07-.06-.11-.09Zm-1.96-.28c-.09-.05-.15-.08-.27-.14.15-.09.27-.15.38-.22.02.02.04.04.06.06-.05.1-.11.19-.17.3Z"/>
          <path class="cls-4" d="m17.62,4.7l-.54-.48c-.13-.1-.26-.2-.39-.3-.11-.08-.23-.16-.34-.24-.05-.02-.09-.04-.14-.06-.02.28-.27.32-.45.45-.07.05-.16.06-.24.09-.02,0-.03,0-.05,0-.21.08-.43.15-.64.23,0,.04,0,.07.01.11-.57-.07-1.13-.14-1.7-.21-.11.1-.23.21-.35.31-.11.08-.23.16-.34.25-.1.08-.2.16-.29.24-.15.06-.29.13-.44.19h0s-.07,0-.1,0c-.23,0-.46,0-.69,0-.18,0-.36,0-.54,0-.16,0-.33,0-.49,0,0-.02,0-.03,0-.05-.13-.02-.26-.03-.39-.05-.03,0-.07,0-.1,0-.15-.04-.31-.04-.44-.11-.27-.15-.52-.11-.78.01-.03,0-.07,0-.1,0h-.44s-.07-.03-.1-.05c-.27-.02-.52.02-.73.18-.26.2-.56.28-.88.26-.2-.02-.39-.03-.59-.05-.27-.03-.53-.06-.8-.1-.07-.01-.12-.09-.18-.14-.15.16-.29.32-.44.49-.19.26-.39.52-.58.79-.04.08-.07.16-.11.24.08.03.17.07.25.1.23.03.46.06.69.1.13.13.26.26.39.39.14.29.39.37.69.34.16.02.33.03.49.05.03,0,.07,0,.1,0,.07.02.13.03.2.05.21-.02.42-.03.63-.05.2-.1.39-.2.59-.29.2-.04.4-.08.59-.12.12.23.09.38.34.47.3.11.9-.04,1.22-.05.64-.23,1.43-.4,2.11-.44.15.04.31.08.45.11.11-.02.22-.04.33-.06.15-.1.29-.2.44-.29.05-.03.1-.07.15-.1.34-.27.73-.43,1.18-.44.57-.1,1.19-.21,1.77-.16.63.05,1.08,0,1.51-.52.07-.07.13-.14.2-.2.17-.16.35-.32.52-.47-.14-.13-.28-.27-.43-.4Z"/>
        </g>
      </g>
    </g>
  </g>
</svg>