<?xml version="1.0" encoding="UTF-8"?>
<svg id="_레이어_2" data-name="레이어 2" xmlns="http://www.w3.org/2000/svg" xmlns:xlink="http://www.w3.org/1999/xlink" viewBox="0 0 22.53 26.81">
  <defs>
    <style>
      .cls-1 {
        clip-path: url(#clippath);
      }

      .cls-2 {
        fill: #11253a;
      }

      .cls-3 {
        fill: #185381;
      }

      .cls-4 {
        fill: #185686;
      }

      .cls-5 {
        fill: #185687;
      }

      .cls-6 {
        fill: #1a609e;
      }

      .cls-7 {
        fill: #1a609d;
      }

      .cls-8 {
        fill: #2d2e2e;
      }
    </style>
    <clipPath id="clippath">
      <circle class="cls-3" cx="11.27" cy="11.27" r="8.46"/>
    </clipPath>
  </defs>
  <g id="_레이어_1-2" data-name="레이어 1">
    <g>
      <path class="cls-8" d="m22.53,11.27c0,7.67-11.27,15.55-11.27,15.55,0,0-11.27-7.87-11.27-15.55C0,5.04,5.04,0,11.27,0s11.27,5.04,11.27,11.27Z"/>
      <g>
        <circle class="cls-3" cx="11.27" cy="11.27" r="8.46"/>
        <g class="cls-1">
          <path class="cls-2" d="m19.48,6.9c.03-.1.06-.2.1-.31.08-.03.15-.06.23-.09.01-.09.02-.18.04-.3.03-.03.09-.08.14-.13h.58c.74.4,1,.69,1.21,1.51.09-.45.04-.91.07-1.42-.03-.02-.09-.06-.15-.1.06.01.12.03.18.04v3.19c-.17.07-.34.15-.56.24.07.19.13.37.22.61v.36s-.05.09-.09.17c.03.06.06.13.07.15v.87s-.06.11-.1.19c.07.04.14.07.2.1.02.07.04.14.09.29-.2-.03-.36-.05-.52-.08.11.24.23.47.33.69.54.08.3.49.37.92.36.48.14.97.14,1.46-.05.05-.1.11-.16.17v1.12h-1.45c-.16.21-.3.39-.45.57,0,0-.02-.01-.02-.02-.03.09-.06.18-.07.24-.18.14-.33.25-.47.36.05.14.1.26.17.42-.23.06-.4.11-.61.17-.02.07-.06.17-.08.25-.16.12-.3.23-.45.35-.07-.05-.14-.09-.22-.15-.08.11-.16.23-.25.36.06.05.11.1.21.19-.15.04-.26.06-.35.08-.13.15-.26.3-.37.44-.14-.02-.22-.04-.31-.05-.12.16-.23.31-.33.45-.11-.05-.17-.08-.24-.12-.27.21-.52.42-.78.62,0,0,.01.01.02.02-.13.06-.25.13-.38.19,0,0,0-.01-.01-.02-.16.09-.33.18-.5.28-.04-.06-.08-.11-.13-.18h-.22c-.04.13-.09.25-.13.37-.17-.08-.25-.29-.46-.13.03.05.06.09.09.13-.07.28-.33.07-.4.14-.23-.04-.4-.07-.58-.1,0,.12-.01.19-.02.26-.25.05-.48.09-.72.14-.06-.07-.1-.12-.15-.19h-.18c-.08.03-.16.07-.24.1.02.04.04.08.11.2-.37-.02-.78-.09-1.14,0-.06-.01-.12-.03-.22-.05.1-.08.16-.14.25-.21-.24-.03-.46-.07-.65-.09-.09.06-.16.11-.25.18-.23-.02-.49-.05-.74-.07-.31-.1-.53-.11-.85-.09-.06-.07-.12-.14-.18-.2-.1-.11-.36.01-.34-.24-.02-.06-.05-.12-.09-.22-.12.1-.2.17-.26.22-.16-.09-.32-.17-.5-.27,0-.03.02-.1.04-.19-.12-.03-.24-.06-.31-.08-.13.09-.23.16-.33.23-.08-.09-.13-.15-.18-.21-.07,0-.15-.02-.25-.03-.03-.05-.07-.11-.11-.16-.01.02-.03.04-.04.05-.37-.26-.73-.52-1.13-.79.12-.07.2-.12.29-.17-.24-.16-.45-.31-.69-.47-.04.06-.1.12-.2.25-.08-.14-.15-.25-.21-.35l.32.04s-.04.02-.06.03c-.15-.26-.27-.41-.5-.6-.04-.06-.08-.12-.11-.19-.07-.37-.45-.48-.67-.83-.08-.14-.21-.36-.34-.58-.01,0-.03.01-.04.02,0-.08-.02-.16-.03-.27-.14-.11-.3-.24-.47-.38.03-.06.06-.13.08-.17-.08-.17-.15-.31-.22-.45.01,0,.02-.01.03-.02-.06-.07-.12-.13-.19-.22.02-.23.04-.48.07-.75.04-.04.1-.09.16-.15-.02-.05-.05-.09-.08-.14-.09.03-.16.06-.27.09v-.39c.07-.03.13-.06.24-.11-.04-.13-.07-.26-.11-.41-.13.06-.19.09-.28.14-.05-.03-.1-.07-.18-.13.08-.13.15-.24.21-.36.16-.03.33-.07.49-.1.04-.03.09-.07.13-.1.02.14.05.29.07.43-.25.28-.27.38-.05.57.05-.08.1-.15.14-.22.1.3.2.59.3.89-.09-.06-.18-.12-.33-.22-.07.17-.15.37-.23.57.02.01.04.03.06.04.19-.08.38-.16.58-.24,0,.01.02.03.02.04.44,1.01.97,1.96,1.77,2.74.01.03.03.07.04.1-.15-.02-.31-.04-.47-.06.06.11.11.2.16.3.27.25.55.5.82.76.02-.01.04-.03.06-.04-.04-.33-.42-.66-.58-.96,1.09.9,2.09,1.8,3.42,2.3-.21.14-.09.22.07.29.06-.07.12-.13.18-.2.08.03.16.06.25.1.03.08.06.16.11.28.15-.05.29-.09.42-.13.11.02.23.04.34.06.03.07.08.21.1.21.12-.02.23-.08.35-.12.12.01.24.03.35.04.21.02.41.04.62.06-.02.03-.04.06-.07.09.48.15,1.27.13,1.53-.04-.09,0-.16-.01-.24-.01.36-.05.72-.1,1.08-.15.07.22.23.14.37.1.08.03.16.06.24.08.01-.03.02-.07.03-.1l-.39-.13c.67-.34,1.45-.47,2.14-.77.57-.25,1.11-.58,1.61-.97,1.02-.8,1.95-1.83,2.52-3,.07-.12.17-.22.22-.35.23-.6.45-1.21.67-1.81.36-.11.43-.48.66-.71-.18-.43.05-.37.12-.71.38-.17.54-.61.36-.97.16-.7.02-1.24-.53-1.69,0-.04.01-.07.02-.11.36-.11.58-.05.95.02v-.93c-.17.06-.32.11-.49.17-.02.03-.07.09-.11.15h-.57v.25c.06.04.12.08.18.12-.04.08-.07.15-.1.21-.07-.06-.13-.12-.2-.18-.09.08-.17.18-.23.27-.21-.29-.2-.83-.3-1.17-.13-.43-.33-.84-.49-1.26Zm1.54.06c.08.24.17.47.25.7.13-.4.12-.76-.19-1.11-.08-.02-.21-.05-.34-.09,0,.12.02.21.02.29-.11.03-.18.05-.27.08.06.14.11.25.16.38-.05.11-.09.22-.15.37.08.02.15.03.25.05v-.69c.11,0,.18.01.27.02Z"/>
          <path class="cls-2" d="m9.11,21.67c.26.02.51.05.74.07.1-.07.16-.12.25-.18.19.03.41.06.65.09-.09.07-.15.12-.25.21.11.02.16.04.22.05-.33.05-.65.04-.95-.15-.06.03-.12.06-.2.1-.15-.06-.31-.13-.46-.2Z"/>
          <path class="cls-2" d="m11.99,21.62h.18c.05.06.1.12.15.19.23-.05.47-.09.72-.14,0-.06,0-.13.02-.26.18.03.35.06.58.1.07-.07.33.14.4-.14-.1.42-1.62.46-2.03.53-.01-.13-.02-.21-.02-.29Z"/>
          <path class="cls-2" d="m3.53,18.39c.23.19.35.34.5.6.02,0,.04-.02.06-.03l-.32-.04c-.21-.1-.37-.24-.45-.5.08-.01.15-.02.21-.03Z"/>
          <path class="cls-2" d="m10.72,21.91c.36-.09.77-.02,1.14,0-.06-.12-.09-.16-.11-.2.07.04.13.08.2.12-.15.15-.61.17-1.23.08Z"/>
          <path class="cls-2" d="m7.74,21.13c-.01.26.25.14.34.24-.09.03-.18.05-.29.09-.07-.06-.16-.14-.26-.23.08-.04.14-.07.2-.1Z"/>
          <path class="cls-2" d="m11.99,1.91c-.55,0-1.11,0-1.66,0-.1-.1-.2-.21-.32-.34,1.71-.54,3.14.24,4.78.55.05.28.54.23.77.36.55.3,1.07.67,1.57,1.05.86.65,1.42,1.4,2.12,2.2.07.22.14.44.2.64-.07.1-.12.17-.17.23-.33-.47-.66-.94-1-1.41-.03-.04-.08-.07-.13-.11-.33-.33-.66-.65-.99-.98-.21-.16-.42-.32-.63-.48-.08-.05-.16-.11-.24-.16-1.04-.71-2.17-1.18-3.4-1.41-.16-.03-.31-.06-.47-.09.06-.08.11-.15.2-.27-.18-.04-.3-.06-.43-.09-.08.12-.14.21-.2.31Z"/>
          <path class="cls-2" d="m20.7,9.24c.03-.07.06-.13.1-.21-.06-.04-.12-.08-.18-.12v-.25h.57c.05-.06.09-.12.11-.15.18-.06.32-.11.49-.17v.93c-.37-.07-.59-.13-.95-.02,0,.04-.01.07-.02.11.55.46.69,1,.53,1.69.18.36.02.8-.36.97-.03-.62-.05-1.24-.08-1.86h-.06c-.07-.06-.14-.12-.19-.16.01-.26.02-.51.03-.77Z"/>
          <path class="cls-2" d="m20.7,9.24c0,.26-.01.52-.03.77.04.04.12.1.19.16h.06c.03.62.05,1.23.08,1.85-.07.34-.3.28-.12.71-.22.23-.29.59-.66.71.06-.36.12-.72.19-1.08.01-.17.04-.34.03-.51-.02-.6-.05-1.19-.08-1.79-.03-.25-.06-.49-.08-.74.07-.1.15-.19.23-.27.07.06.13.12.2.18Z"/>
          <path class="cls-2" d="m21.02,6.96c-.09,0-.16-.01-.27-.02v.69c-.1-.02-.17-.03-.25-.05.06-.14.1-.25.15-.37-.05-.12-.1-.24-.16-.38.09-.03.16-.05.27-.08,0-.08-.01-.17-.02-.29.13.03.25.07.34.09.31.34.32.71.19,1.11-.08-.23-.16-.46-.25-.7Z"/>
          <path class="cls-2" d="m4.31,17.61c.15.3.54.64.58.96-.02.01-.04.03-.06.04-.27-.25-.55-.5-.82-.76-.05-.1-.1-.19-.16-.3.16.02.31.04.47.06,0,0,0,0,0,0Z"/>
          <path class="cls-2" d="m2.41,14.57c.03.05.05.1.08.15-.19.08-.38.16-.58.24-.02-.01-.04-.03-.06-.04.08-.2.16-.4.23-.57.15.1.24.16.33.22Z"/>
          <path class="cls-2" d="m10.52,20.5c.41.01.82.03,1.23.04.07,0,.14,0,.24.01-.26.17-1.05.18-1.53.04.02-.03.05-.06.07-.09Z"/>
          <path class="cls-2" d="m2.02,13.35c.03.11.06.23.1.34-.05.07-.09.15-.14.22-.22-.18-.21-.29.05-.57Z"/>
          <path class="cls-2" d="m12.83,20.4c.08-.02.16-.03.25-.05.13.04.26.09.39.13-.01.03-.02.07-.03.1-.08-.03-.15-.05-.24-.08-.14.03-.3.12-.37-.1Z"/>
          <path class="cls-2" d="m8.23,20.1c.18.05.36.1.54.15-.14.04-.27.09-.42.13-.05-.13-.08-.21-.11-.28Z"/>
          <path class="cls-2" d="m9.1,20.32c.15.03.3.06.45.09-.11.04-.23.1-.35.12-.02,0-.07-.14-.1-.21Z"/>
          <path class="cls-2" d="m7.73,19.91c.08.03.16.06.25.1-.06.06-.11.13-.18.2-.16-.08-.28-.15-.07-.29Z"/>
          <path class="cls-5" d="m3.82,8.85c.1.02.2.05.25.06.12.17.2.3.29.43-.18-.16-.36-.33-.54-.49Z"/>
          <path class="cls-7" d="m20.36,10.08c.03.6.06,1.19.08,1.79,0,.17-.02.34-.03.51-.32.05-.89-.44-1.2-.57-.42-.18-1.1-.28-1.43-.59.74-.33,1.64-.56,2.3-1.04.1-.03.19-.06.29-.1Z"/>
          <path class="cls-5" d="m15.76,13.21c-.23-.06-.45-.2-.69-.05v-.42h.31c0,.27.06.22.32.26.01.04.03.12.05.21Z"/>
          <path class="cls-5" d="m14.93,12.96h-.44v-.22c.15.03.28.05.44.08v.14Z"/>
          <path class="cls-5" d="m17.08,13.35c-.16-.03-.33-.07-.49-.1.16-.03.32-.07.49-.1v.2Z"/>
          <path class="cls-5" d="m14.39,13.06c-.1-.03-.2-.07-.29-.1,0-.07,0-.14,0-.22.08.02.15.04.24.07.01.06.03.15.05.25Z"/>
          <path class="cls-5" d="m17.43,12.77c0-.08,0-.16.01-.23.02-.01.05-.03.07-.04.06.08.13.15.23.27h-.31Z"/>
          <path class="cls-2" d="m11.99,1.91c.06-.1.13-.19.2-.31.14.03.25.05.43.09-.09.12-.15.19-.2.27-.14-.02-.29-.03-.43-.05Z"/>
          <path class="cls-7" d="m17.17,4.11c-.12.07-.24.13-.4.22.09.1.16.19.24.27.09-.03.16-.05.25-.08.04.06.08.13.12.21-.1.02-.19.03-.31.06-.33-.24-.72-.43-.86-.82.14-.14.23-.24.33-.34.21.16.42.32.63.48Z"/>
          <path class="cls-5" d="m10.38,15.9c.3.03.59.07.97.11.49.25,1.16.44,1.08,1.11-1.09,1.14-3.56,1-4.83.29-.07-.05-.13-.1-.2-.15-.05-.08-.1-.16-.15-.24,0-.08,0-.16,0-.24.16-.34.46-.5.78-.64.08-.03.16-.06.25-.1.54-.07,1.08-.13,1.61-.2.16.02.33.03.49.05Z"/>
          <path class="cls-6" d="m11.76,20.01h-1s0-.06,0-.08h1.01s0,.06,0,.08Z"/>
          <path class="cls-6" d="m9.44,19.65c.12-.01.21-.02.35-.04-.08.3-.14.26-.46.28.06-.13.08-.19.11-.24Z"/>
          <path class="cls-5" d="m19.2,11.8c-.42-.18-1.1-.28-1.43-.59.74-.33,1.64-.56,2.3-1.04.1-.03.19-.06.29-.1-.03-.25-.06-.49-.08-.74-.21-.29-.2-.83-.3-1.17-.13-.43-.33-.84-.49-1.26-.02,0-.03,0-.05,0-.66.4-1.4.6-2.14.79-.12.03-.24.09-.36.14l-.98.2c-.24.05-.49.1-.73.15l-.98.1c-.64,0-1.27,0-1.91,0-.31,0-.63,0-.95-.14-.58.12-1.25-.14-1.81-.28-.66-.17-1.25-.35-1.89-.61-.11-.05-.23-.1-.34-.15-.69-.37-1.41-.71-2.07-1.14-.4-.27-.85-.55-1.02-1.06-.82.71-1.24,1.73-1.71,2.7.08.07.17.14.25.22.34.35.68.7,1.01,1.05.1.02.2.05.25.06.12.17.2.3.29.43l.61.48c.37.12.76.46,1.1.65.37.21.73.39,1.13.53.12.06.25.13.43.23-1.86.75-3.76,1.79-4.86,3.54-.09,0-.17,0-.26,0,.44,1.01.97,1.96,1.76,2.74,1.64-2.1,4.45-2.76,6.94-3.22.03,0,.07,0,.1,0,.36-.03.72-.07,1.08-.1.42,0,.85,0,1.27,0,.2,0,.39,0,.59,0,.26.03.52.06.78.1.24.03.49.07.73.1.03.02.07.03.1.05l.73.15s.1,0,.15,0c.36.1.72.2,1.08.29.33.11.65.22.98.34.22.08.46.13.54.39.07-.12.17-.22.22-.35.23-.6.45-1.21.67-1.81.06-.36.12-.72.19-1.08-.32.05-.89-.44-1.2-.57Z"/>
          <path class="cls-7" d="m7.2,11c-.4-.14-.76-.32-1.13-.53-.34-.19-.73-.53-1.1-.65l-.61-.48c-.18-.16-.36-.33-.54-.49-.34-.35-.67-.7-1.01-1.05-.08-.08-.17-.15-.25-.22-.3.66-.49,1.34-.6,2.05-.18,1.09-.19,2.18,0,3.28.02.14.05.29.07.43.03.11.06.23.1.34.1.29.2.59.3.88.03.05.05.1.08.15,0,.01.02.03.02.04h.26c1.1-1.75,3.01-2.78,4.86-3.54-.19-.1-.31-.16-.43-.23Zm-4.5-1.12c-.18-.34-.18-.52-.06-.67.03,0,.06,0,.09,0-.01.22-.02.45-.03.67Z"/>
          <path class="cls-7" d="m2.73,9.22c-.01.22-.02.45-.03.67-.18-.34-.18-.52-.06-.67.03,0,.06,0,.09,0Z"/>
          <path class="cls-7" d="m19.28,6.6c-.33-.47-.66-.94-1-1.41-.03-.04-.08-.07-.13-.11-.33-.33-.66-.65-.99-.98-.12.07-.24.13-.4.22.09.1.16.19.24.27.09-.03.16-.05.25-.08.04.06.08.13.12.21-.1.02-.19.03-.31.06-.33-.24-.72-.43-.86-.82.14-.14.23-.24.33-.34-.08-.05-.16-.11-.24-.16-1.04-.71-2.17-1.18-3.4-1.41-.16-.03-.31-.06-.47-.09-.14-.02-.29-.03-.43-.05-.55,0-1.11,0-1.66,0-.45.08-.91.17-1.36.25-1.78.48-3.45,1.36-4.71,2.73.17.52.62.8,1.02,1.06.65.43,1.37.77,2.07,1.14h0c.11.05.23.1.34.15.64.25,1.22.44,1.89.61.56.14,1.23.41,1.81.28.32.13.63.13.95.14.08-.09.17-.15.27-.18-.1.03-.19.09-.27.18.64,0,1.27,0,1.91,0l.98-.1c.24-.05.49-.1.73-.15l.98-.2c.12-.05.23-.11.36-.14.74-.19,1.48-.39,2.14-.79-.05-.1-.1-.2-.15-.29Zm-7.1-.29c-.23-.05-.46-.1-.69-.15-.02,0-.03,0-.05,0-.23-.08-.46-.16-.69-.24-.07-.03-.13-.07-.2-.1-.29-.23-.35-.36-.33-.66.44-.56,1.09-.69,1.75-.8h.19s.02-.09.02-.12c.16.03.32.05.47.07.1,0,.2,0,.29,0,.18.02.36.03.54.05.82.04,1.49.27,1.97.97-.41,1.18-2.33.99-3.29.99Z"/>
          <g>
            <polygon class="cls-6" points="4.31 17.61 4.31 17.61 4.31 17.61 4.31 17.61"/>
            <path class="cls-6" d="m18.8,15.21c-.32-.12-.65-.23-.98-.34-.36-.1-.72-.2-1.08-.29h0s-.1,0-.15,0c-.24-.05-.49-.1-.73-.15-.03-.02-.07-.03-.1-.05-.24-.03-.49-.07-.73-.1-.26-.03-.52-.06-.78-.1-.2,0-.39,0-.59,0-.42,0-.85,0-1.27,0-.36.03-.72.07-1.08.1-.03,0-.07,0-.1,0-2.49.47-5.3,1.12-6.94,3.22.01.03.03.07.04.1,1.09.89,2.09,1.8,3.42,2.3.08.03.16.06.25.1.08.03.16.06.25.1l.54.15c.11.02.23.04.34.06.15.03.3.06.45.09.12.01.24.03.35.04.21.02.41.04.62.06.41.01.82.03,1.23.04l1.08-.15c.08-.02.16-.03.25-.05.67-.34,1.45-.47,2.14-.77.57-.25,1.11-.58,1.61-.97,1.02-.8,1.95-1.83,2.52-3-.08-.27-.33-.32-.54-.39Zm-9.47,4.68c.06-.13.08-.19.11-.24.12-.01.21-.02.35-.04-.08.3-.14.26-.46.28Zm2.44.12h-1s0-.06,0-.08h1.01s0,.06,0,.08Zm-4.18-2.59c-.07-.05-.13-.1-.2-.15-.05-.08-.1-.16-.15-.24v-.24c-.06,0-.12.02-.18.03.07,0,.12-.02.18-.03.16-.34.46-.5.78-.64.08-.03.16-.06.25-.1.54-.07,1.08-.13,1.61-.2.16.02.33.03.49.05.3.03.59.07.97.11.49.25,1.16.44,1.08,1.11-1.09,1.14-3.56,1-4.83.29Z"/>
          </g>
          <g>
            <path class="cls-4" d="m13.51,4.35c-.18-.02-.36-.03-.54-.05-.1,0-.2,0-.29,0-.15-.02-.3-.05-.47-.07,0,.03-.02.08-.02.12-.06,0-.13,0-.2,0-.07.07-.14.15-.21.23.17.34.53,0,.68.13.26.02.44.03.63.04v.1c-.15.14-.34.02-.52.02-.06.03-.13.07-.19.11,0,.01,0,.03,0,.04h1.15c-.11-.06-.18-.1-.29-.16.09-.07.15-.11.19-.14.31.04.58.07.87.11.04.05.09.11.14.18,0,0,.01-.02.02-.03.13.09.25.18.45.32-.23.17-.44.31-.64.45-.06-.05-.12-.1-.17-.13-.19.05-.34.09-.51.14.01.05.03.11.06.2-.43.09-.81-.1-1.19-.26-.06.09-.09.15-.17.26-.19-.06-.4-.13-.6-.19,0-.02,0-.05,0-.07-.08.04-.17.08-.26.13-.11-.09-.22-.19-.35-.3.09-.13.16-.25.26-.4,0,0-.03-.06-.06-.11.01-.01.03-.02.04-.04.09.07.18.14.28.22.08-.07.14-.13.22-.21-.08-.04-.15-.08-.22-.11.03-.1.06-.19.1-.31-.37.04-.65.18-.91.42-.06.01-.14.02-.22.04-.06.06-.12.12-.19.19v.24s.02,0,.03-.01c.05.13.1.26.15.39.07.03.13.07.2.1.23.08.46.16.69.24.02,0,.03,0,.05,0,.23.05.46.1.69.15.96,0,2.88.19,3.29-.99-.47-.69-1.15-.93-1.97-.97Z"/>
            <path class="cls-4" d="m11.99,4.35c-.66.11-1.31.24-1.75.8-.02.31.04.44.33.66-.05-.13-.1-.26-.15-.39-.01,0-.02,0-.03.01v-.24c.07-.07.13-.13.19-.19.09-.02.17-.03.22-.04.27-.23.54-.38.91-.42-.04.13-.07.21-.1.31.07.04.14.07.22.11-.08.08-.15.14-.22.21-.1-.08-.19-.15-.28-.22-.01.01-.03.02-.04.04.03.05.06.1.06.11-.1.15-.18.27-.26.4.13.11.24.2.35.3.09-.04.17-.08.26-.13,0,.02,0,.05,0,.07.2.07.41.13.6.19.07-.11.11-.17.17-.26.38.16.75.35,1.19.26-.02-.09-.04-.15-.06-.2.17-.05.31-.09.51-.14.05.04.11.08.17.13.2-.14.4-.29.64-.45-.2-.14-.33-.23-.45-.32,0,0-.01.02-.02.03-.05-.06-.1-.13-.14-.18-.29-.04-.56-.07-.87-.11-.03.02-.09.07-.19.14.11.06.18.1.29.16h-1.15s0-.03,0-.04c.07-.04.14-.07.19-.11.18,0,.37.12.52-.02v-.1c-.18-.01-.36-.02-.63-.04"/>
          </g>
        </g>
      </g>
    </g>
  </g>
</svg>