<?xml version="1.0" encoding="UTF-8"?>
<svg id="_레이어_2" data-name="레이어 2" xmlns="http://www.w3.org/2000/svg" xmlns:xlink="http://www.w3.org/1999/xlink" viewBox="0 0 22.53 26.81">
  <defs>
    <style>
      .cls-1 {
        clip-path: url(#clippath);
      }

      .cls-2 {
        fill: #b8d2d4;
      }

      .cls-3 {
        fill: #b7cfd1;
      }

      .cls-4 {
        fill: #11253a;
      }

      .cls-5 {
        fill: #417284;
      }

      .cls-6 {
        fill: #427b8d;
      }

      .cls-7 {
        fill: #357486;
      }

      .cls-8 {
        fill: #407787;
      }

      .cls-9 {
        fill: #367486;
      }

      .cls-10 {
        fill: #3d7789;
      }

      .cls-11 {
        fill: #3e7889;
      }

      .cls-12 {
        fill: #457e8f;
      }

      .cls-13 {
        fill: #2d2e2e;
      }

      .cls-14 {
        fill: #477e8d;
      }

      .cls-15 {
        fill: #5b8f9d;
      }

      .cls-16 {
        fill: #377587;
      }

      .cls-17 {
        fill: #387588;
      }

      .cls-18 {
        fill: #5c8896;
      }

      .cls-19 {
        fill: #82a8b1;
      }
    </style>
    <clipPath id="clippath">
      <circle class="cls-2" cx="11.27" cy="11.27" r="8.46"/>
    </clipPath>
  </defs>
  <g id="_레이어_1-2" data-name="레이어 1">
    <g>
      <path class="cls-13" d="m22.53,11.27c0,7.67-11.27,15.55-11.27,15.55,0,0-11.27-7.87-11.27-15.55C0,5.04,5.04,0,11.27,0s11.27,5.04,11.27,11.27Z"/>
      <g>
        <circle class="cls-2" cx="11.27" cy="11.27" r="8.46"/>
        <g class="cls-1">
          <path class="cls-7" d="m5.97,7.49c-.16.02-.33.04-.49.06-.13.11-.27.22-.4.33-.08.05-.16.1-.24.14-.17.11-.33.23-.5.34-.13.25-.25.49-.38.74-.04.07-.07.16-.13.19-.07.04-.17.03-.25.05,0-.06,0-.13,0-.19.13-.64.04-1.33.36-1.87-.08-.15-.13-.24-.18-.33,0-.05,0-.1,0-.15,0-.11,0-.22,0-.33-.09-.03-.15-.06-.2-.08-.05-.09-.1-.16-.14-.23.91-1.3,1.9-2.38,3.31-3.16.66-.37,1.37-.67,2.11-.86.73-.19,1.72-.42,2.47-.29-.11,0-.23.01-.34.02,0,.01,0,.03,0,.04.33.06.66.13.98.19.65.11,1.21.33,1.85.39.65.06,1.25.35,1.89.46.36.22.72.45,1.09.67-.16.22-.37.3-.63.24-.05-.05-.11-.09-.16-.14-.14-.03-.29-.06-.43-.1-.1.04-.19.07-.29.11-.16,0-.33,0-.49,0-.25,0-.49,0-.74-.01-.18.08-.36.16-.54.24v.09c.19.07.39.14.58.21-.01.15-.03.29-.04.44-.1.14-.21.28-.31.42-.28.25-.58.41-.97.37-.17.1-.34.2-.52.32.09.16.16.29.23.41,0,.06,0,.12-.01.19-.13.04-.26.08-.35.11-.09-.31-.16-.57-.22-.77-.24-.09-.42-.16-.65-.25-.11.04-.27.1-.44.16.03.1.05.17.06.22.11.04.2.08.35.14-.15.07-.23.11-.32.15.04.33.07.66.11.98-.02.06-.04.12-.06.18-.26.22-.52.43-.78.65-.05.02-.1.04-.14.06-.08.03-.16.05-.25.08-.31.04-.62.07-.93.11-.39-.14-.69-.03-.93.3.21.42.29.7.33,1.17-.09.1-.19.19-.28.29-.1.05-.19.1-.29.15-.1.02-.2.03-.31.05-.01-.13-.03-.23-.04-.34-.15-.19-.31-.37-.5-.6-.09.17-.14.26-.19.35-.21.36-.02.67.13.98.09.19.16.39.23.59-.01.08-.02.15-.03.23-.45,0-.48-1.05-.56-1.37.03-.16.06-.31.1-.47.02-.3.04-.61.07-.92-.16-.01-.28-.02-.41-.03v-.58c0-.08,0-.16-.01-.23-.01-.13.05-.31-.19-.29Z"/>
          <polygon class="cls-2" points="12.91 14.24 12.91 14.24 12.91 14.24 12.91 14.24"/>
          <path class="cls-4" d="m4.8,17.84c.64.47,1.26.97,1.93,1.39.51.32,1.09.52,1.64.78.05.59-1.56-.31-1.8-.44-.67-.37-1.36-.74-1.87-1.33.04-.16.07-.28.11-.4Z"/>
          <path class="cls-3" d="m15.69,2.95c-.64-.11-1.24-.4-1.89-.46-.64-.06-1.2-.28-1.85-.39-.04-.03-.08-.06-.18-.12.14-.03.23-.05.32-.08,1.25.07,2.41.45,3.52,1.01.03.01.06.03.09.04Z"/>
          <path class="cls-2" d="m3.42,6.16c.04.07.09.14.14.23.05.02.11.04.2.08,0,.11,0,.22,0,.33-.07-.03-.15-.06-.28-.12-.07.13-.14.27-.21.41.03.02.06.05.09.07-.09.07-.18.15-.31.26.12,0,.2.01.31.02-.02.07-.03.13-.05.2-.1-.02-.18-.03-.27-.05-.06.05-.12.11-.18.17-.07-.02-.14-.04-.21-.06.26-.51.52-1.01.78-1.52Z"/>
          <path class="cls-4" d="m18.05,19.31c-.11.32-.29.57-.13.86-.05.08-.1.16-.13.21h-1.08s-.02-.07-.03-.1c.25-.14.49-.28.74-.41,0,0-.01-.01-.02-.02.1-.08.21-.17.31-.25.1-.08.2-.16.34-.28Z"/>
          <path class="cls-4" d="m16.14,19.08c.74-.47,1.39-1.05,2.01-1.67.22.3-.83,1.06-1.04,1.23-.12.1-.87.79-.97.43Z"/>
          <path class="cls-4" d="m3.67,16.53c.11.13.22.27.33.4l.64.76c-.12.26-.62-.16-.76-.24-.03.02-.06.04-.09.06-.07-.29-.3-.72-.13-.98Z"/>
          <path class="cls-2" d="m20.11,13.99c.02-.31.04-.62.06-.93.03,0,.05,0,.08,0-.03-.07-.06-.13-.08-.2.02,0,.03,0,.05,0,0-.13.02-.26.03-.45.06-.07.15-.2.25-.33,0,.66-.15,1.29-.38,1.91Z"/>
          <path class="cls-4" d="m2.88,15.17c.13.25.26.49.4.74-.04.11-.08.21-.12.32h-.15c-.09-.37-.21-.68-.12-1.06Z"/>
          <path class="cls-4" d="m14.87,19.73c.37-.19.75-.37,1.12-.56v.27c-.39.1-.66.26-.96.54-.07-.11-.12-.18-.16-.25Z"/>
          <path class="cls-15" d="m12.09,1.9c-.09.02-.18.04-.32.08.09.07.14.09.18.12-.33-.06-.66-.13-.98-.19,0-.01,0-.03,0-.04.11,0,.23-.01.34-.02.26.02.52.03.78.05Z"/>
          <path class="cls-4" d="m18.33,17.22c.1-.13.2-.26.31-.39.05.02.09.04.16.08-.11.14-.2.26-.3.39-.06-.03-.11-.05-.16-.08Z"/>
          <path class="cls-4" d="m3.47,16.2s.04.08.06.12c-.09.07-.18.15-.3.24v-.28c.1-.03.17-.05.24-.08Z"/>
          <path class="cls-4" d="m4.34,18.45c-.21,0-.22-.02-.35-.2.02-.02.04-.04.06-.06.1.05.2.11.3.16,0,.03,0,.06-.01.09Z"/>
          <path class="cls-4" d="m14.19,20.01c.08-.03.16-.06.25-.1.03.01.06.02.13.05-.11.1-.2.17-.32.27-.02-.11-.04-.17-.05-.22Z"/>
          <path class="cls-4" d="m21.21,3.85h-.19v-.3c.06,0,.12-.01.19-.02v.32Z"/>
          <path class="cls-9" d="m12.08,12.76c.13.19.22.37.31.58.24-.07.42-.13.61-.18.26.13.52.26.79.4.61.22.58.84.87,1.27-.02.01-.03.03-.05.04-.06-.04-.12-.07-.17-.11-.09-.13-.17-.26-.27-.37-.05-.06-.15-.08-.23-.11-.08.04-.16.11-.25.12-.14.03-.28.02-.42.02-.12-.06-.23-.13-.35-.19h0c.07-.48.03-.55-.43-.75-.07-.03-.14-.05-.2-.07-.05-.03-.1-.07-.15-.1-.08-.17-.17-.34-.25-.53.07,0,.14-.01.21-.02Z"/>
          <path class="cls-7" d="m9.44,11.98c-.18.25-.36.49-.55.76-.24-.07-.48-.14-.72-.2-.01-.01-.03-.02-.04-.02-.08-.16-.16-.33-.24-.49,0-.11,0-.22,0-.34.17-.05.33-.09.5-.14.01,0,.03,0,.04-.01.3-.16.6-.32.89-.48.1.04.2.08.34.13-.13.18-.21.29-.28.39.03.14.05.27.07.39Z"/>
          <path class="cls-2" d="m3.76,6.95c.05.09.1.18.18.33-.33.54-.23,1.22-.36,1.87-.1-.08-.2-.16-.33-.26.03.08.05.13.07.18-.16.11-.31.22-.47.34-.03.26-.05.53-.08.82-.07-.02-.13-.04-.2-.06.01-.12.03-.23.04-.35.04-.05.08-.11.14-.17-.04-.16-.07-.32-.11-.49.08-.04.14-.06.19-.09.04-.26.09-.49.18-.74.15.1.24.16.34.22.1-.18.19-.36.28-.53.02,0,.05,0,.07.01-.05-.19-.1-.39-.14-.56.03-.14.05-.26.08-.43.02,0,.08-.05.14-.08Z"/>
          <path class="cls-2" d="m6.41,10.02c.07.31.1,1.36.56,1.37.01-.08.02-.15.03-.23.04.16.08.32.12.52.23.1.26.17.12.52.04.05.08.11.15.2-.07.05-.14.09-.2.13,0-.07,0-.14,0-.22-.02.01-.04.02-.05.03-.27-.68-.73-1.21-1.2-1.74-.02.02-.05.03-.07.05.06.12.13.24.19.35h-.29c-.04-.12-.08-.22-.1-.3.09-.14.15-.24.23-.37.08,0,.19-.02.32-.03.06-.09.13-.19.2-.29Z"/>
          <path class="cls-2" d="m8.25,9.68c-.04-.46-.12-.75-.33-1.17.24-.33.55-.44.93-.3.05.06.1.13.15.21-.08.23-.16.46-.24.68.07.1.13.18.23.31-.15.05-.27.09-.38.13-.02-.02-.05-.04-.07-.06.04-.12.07-.24.11-.36-.33-.17-.37.36-.42.56Z"/>
          <path class="cls-2" d="m19.49,12.25c.03.19.06.38.1.57-.02.06-.06.13-.1.23h-.41v-1s.03,0,.04,0v.67s.03,0,.04,0c0-.1.02-.2.02-.31.06,0,.12-.02.25-.03-.07-.13-.12-.24-.2-.39.12-.27.05-.62-.21-.77.1-.02.17-.04.26-.05.02.07.04.14.04.14.08-.07.17-.15.28-.25.08.12.12.18.13.21-.01.29-.03.54-.04.84-.05.04-.13.09-.21.15Z"/>
          <path class="cls-16" d="m6.06,11.01c-.06-.12-.13-.24-.19-.35.02-.02.05-.03.07-.05.47.52.94,1.05,1.2,1.74.02-.01.04-.02.05-.03,0,.07,0,.14,0,.22-.03.05-.06.09-.09.14h-.31c-.11-.22-.23-.45-.35-.68-.11-.28-.22-.56-.33-.84-.02-.05-.04-.09-.06-.14Z"/>
          <path class="cls-2" d="m15.77,14c.04.43.08.82.12,1.19-.08.11-.15.21-.25.35-.04-.01-.12-.03-.17-.04.04-.22.08-.4.11-.54-.11-.15-.19-.25-.28-.36.08-.05.13-.09.26-.18-.13-.06-.22-.11-.29-.14v-.55c.1,0,.2.01.29.02.07.09.14.18.2.26Z"/>
          <path class="cls-2" d="m6.16,8.01v.58c.13,0,.25.02.41.03-.02.32-.04.62-.07.92,0-.19,0-.37,0-.54-.1-.11-.19-.21-.29-.32-.1.02-.23.04-.35.06-.01.02-.03.03-.04.05-.16-.15-.32-.3-.48-.45.07-.13.11-.2.17-.32.22.05.43.11.65.16,0-.04,0-.11.01-.19Z"/>
          <path class="cls-2" d="m15.08,12.9c.03.06.06.12.11.24-.15.04-.28.08-.41.12-.38-.4-.22-.84-.13-1.27.12.24.26.48.05.82.16-.02.26-.04.35-.05.01-.14.02-.23.03-.35.07-.01.13-.02.19-.03.04.24.07.45.12.69-.11-.09-.18-.16-.26-.22-.02.02-.03.03-.05.05Z"/>
          <path class="cls-2" d="m8.67,10.56c.05-.08.1-.15.16-.23-.15-.02-.27-.03-.4-.04v-.37c.07.04.14.08.2.12.13-.03.25-.05.37-.08.05-.12.09-.22.13-.32.03,0,.07,0,.1,0,.03.18.05.35.08.54-.13.15-.26.3-.41.46-.08-.03-.16-.05-.23-.08Z"/>
          <path class="cls-2" d="m13.93,14.28c.08.04.17.06.23.11.1.11.18.25.27.37-.15.25-.11.51-.17.79-.03,0-.06.02-.09.03-.09-.14-.18-.27-.26-.41.02,0,.04,0,.07-.01.04-.13.09-.26.14-.41-.16-.02-.25-.03-.35-.04.17-.18.31-.22.17-.43Z"/>
          <path class="cls-2" d="m10.17,7.97c.26-.22.52-.43.78-.65.03.07.06.13.1.21-.06.09-.12.19-.18.29,0,.07,0,.15-.01.21-.07.09-.14.17-.21.27-.04-.06-.08-.12-.13-.18-.07,0-.15.02-.23.03-.04-.06-.08-.12-.11-.18Z"/>
          <path class="cls-2" d="m12.08,12.76c-.07,0-.14.01-.21.02.09.19.17.36.25.53-.06.05-.13.1-.19.14-.15-.04-.29-.08-.45-.13-.03-.06-.06-.13-.1-.22.08-.05.14-.09.2-.14-.01-.1-.02-.21-.04-.34.2.05.36.1.53.14Z"/>
          <path class="cls-10" d="m14.03,6.74c-.31.04-.54.07-.84-.02,0-.02,0-.05,0-.07.15-.06.3-.12.46-.19.03,0,.06-.01.09-.02.33,0,.31-.32.43-.52.05.04.08.06.11.08-.02.13-.04.25-.06.38-.03.07-.05.14-.08.21-.04.04-.08.09-.11.13Z"/>
          <path class="cls-17" d="m16.14,3.86c-.03.05-.1.13-.09.15.18.28.02.51-.09.79-.08-.09-.15-.16-.22-.24-.02-.04-.03-.07-.05-.11,0-.15,0-.29,0-.44,0-.01.01-.02.01-.04.09-.08.18-.17.28-.25.05.05.11.09.16.14Z"/>
          <path class="cls-2" d="m3.57,9.34c.09-.01.18,0,.25-.05.06-.04.09-.13.13-.19.09.05.18.1.3.17-.06.1-.13.2-.19.29-.01.17-.03.34-.04.51-.04,0-.08,0-.11,0-.01-.08-.03-.16-.04-.26-.14-.11-.49-.11-.31-.47Z"/>
          <path class="cls-2" d="m4.84,15c-.01-.43-.16-.87.1-1.31.07.08.13.14.19.21-.23.35.07.81-.29,1.1Z"/>
          <path class="cls-2" d="m6.09,13.49c-.02-.25-.03-.49-.05-.77.04-.04.1-.09.18-.17.09.11.17.2.26.32-.09.21-.18.43-.27.64-.04,0-.09-.01-.13-.02Z"/>
          <path class="cls-2" d="m14.28,6.02s-.06-.05-.11-.08c-.12.2-.1.51-.43.52v-.31c.15-.17.3-.34.47-.53-.02-.03-.05-.1-.1-.22.12.02.2.04.28.05-.15.12-.18.23.04.3-.05.1-.1.19-.15.29Z"/>
          <path class="cls-2" d="m12.91,14.24c.12.06.23.13.35.19-.18.3-.34.92-.76.76.09-.09.17-.17.26-.26,0-.05.01-.13.03-.26.03-.03.09-.08.16-.15,0-.08-.02-.18-.03-.29Z"/>
          <path class="cls-2" d="m12.81,11.1c-.23-.17-.25-1.06-.06-1.28.04.43.16.82.06,1.28Z"/>
          <path class="cls-12" d="m10.03,12.77c.02.11.03.22.05.32-.02.01-.04.02-.06.03-.1-.11-.19-.21-.33-.35-.03.14-.05.23-.07.33-.16-.22-.13-.45.08-.64.07.04.14.08.22.12.03.06.07.13.1.19Z"/>
          <path class="cls-2" d="m12.28,13.41c.07.02.14.05.2.07.47.2.51.27.43.75-.05-.05-.1-.1-.15-.16,0-.09.02-.17.03-.29-.11.03-.2.06-.34.1-.06-.16-.12-.32-.18-.49Z"/>
          <path class="cls-2" d="m14.89,15.05c.15.21.28.4.43.6-.32.19-.54-.14-.81-.1,0-.02,0-.05,0-.07.1-.01.19-.03.31-.04.03-.05.07-.11.11-.17-.04-.06-.08-.11-.13-.18.04-.02.08-.03.1-.04Z"/>
          <path class="cls-11" d="m10.71,9.29c-.09.15-.18.31-.27.48-.03,0-.07-.01-.12-.02-.1-.27-.02-.49.3-.74.03.1.06.19.1.29Z"/>
          <path class="cls-2" d="m9.31,11.06c-.3.16-.6.32-.89.48.04-.14.09-.27.13-.4.27-.03.52-.05.76-.08Z"/>
          <path class="cls-5" d="m7.33,12.93c.36.15.71.31,1.07.45-.01.03-.02.06-.03.09-.34-.1-.69-.21-1.03-.31-.07-.06-.14-.12-.25-.21.11,0,.18-.01.25-.02Z"/>
          <path class="cls-2" d="m2.99,9.96c-.03-.11-.07-.22-.1-.34.05-.04.09-.08.13-.12.12.07.23.14.37.22v.31c-.13-.02-.24-.04-.39-.07Z"/>
          <path class="cls-19" d="m14.54,4.75c-.1.16-.21.05-.31.01-.06-.02-.12-.04-.18-.06.01-.15.03-.29.04-.44.11.07.23.13.34.2.04.1.07.19.11.29Z"/>
          <path class="cls-2" d="m18.58,10.63h.39c.12.31.04.43-.3.4-.03-.11-.05-.24-.09-.4Z"/>
          <path class="cls-2" d="m6.12,11.15c.11.28.22.56.33.84-.12-.09-.24-.18-.36-.27-.04-.13-.07-.25-.11-.38.05-.06.09-.13.14-.19Z"/>
          <path class="cls-14" d="m10.73,11.25c-.02-.09-.04-.19-.07-.3.17-.06.33-.15.49.01,0,.04,0,.09,0,.13-.03.05-.07.11-.1.16-.1,0-.21,0-.31,0Z"/>
          <path class="cls-2" d="m4.34,8.36c.17-.11.33-.23.5-.34.04.08.07.16.12.27-.13.08-.26.16-.37.22-.1-.06-.18-.1-.26-.15Z"/>
          <path class="cls-2" d="m6.64,9.59c.05-.09.1-.18.19-.35.19.23.35.41.5.6-.17-.06-.33-.13-.5-.19-.06-.02-.12-.04-.19-.06Z"/>
          <path class="cls-2" d="m9.78,8.11c.08-.03.16-.05.25-.08-.02.11-.04.23-.06.35-.18.01-.32.23-.56.02.12-.05.2-.08.32-.13.01-.03.03-.1.06-.16Z"/>
          <path class="cls-2" d="m11.5,12.46h-.32v-.33c.27-.08.38.03.32.33Z"/>
          <path class="cls-2" d="m5.52,15.65c-.16-.03-.28-.05-.44-.07.03-.09.05-.17.08-.25.11-.01.2-.02.31-.04.02.12.03.22.05.36Z"/>
          <path class="cls-2" d="m19.79,12.79c.04.14.08.27.12.41-.1.17-.21.21-.36.04.06-.08.1-.14.14-.2,0-.09.01-.18.02-.26.02,0,.05,0,.07,0Z"/>
          <path class="cls-2" d="m13.55,15.36s-.03-.07-.05-.1c-.01-.11-.03-.23-.04-.34-.03,0-.05,0-.08,0-.06.1-.11.2-.17.31-.03-.1-.07-.2-.1-.29.1-.06.2-.11.31-.18.06.05.12.1.17.15-.02.17-.03.32-.04.46Z"/>
          <path class="cls-2" d="m7.88,12.02c.08.16.16.33.24.49-.04.03-.08.06-.12.09.02-.03.04-.05.05-.08-.13-.08-.26-.17-.41-.26.1-.1.17-.17.23-.25Z"/>
          <path class="cls-2" d="m11.04,11.25c.03-.05.07-.11.1-.16.17.12.31.19.5.27l-.02.12c-.13-.01-.27-.02-.4-.03-.06-.07-.12-.13-.17-.2Z"/>
          <path class="cls-2" d="m10.34,11.47c-.05.13-.09.23-.16.39-.04.05-.13.14-.21.24-.02-.01-.04-.03-.07-.04.03-.1.06-.2.09-.3.04.03.07.07.11.1.07-.12.15-.24.23-.39Z"/>
          <path class="cls-6" d="m14.43,5.73c-.23-.07-.19-.18-.04-.3.06,0,.13,0,.22.01,0,.07.01.15.02.24-.08.02-.14.03-.2.04Z"/>
          <path class="cls-2" d="m15.99,3.72c-.09.08-.18.17-.28.25-.05-.12-.1-.23-.15-.35.14.03.29.06.43.1Z"/>
          <path class="cls-2" d="m5.97,7.49c.24-.01.18.16.19.29-.1.03-.2.07-.31.1.05-.16.09-.28.12-.4Z"/>
          <path class="cls-8" d="m14.23,17.05c-.15-.54-.56-.84-.52-1.45-.06-.09-.11-.16-.16-.24-.02-.03-.03-.07-.05-.1-.01-.11-.03-.23-.04-.34-.03,0-.05,0-.08,0-.06.1-.11.2-.17.31,0,.03,0,.06,0,.09-.12.19-.24.38-.38.6-.22-.17-.4-.31-.57-.45-.03-.07-.06-.13-.09-.2.03-.11.07-.23.1-.35-.07-.03-.13-.05-.19-.08-.57-.03-.7,0-1.13.36-.48-.34-.66-.09-1.13.2-.3.32-.56.43-.97.31-.17.06-.35.13-.54.2v.59c.08.24.17.49.25.73v.45c.13,0,.26.02.38.03.1,0,.2,0,.29,0,.74-.06,1.66-.34,2.18.36.13-.02.26-.04.38-.06.1.35.14.4.49.44.38.04.83,0,1.05-.34.11.07.2.13.29.19.4-.37.76-.66.6-1.25Z"/>
          <path class="cls-2" d="m8.37,11.55c-.17.05-.33.09-.5.14.07-.22.23-.26.5-.14Z"/>
          <path class="cls-2" d="m19.81,12.69c-.06-.08-.13-.17-.23-.3.16.02.25.03.38.05-.02.08-.04.15-.06.22-.03,0-.06.02-.09.03Z"/>
          <path class="cls-2" d="m19.96,11.59v-.51s.07,0,.11,0l-.04.5s-.05,0-.07,0Z"/>
          <path class="cls-2" d="m19.54,10.93c0-.09.02-.18.03-.34.13.1.18.14.28.22-.1.06-.17.1-.24.15-.02,0-.05-.02-.07-.03Z"/>
          <path class="cls-2" d="m15.13,4.24c.01.13.02.21.04.34-.14-.07-.22-.12-.37-.2.14-.06.21-.09.33-.14Z"/>
          <path class="cls-2" d="m13.2,7.73c.14-.01.28-.03.42-.04,0,.02.01.04.02.07-.08.04-.16.08-.24.13-.07-.02-.14-.05-.21-.07,0-.03,0-.05,0-.08Z"/>
          <path class="cls-2" d="m15.7,4.01c0,.15,0,.29,0,.44-.08-.02-.16-.05-.28-.08.12-.16.2-.26.27-.36Z"/>
          <path class="cls-2" d="m5.08,7.87c.13-.11.27-.22.4-.33-.06.29-.17.38-.4.33Z"/>
          <path class="cls-2" d="m11.66,12.02h.39s0,.05,0,.07h-.39v-.07Z"/>
          <path class="cls-18" d="m12.67,7.1c-.17-.07-.18-.17-.01-.35.05.11.08.18.11.25-.03.03-.07.07-.1.1Z"/>
          <path class="cls-2" d="m14.89,13.58c-.06.05-.13.11-.21.18-.05-.08-.09-.15-.15-.25.13-.01.22-.02.32-.03.01.03.03.07.04.1Z"/>
        </g>
      </g>
    </g>
  </g>
</svg>