<?xml version="1.0" encoding="UTF-8"?>
<svg id="_레이어_2" data-name="레이어 2" xmlns="http://www.w3.org/2000/svg" xmlns:xlink="http://www.w3.org/1999/xlink" viewBox="0 0 22.53 26.81">
  <defs>
    <style>
      .cls-1 {
        clip-path: url(#clippath);
      }

      .cls-2 {
        fill: #ea5832;
      }

      .cls-3 {
        fill: #e65a32;
      }

      .cls-4 {
        fill: #e55d32;
      }

      .cls-5 {
        fill: #874131;
      }

      .cls-6 {
        fill: #b9392d;
      }

      .cls-7 {
        fill: #ba382c;
      }

      .cls-8 {
        fill: #af462c;
      }

      .cls-9 {
        fill: #c05c47;
      }

      .cls-10 {
        fill: #b1432c;
      }

      .cls-11 {
        fill: #b2412c;
      }

      .cls-12 {
        fill: #b43f2c;
      }

      .cls-13 {
        fill: #c25a48;
      }

      .cls-14 {
        fill: #bf5c48;
      }

      .cls-15 {
        fill: #c05d48;
      }

      .cls-16 {
        fill: #c85548;
      }

      .cls-17 {
        fill: #de6133;
      }

      .cls-18 {
        fill: #dc6434;
      }

      .cls-19 {
        fill: #dd5734;
      }

      .cls-20 {
        fill: #e25f32;
      }

      .cls-21 {
        fill: #ad472c;
      }

      .cls-22 {
        fill: #2d2e2e;
      }
    </style>
    <clipPath id="clippath">
      <circle class="cls-19" cx="11.27" cy="11.27" r="8.46"/>
    </clipPath>
  </defs>
  <g id="_레이어_1-2" data-name="레이어 1">
    <g>
      <path class="cls-22" d="m22.53,11.27c0,7.67-11.27,15.55-11.27,15.55,0,0-11.27-7.87-11.27-15.55C0,5.04,5.04,0,11.27,0s11.27,5.04,11.27,11.27Z"/>
      <g>
        <circle class="cls-19" cx="11.27" cy="11.27" r="8.46"/>
        <g class="cls-1">
          <path class="cls-18" d="m2.26,13.12c-.05-.34-.1-.69-.15-1.03,0-.43,0-.85,0-1.28.39-3.57,2.3-6.27,5.54-7.87.15-.05.29-.11.44-.16.08-.03.16-.06.24-.08.18-.05.36-.1.54-.15.26-.06.53-.13.79-.19.03,0,.06,0,.09,0,.88-.14,1.76-.1,2.64-.04.66.14,1.37.23,2,.49.08.03.17.06.25.09.58.32,1.17.62,1.73.95.3.18.57.41.86.62.81.74,1.51,1.57,2.03,2.54.27.51.48,1.05.71,1.57.03.11.07.23.1.34.03.13.06.26.1.39.03.13.05.26.08.4.04.32.09.65.13.97.01.16.03.33.04.49-.02.35-.02.69-.06,1.04-.03.29-.09.58-.14.87-.11-.21-.23-.31-.39-.48-.3-.03-.66-.06-1.03-.1v-1.34c.52-.04.69-.68.21-.91-.39-.19-1.23.01-1.14.57-.22-.02-.43-.04-.65-.06-.01-.09-.02-.15-.04-.25h-.72s.01.04.02.06c-.54.32-.72.47-.72,1.12,0,.15.03.31-.15.39-.11-.19-.29-.11-.42-.07-.38.09-.63.31-.6.95,0,.47,0,.95,0,1.42,0,.1-.01.2-.02.34-.36,0-.79-.06-1.14.05-.37.12-.48.38-.7.68-.1-.1-.2-.2-.29-.29.27-.37.71-.55.86-.99.22-.63.12-1.39.12-2.04.66-.03,1.29-.15,1.81-.57-.07-.92-1.55-.13-1.86.22-.21-.82-1.13-.43-1.63-.63-.31-.12-.59-.22-.93-.13-.4.1-.55.29-.95,0,.07-.33-.2-.47-.39-.65.61-.19,1.27-.36,1.7-.87.44-.51.35-1.04-.33-1.23-1.19-.34-2.42.63-2.6,1.76-.87.12-.93.98-.84,1.69.11.84.47,1.16,1.3.98.03-.07.06-.12.08-.18,0,.41,0,.82,0,1.22-.19.41-.1.96-.1,1.4.09.16.2.35.31.55l-.09.05c-.2-.19-.35-.42-.37-.73-.53-.14-.82.13-1.12.54-.03-.67.06-1.46-.22-2.09-.28-.63-.94-.9-1.49-1.24-.08-.03-.16-.06-.25-.1-.25-.07-.49-.15-.75-.21-.69-.14-1.03.07-1.21.74-.03.1-.06.2-.1.29-.29-.04-.57-.07-.84-.11-.11.1-.2.18-.29.26Zm13.44-4.9c.5.02.96-.04,1.4-.24.62-.29.46-.79-.08-1.08-.51-.27-1.26-.43-1.83-.34-.42.07-1.33.45-1.22,1,.11.59,1.3.69,1.74.67Zm-9.57-1.2c.11-.03.22-.04.32-.08.56-.24,1.03-.6,1.45-1.04.32-.34.22-.68-.24-.81-.82-.23-1.93.58-2.01,1.41-.03.27.1.54.47.52Zm6.6-3.17c-.26-.33-.97-.38-1.27-.09-.53.51.3.81.71.78.45-.03.6-.25.56-.69Zm-7.22,6.09c-.45-.04-.71.1-.79.42-.23.96,1.9.44.79-.42Z"/>
          <path class="cls-18" d="m2.26,13.12c.09-.08.18-.16.29-.26.27.03.55.07.84.11.02.29.03.59.05.88.23,1.24.69,2.58,1.72,3.4,1.25.98,2.2-.51,2.24-1.68.3-.41.59-.68,1.12-.54.02.31.17.54.37.73l.09-.05c-.11-.2-.22-.4-.31-.55,0-.44-.09-.99.1-1.4.02.11.03.23.05.34v.05c-.13.16-.13.61,0,.74.01.01.07,0,.1-.01.11.33.23.65.34.98-.27-.01-.55-.02-.82-.03,0-.02,0-.04,0-.06-.78.14-.97.44-.95,1.27,0,.26.15.59-.04.8-.15.16-.63.28-.84.38.18.23.6.19.57.61.41.03.8.07,1.18.1v-.06c.13-.09.28-.17.42-.26.35.43.92.51,1.37.2.64-.43.14-.84-.3-1.13.18-.57.2-.87.75-1.15.21.1.44.26.72.06-.09-.07-.17-.12-.26-.2.23-.12.44-.22.64-.33.02.17.04.34.06.54.17.02.3.03.43.05-.03.53.1.98.63,1.22-.33.75.35,1.6,1.12,1.63.72.03,1.46-.61,1.87-1.14.05-.03.09-.07.14-.1.16.07.31.17.47.19.21.02.43-.02.65-.04-1.52,1.38-3.62,2.11-5.66,2.15-1.04.02-2.08-.14-3.07-.48-.98-.34-1.74-.95-2.65-1.39-.31-.28-.63-.55-.94-.83h0c-.1-.1-.2-.2-.3-.3-.17-.21-.35-.42-.52-.63-.37-.63-.8-1.24-1.09-1.9-.27-.6-.4-1.27-.59-1.9Z"/>
          <path class="cls-18" d="m18.8,11.15v1.34c.37.03.73.07,1.03.1.17.17.28.27.39.48-.08.34-.16.68-.24,1.02-.36,1.08-.88,2.08-1.58,2.98-.25.32-.55.59-.83.88.15-.43.54-1.18.29-1.63-.16-.29-.46-.23-.73-.24-.36,0-.68-.09-1.03-.19h-.2c-.07-.09-.15-.17-.24-.29.18-.19.34-.37.48-.59.1.07.2.15.28.21.99-.33,1.24-.96,1.62-1.87.11.01.22.03.31.04v.29c.12,0,.21-.02.32-.03v-2.51s.07,0,.1,0Z"/>
          <path class="cls-17" d="m16.11,15.9c.35.1.67.18,1.03.19.27,0,.57-.05.73.24.25.45-.14,1.2-.29,1.63-.16.15-.33.3-.49.44-.22.02-.44.06-.65.04-.16-.02-.32-.12-.47-.19.21-.38.5-.74.63-1.14.17-.52.12-.9-.38-1.06-.03-.05-.07-.1-.1-.15Z"/>
          <path class="cls-5" d="m2.07,10.82s.03,0,.04-.01c0,.43,0,.85,0,1.28-.02-.28-.03-.56-.05-.84,0-.14,0-.29.01-.43Z"/>
          <path class="cls-17" d="m11.71,16.04c-.21.11-.41.21-.64.33.1.07.17.13.26.2-.29.2-.51.04-.72-.06-.56.27-.58.58-.75,1.15-.06,0-.11-.02-.17-.03-.55-.1-1.16.15-.91.96-.14.09-.28.17-.43.26v.06c-.38-.03-.76-.06-1.17-.1.03-.43-.39-.38-.57-.61.21-.09.69-.22.84-.38.2-.21.05-.54.04-.8-.02-.82.17-1.12.95-1.27,0,.02,0,.04,0,.06.27.01.55.02.82.03.1.09.2.18.34.29.59-.41.87-1.02,1.18-1.61.02,0,.03,0,.05,0,.05.13.09.25.16.42.09.1.21.24.33.37.1-.04.17-.07.25-.1.04.09.08.17.15.31.39-.67,1.13-1.01,1.36-1.8.15-.54.24-1.95-.27-2.31q-.48-.04-.9.18c-.03-.07-.07-.13-.1-.2-.74-.22-1.39-.13-2.12.13-.47.16-.97.41-.91,1-.03.06-.05.11-.08.18-.83.18-1.19-.14-1.3-.98-.09-.71-.03-1.57.84-1.69.07.21.23.32.43.33.26.02.53,0,.79,0,.19.19.47.33.39.65.4.29.55.1.95,0,.35-.08.62,0,.93.13.5.2,1.43-.19,1.63.63-.03.06-.07.12-.12.2.06.05.11.1.17.15,0,.65.11,1.42-.12,2.04-.16.44-.6.62-.86.99-.21-.01-.43.03-.53.22-.1.2-.14.44-.21.66Z"/>
          <path class="cls-21" d="m7.41,15.55c-.05,1.17-1,2.66-2.24,1.68-1.04-.81-1.49-2.16-1.72-3.4.03-.04.07-.08.1-.12-.02,0-.04,0-.06,0-.02-.15-.04-.3-.05-.39.11-.18.19-.3.29-.47-.09-.07-.16-.13-.24-.19.18-.67.52-.88,1.21-.74.25.05.5.14.75.21.02.27-.44.08-.56.06,0,.02,0,.03,0,.05-.13.04-.26.07-.44.12-.03.04-.1.11-.14.15-.18.03-.32.04-.49.07.19.32.38.12.58.09.06.03.14.07.22.1-.63.65.11,2.74,1.02,2.83,1.12.11.95-2.13.2-2.54.01-.09.03-.17.04-.25-.12-.16-.24-.3-.36-.46.08-.05.13-.09.18-.12.55.34,1.22.61,1.49,1.24.28.63.2,1.42.22,2.09Z"/>
          <path class="cls-4" d="m15.62,12.08c.18-.08.14-.24.15-.39.07-.13.14-.26.2-.36.18-.03.32-.05.48-.08.56.14.21,1.14.33,1.54l.05-.06c.11.04.21.09.32.13-.49.46-.84,1-.98,1.67-.07.03-.13.05-.2.08-.21-.12-.31-.11-.44.07.13.03.25.05.37.07,0,.61-1.1.62-1.03.06.08-.07.14-.13.3-.27-.15-.1-.28-.19-.41-.28-.08-.75-.22-1.51.48-2.09.13-.03.26-.07.39-.1Z"/>
          <path class="cls-20" d="m17.14,12.86c-.11-.04-.21-.09-.32-.13l-.05.06c-.12-.39.23-1.4-.33-1.54-.16.03-.3.05-.48.08-.05.1-.12.23-.2.36,0-.65.17-.8.72-1.12,0-.02-.01-.04-.02-.06h.72c.02.1.02.15.04.25.22.02.43.04.65.06.1.1.19.25.31.29.16.06.35.04.52.05v2.51c-.11,0-.21.02-.32.03v-.29c-.1-.01-.21-.03-.31-.04-.07-.82-.24-.87-.93-.49Z"/>
          <path class="cls-21" d="m15.7,8.21c-.44.03-1.63-.08-1.74-.67-.1-.55.8-.94,1.22-1,.57-.09,1.33.07,1.83.34.54.29.7.79.08,1.08-.43.2-.9.26-1.4.24Zm-.04-.94c.04-.22-.1-.3-.26-.32-.33-.05-.57.01-.87.16.27.35.74.41,1.13.16Z"/>
          <path class="cls-21" d="m9.46,10.37c-.26,0-.53.02-.79,0-.2-.02-.37-.12-.43-.33.18-1.13,1.41-2.1,2.6-1.76.68.19.76.72.33,1.23-.43.51-1.09.68-1.7.87Zm1.14-1.89c-.66-.06-1,.14-1.13.61.2.36.91.17,1.27-.36-.05-.08-.1-.17-.14-.25Z"/>
          <path class="cls-20" d="m15.23,12.18c-.7.57-.56,1.33-.48,2.09.13.09.26.17.41.28-.16.14-.23.2-.3.27-.06.56,1.03.55,1.03-.06-.12-.02-.24-.05-.37-.07.13-.18.23-.19.44-.07.06-.03.13-.05.2-.08,0,.13,0,.26,0,.39-.23.26-.51.42-.85.45-.27.02-.67-.12-.81.21.02.29.04.52.06.72-.15.11-.25.18-.39.29.11.07.18.11.27.17.06-.15.11-.27.15-.39.52-.19.74-.47,1.33-.47h.2s.07.1.1.15c-.51.03-.92.33-1.37.53-.11.05-.19.14-.29.21-.09.04-.17.08-.26.13-.27.15-.55.31-.82.46-.03-.07-.06-.14-.09-.21.07-.08.12-.15.19-.25-.14-.07-.26-.12-.44-.21.07-.38.15-.78.23-1.17.02,0,.03,0,.05,0-.05-.09-.09-.18-.15-.29.39-.26.81-.25,1.21-.18.26-.41.27-.46.12-.69,0-.47,0-.95,0-1.42.06-.15.12-.3.19-.44.09-.19.2-.35.45-.34Z"/>
          <path class="cls-21" d="m6.12,7.02c-.38.02-.5-.25-.47-.52.08-.83,1.19-1.64,2.01-1.41.46.13.56.47.24.81-.42.44-.89.8-1.45,1.04-.1.04-.22.06-.32.08Zm.42-1.04c.07.03.13.07.26.12.24-.18.5-.36.76-.55-.28-.56-1.06-.09-1.01.43Z"/>
          <path class="cls-17" d="m14.6,14.38c.15.23.14.28-.12.69-.4-.08-.82-.08-1.21.18.06.11.1.2.15.29-.02,0-.03,0-.05,0-.08.39-.15.78-.23,1.17.18.09.3.14.44.21-.08.1-.13.16-.19.25.03.06.06.14.09.21-.07.04-.15.06-.21.11-.15.12-.29.25-.43.38-.53-.24-.66-.69-.63-1.22.26-.08.49-.22.53-.51.03-.22,0-.45,0-.67.22-.3.33-.56.7-.68.35-.12.78-.05,1.14-.05,0-.14.02-.24.02-.34Z"/>
          <path class="cls-8" d="m8.77,12.52c-.06-.58.44-.83.91-1,.74-.26,1.39-.35,2.12-.13h-1.46c-.22.23-.56.47-.64.78-.52.21-.56.25-.53.81.01.25.09.51.14.76-.05.11-.09.23-.14.34h-.35c-.02-.11-.03-.23-.05-.34,0-.41,0-.82,0-1.22Z"/>
          <path class="cls-10" d="m12.74,15.46c0,.22.03.45,0,.67-.05.29-.27.43-.53.51-.13-.01-.26-.03-.43-.05-.02-.2-.04-.37-.06-.54.07-.22.11-.45.21-.66.1-.19.31-.24.53-.22.1.1.2.2.29.29Z"/>
          <path class="cls-21" d="m13.42,12.13c-.05-.05-.11-.09-.17-.15.05-.08.08-.14.12-.2.31-.35,1.8-1.14,1.86-.22-.52.42-1.15.54-1.81.57Z"/>
          <path class="cls-21" d="m12.72,3.85c.04.44-.11.66-.56.69-.41.03-1.24-.27-.71-.78.3-.29,1.01-.24,1.27.09Z"/>
          <path class="cls-21" d="m18.71,11.15c-.18-.01-.36,0-.52-.05-.12-.05-.21-.19-.31-.29-.09-.55.75-.75,1.14-.57.48.23.31.87-.21.91-.03,0-.07,0-.1,0Z"/>
          <path class="cls-8" d="m5.51,9.94c1.11.87-1.02,1.38-.79.42.08-.33.34-.46.79-.42Z"/>
          <path class="cls-21" d="m5.69,12.23c-.05.03-.1.07-.18.12.13.16.24.31.36.46-.01.07-.03.16-.04.25-.37-.26-.77-.38-1.22-.29-.08-.04-.16-.07-.22-.1-.2.03-.39.23-.58-.09.17-.02.31-.04.49-.07.04-.04.11-.12.14-.15.18-.05.31-.08.44-.12,0-.02,0-.03,0-.05.12.03.58.22.56-.06.08.03.16.06.25.1Z"/>
          <path class="cls-17" d="m15.23,12.18c-.25-.01-.36.15-.45.34-.07.15-.13.29-.19.44-.03-.64.22-.86.6-.95.14-.03.31-.12.42.07-.13.03-.26.07-.39.1Z"/>
          <path class="cls-21" d="m3.49,12.67c.07.06.15.12.24.19-.1.17-.18.29-.29.47.01.09.03.24.05.39.02,0,.04,0,.06,0-.03.04-.07.08-.1.12-.02-.29-.03-.59-.05-.88.03-.1.06-.2.1-.29Z"/>
          <path class="cls-21" d="m12.83,17.85c.14-.13.28-.26.43-.38.06-.05.14-.07.21-.11.27-.15.55-.31.82-.46.08-.05.17-.08.26-.13.13.53.36.97.68,1.42-.64.03-1.17.35-1.72.58.27.9,1.93.34,1.82-.48.16.02.33.03.49.05-.41.53-1.15,1.16-1.87,1.14-.77-.03-1.46-.88-1.12-1.63Z"/>
          <path class="cls-12" d="m15.82,18.34c-.16-.02-.33-.03-.49-.05-.03-.03-.07-.07-.1-.1-.32-.44-.56-.88-.68-1.42.1-.07.18-.16.29-.21.45-.2.86-.5,1.37-.53.5.16.55.54.38,1.06-.13.41-.41.76-.63,1.14-.05.03-.1.07-.14.1Z"/>
          <path class="cls-11" d="m8.82,14.09h.35c.05-.12.1-.23.14-.34.06.03.13.05.22.1.06-.08.12-.16.17-.24.07-.08.13-.16.2-.24-.09.35-.06.62.12.66.34.07.53.31.76.52-.31.59-.59,1.2-1.18,1.61-.13-.12-.24-.2-.34-.29-.11-.33-.23-.65-.34-.98-.03-.24-.07-.49-.1-.73v-.05Z"/>
          <path class="cls-10" d="m8.77,18.58c-.25-.81.35-1.06.91-.96.06,0,.11.02.17.03.44.28.94.7.3,1.13-.46.31-1.03.23-1.37-.2Z"/>
          <path class="cls-17" d="m8.82,14.14c.03.24.07.49.1.73-.03,0-.08.03-.1.01-.14-.13-.13-.58,0-.74Z"/>
          <path class="cls-11" d="m16.16,14.92c0-.13,0-.26,0-.39.14-.67.49-1.21.98-1.67.69-.38.86-.32.93.49-.38.91-.63,1.54-1.62,1.87-.08-.06-.18-.13-.28-.21,0-.03,0-.06,0-.1Zm1.72-1.96c-.22-.07-.49.14-.66.52-.07.17-.04.3.14.36.46-.13.64-.45.52-.88Z"/>
          <path class="cls-17" d="m16.16,14.92s0,.06,0,.1c-.14.23-.3.4-.48.59.09.11.17.2.24.29-.59,0-.81.28-1.33.47-.05.12-.09.23-.15.39-.09-.06-.16-.1-.27-.17.14-.1.25-.18.39-.29-.02-.2-.04-.43-.06-.72.14-.33.54-.19.81-.21.34-.03.63-.18.85-.45Z"/>
          <path class="cls-3" d="m11.9,11.59q.42-.22.9-.18c.51.37.42,1.77.27,2.31-.22.79-.96,1.13-1.36,1.8-.07-.14-.1-.22-.15-.31-.08.03-.15.06-.25.1-.12-.13-.24-.27-.33-.37-.06-.17-.11-.29-.16-.42.15-.28.29-.55.44-.83.2.34.43.85.83.98.08-.03.17-.06.25-.08.08-.15.16-.28.24-.42-.09-.34.05-.66-.1-.99-.15-.31-.44-.55-.78-.61.03-.1.06-.2.09-.29.03-.23.07-.46.1-.68Z"/>
          <path class="cls-7" d="m11.8,12.28c-.03.1-.06.2-.09.29-.15.38-.3.75-.44,1.13-.15.28-.29.55-.44.83-.02,0-.03,0-.05,0-.23-.21-.42-.45-.76-.52-.19-.04-.21-.3-.12-.66.01-.05.02-.11.04-.16.18-.31.31-.64.3-1.01,0-.26.23-.2.34-.28.63.3.56,1.08,1.23.38Z"/>
          <path class="cls-6" d="m11.8,12.28c-.67.71-.59-.08-1.23-.38-.11.09-.35.03-.34.28-.18,0-.36,0-.54,0h0c.08-.31.42-.56.64-.79.47,0,.97,0,1.46,0,.03.07.07.13.1.2-.03.23-.07.46-.1.68Z"/>
          <path class="cls-15" d="m4.61,12.77c.45-.09.85.03,1.22.29.75.41.92,2.65-.2,2.54-.91-.09-1.65-2.18-1.02-2.83Z"/>
          <path class="cls-15" d="m15.66,7.27c-.38.25-.86.19-1.13-.16.3-.14.53-.2.87-.16.15.02.3.1.26.32Z"/>
          <path class="cls-15" d="m10.59,8.48c.05.08.1.17.14.25-.36.53-1.07.72-1.27.36.12-.47.47-.67,1.13-.61Z"/>
          <path class="cls-14" d="m6.54,5.97c-.05-.52.74-.99,1.01-.43-.26.19-.52.38-.76.55-.12-.06-.18-.09-.26-.12Z"/>
          <path class="cls-13" d="m9.7,13.6c-.06.08-.11.16-.17.24-.09-.04-.16-.07-.22-.1-.05-.25-.13-.5-.14-.76-.03-.56,0-.59.53-.81,0,0,0,0,0,0-.03.18-.07.36-.07.55,0,.29.05.58.07.87Z"/>
          <path class="cls-15" d="m15.23,18.2s.07.07.1.1c.1.82-1.55,1.37-1.82.48.56-.23,1.09-.55,1.72-.58Z"/>
          <path class="cls-16" d="m9.7,13.6c-.03-.29-.07-.58-.07-.87,0-.18.05-.36.07-.55.18,0,.36,0,.54,0,.01.37-.12.7-.3,1.01-.03.05-.03.11-.04.16-.07.08-.13.16-.2.24Z"/>
          <path class="cls-9" d="m17.88,12.96c.12.44-.06.76-.52.88-.18-.06-.21-.19-.14-.36.17-.38.44-.59.66-.52Z"/>
          <path class="cls-2" d="m11.27,13.7c.15-.38.3-.75.44-1.13.34.06.63.3.78.61.16.33.01.65.1.99-.08.14-.16.28-.24.42-.08.03-.17.06-.25.08-.4-.13-.63-.64-.83-.98Z"/>
        </g>
      </g>
    </g>
  </g>
</svg>