<?xml version="1.0" encoding="UTF-8"?>
<svg id="_레이어_2" data-name="레이어 2" xmlns="http://www.w3.org/2000/svg" xmlns:xlink="http://www.w3.org/1999/xlink" viewBox="0 0 22.53 26.81">
  <defs>
    <style>
      .cls-1 {
        fill: none;
      }

      .cls-2 {
        clip-path: url(#clippath);
      }

      .cls-3 {
        fill: #f4cfa7;
      }

      .cls-4 {
        fill: #f4cfa6;
      }

      .cls-5 {
        fill: #68ba60;
      }

      .cls-6 {
        fill: #f5d0a7;
      }

      .cls-7 {
        fill: #edac68;
      }

      .cls-8 {
        fill: #f0c699;
      }

      .cls-9 {
        fill: #f0c08a;
      }

      .cls-10 {
        fill: #b98757;
      }

      .cls-11 {
        fill: #bb8959;
      }

      .cls-12 {
        fill: #ba8757;
      }

      .cls-13 {
        fill: #c09e73;
      }

      .cls-14 {
        fill: #c08d5c;
      }

      .cls-15 {
        fill: #bd8b5a;
      }

      .cls-16 {
        fill: #bf8c5b;
      }

      .cls-17 {
        fill: #be8c5b;
      }

      .cls-18 {
        fill: #bf8d5b;
      }

      .cls-19 {
        fill: #d3a16c;
      }

      .cls-20 {
        fill: #d3a06b;
      }

      .cls-21 {
        fill: #d4a16c;
      }

      .cls-22 {
        fill: #d4a16b;
      }
    </style>
    <clipPath id="clippath">
      <circle class="cls-1" cx="11.27" cy="11.27" r="8.4"/>
    </clipPath>
  </defs>
  <g id="_레이어_1-2" data-name="레이어 1">
    <g>
      <path class="cls-5" d="m22.53,11.27c0,7.67-11.27,15.55-11.27,15.55,0,0-11.27-7.87-11.27-15.55C0,5.04,5.04,0,11.27,0s11.27,5.04,11.27,11.27Z"/>
      <g class="cls-2">
        <path class="cls-7" d="m20.1,12.76c.08-.51.14-1.04.13-1.56-.01-1.82-.47-3.51-1.51-5.02-.02-.03-.03-.06-.04-.09-.21-.26-.41-.52-.62-.78-.29-.27-.58-.55-.87-.82.05.58.56,1.23.76,1.79.25.71.42,1.45.49,2.21.07.77.04,1.54-.08,2.3-.1.64-.21,1.57-.67,2.05.25.22.31.51.3.83.03-.02.05-.05.09-.08.02.05.04.09.05.13,0,0,0,0,0,0,.13.94-.71,1.73-1.31,1.99-.13.06-.25.14-.38.17-.06.02-.13-.05-.2-.08-.16.02-.32.03-.49.05-.25.21-.48.43-.74.61-.39.28-.8.53-1.2.8-.1.08-.17.23-.34.14,0,.08,0,.16,0,.24-.09.19-.14.4-.26.57-.32.44-1.03.39-1.2-.18-1.2.28-2.37.49-3.6.33-1.25-.16-2.3-.62-3.44-1.11-.2-.13-.4-.26-.6-.38-.14-.09-.29-.16-.43-.24.03.05.05.1.09.14.49.52.99,1.03,1.48,1.55,0,0,0,0,0,0,.49.32.97.65,1.46.97.29.13.58.27.87.4.75.19,1.5.38,2.25.57.06,0,.12,0,.18.01,1.1.08,2.11.07,3.18-.22,1.06-.29,1.98-.86,2.94-1.38.05-.04.1-.07.15-.11.72-.52,1.35-1.15,1.89-1.85.08-.11.17-.23.25-.34.06-.1.12-.2.18-.29.09-.14.19-.29.28-.43,0-.02,0-.04-.01-.05,0-.01,0-.02,0-.03.56-.86.84-1.82,1-2.81Z"/>
        <path class="cls-22" d="m10.38,3.28c.4.26.31.64.25,1.02-.15.35-.34.67-.69.88-.51.29-1.04.5-1.65.38-.24-.1-.52-.14-.63-.44.21-.64.22-1.05.83-1.47.54-.37,1.19-.46,1.81-.25.02-.04.04-.08.07-.12Z"/>
        <path class="cls-21" d="m14.47,5.55c.2.2.15.44.12.67-.01.09-.05.17-.07.25-.73.93-1.54,1.04-2.62.77-.15-.14-.29-.29-.44-.43.21-.22.17-.62.39-.89.21-.26.48-.41.79-.51.32-.1.73-.16,1.07-.11.28.05.48.24.76.24Z"/>
        <path class="cls-21" d="m5.33,14.83c-.1.1-.19.2-.29.29-.25.1-.49.26-.77.14-.29-.13-.49-.36-.59-.67.03.03.07.06.1.08.11-.12-.04-.61.01-.8.07-.24.21-.5.43-.63.51-.3.87.08,1.2.43.19.41.08.79-.1,1.16Z"/>
        <path class="cls-6" d="m9.99,11.82c-.36.23-.71.45-1.07.68-.4,0-.79,0-1.17,0-.07-.12-.11-.18-.14-.24.16-.02.32-.03.48-.05.27-.13.57-.22.82-.38.56-.37.97-.86,1.17-1.51.02-.11.04-.22.06-.33.02-.22.05-.43.07-.65.02,0,.05-.02.07-.03.58,1.01.28,1.61-.3,2.52Z"/>
        <path class="cls-10" d="m10.15,9.98c-.02.11-.04.22-.06.33-.15-.6-.08-1.23-.81-1.46-.53-.16-1.15.05-1.57.37-.53.4-.91,1.05-.87,1.73.04.82.62.98,1.27,1.25-.16.02-.32.03-.48.05-.67-.18-.96-.38-1.16-1.07,0-.13,0-.26,0-.38.19-.99.95-1.94,1.93-2.25,1.18-.37,1.75.32,1.77,1.42Z"/>
        <path class="cls-19" d="m18.11,8.37c.21.43-.18,1.08-.64,1.16-.62.11-.94-.59-.73-1.1.26-.15.51-.38.83-.3.16.04.4.36.54.25Z"/>
        <path class="cls-21" d="m14.85,10.7c.16.45-.2,1.03-.65,1.14-.57.14-.94-.48-.76-.99.01.03.02.06.04.09.35-.5.43-.59,1.01-.45.1.11.2.21.32.34.03-.06.04-.09.05-.12Z"/>
        <path class="cls-10" d="m17.67,12.84c.25.22.31.51.3.83-.05.23-.1.45-.16.68-.04.01-.07.03-.14.05.05-.63-.07-1.21-.83-1.22-.68,0-1.43.65-1.55,1.31-.03.13-.06.26-.1.39-.03,0-.05.01-.09.02,0-.06,0-.11-.01-.17.09-.74.51-1.27,1.09-1.69.46-.34.95-.47,1.49-.2Z"/>
        <path class="cls-21" d="m4.9,7.98c.55.96-1.83,1.72-1.17.1.22-.06.37-.29.61-.29.22,0,.36.23.56.19Z"/>
        <path class="cls-14" d="m14.47,5.55c-.28,0-.48-.19-.76-.24-.34-.06-.75,0-1.07.11-.32.09-.58.25-.79.51-.22.27-.18.67-.39.89-.22-.74.36-1.29.99-1.57.78-.35,1.37-.15,2.03.31Z"/>
        <path class="cls-4" d="m8.3,5.55c.61.12,1.14-.09,1.65-.38.35-.2.53-.53.69-.88.43.34-.53,1.14-.79,1.3-.52.32-1.25.42-1.74,0,.09-.02.14-.03.2-.05Z"/>
        <path class="cls-12" d="m5.43,13.67c-.33-.35-.69-.73-1.2-.43-.22.13-.37.39-.43.63-.05.19.09.68-.01.8-.03-.03-.07-.05-.1-.08-.1-.52-.14-1.04.21-1.49.19-.24.45-.36.76-.35.11.05.23.09.34.14.28.19.36.48.44.78Z"/>
        <path class="cls-15" d="m10.38,3.28s-.05.08-.07.12c-.63-.21-1.27-.12-1.81.25-.61.42-.62.83-.83,1.47-.36-.64.31-1.41.83-1.72.62-.37,1.23-.37,1.88-.12Z"/>
        <path class="cls-3" d="m11.89,7.25c1.08.27,1.9.16,2.62-.77.14.56-.6.99-1.08,1.11-.19.05-1.87.03-1.54-.34Z"/>
        <path class="cls-20" d="m12.23,14.3c.07-.05.13-.1.2-.15.06,0,.13,0,.19,0,.06.05.13.1.19.14.11.29.05.53-.22.71-.33.04-.35.03-.51-.36.04-.11.09-.23.15-.36Z"/>
        <path class="cls-18" d="m14.85,10.7s-.02.06-.05.12c-.12-.12-.21-.23-.32-.34-.59-.14-.66-.05-1.01.45-.01-.04-.03-.06-.04-.09.12-.58.76-.89,1.08-.64.15.12.23.33.34.49Z"/>
        <path class="cls-16" d="m11.99,17.65c.07-.44.3-.74.73-.88.34-.06.53.14.68.4.02.08.04.16.05.24,0,.08,0,.16,0,.24-.18-.21-.18-.45-.48-.55-.47-.16-.72.24-.97.56Z"/>
        <path class="cls-17" d="m18.11,8.37c-.14.11-.37-.21-.54-.25-.32-.08-.57.16-.83.3.2-.46.54-.68.92-.59.28.07.41.26.44.53Z"/>
        <path class="cls-15" d="m4.9,7.98c-.2.04-.34-.2-.56-.19-.23,0-.39.23-.61.29.33-.4.6-.69,1.1-.33.02.07.05.15.07.23Z"/>
        <path class="cls-13" d="m2.18,10.47s.03,0,.04-.02c-.01.51-.02,1.01-.03,1.52,0-.5,0-1,0-1.5h0Z"/>
        <path class="cls-22" d="m11.99,17.65c.26-.31.51-.72.97-.56.31.11.31.34.48.55-.09.19-.14.4-.26.57-.32.44-1.03.39-1.2-.18,0-.13,0-.26,0-.39Z"/>
        <path class="cls-8" d="m18.11,13.71s-.03-.08-.05-.13c-.04.04-.06.06-.09.08-.05.23-.1.45-.16.68-.08.15-.16.29-.24.44-.19.3-.39.58-.73.73l-.15.14s-.06,0-.09,0c-.13.05-.26.1-.39.15.07.03.15.09.2.08.13-.04.25-.11.38-.17.6-.26,1.44-1.05,1.31-1.99Z"/>
        <path class="cls-21" d="m7.61,15.9s.03,0,.04,0c.44-.34.96-.83,1.56-.51.58.31.23.71.39,1.14-.35.47-.84.62-1.41.58-.12-.06-.25-.1-.35-.19-.36-.3-.4-.52-.24-.98,0-.02,0-.03,0-.05Z"/>
        <path class="cls-11" d="m9.6,16.53c-.16-.43.19-.84-.39-1.14-.6-.31-1.12.17-1.56.51.25-.51.67-.78,1.22-.88.93.14,1.3.68.73,1.51Z"/>
        <path class="cls-4" d="m5.43,13.67c-.08-.3-.16-.59-.44-.78,1.05-.33,1.18,1.74.34,1.94.18-.38.29-.76.1-1.16Z"/>
        <path class="cls-21" d="m8.1,12.2c-.65-.28-1.23-.43-1.27-1.25-.04-.68.34-1.33.87-1.73.43-.32,1.04-.53,1.57-.37.73.23.66.86.81,1.46-.2.65-.62,1.14-1.17,1.51-.25.16-.54.26-.82.38Z"/>
        <path class="cls-21" d="m17.67,14.39c.05-.63-.07-1.21-.83-1.22-.68,0-1.43.65-1.55,1.31-.03.13-.06.26-.1.39-.03,0-.05.01-.09.02,0-.06,0-.11-.01-.17-.16.45.05.88.49,1.02.05.03.1.06.15.1.16-.02.32-.03.49-.05.13-.05.26-.1.39-.15.03,0,.06,0,.09,0l.15-.14c.34-.15.54-.43.73-.73.08-.15.16-.29.24-.44-.04.01-.07.02-.14.05Z"/>
        <path class="cls-9" d="m13.79,17.26c.4-.27.81-.52,1.2-.8.26-.19.5-.41.74-.61-.05-.03-.1-.06-.15-.1-.44-.15-.64-.58-.49-1.02.09-.74.51-1.27,1.09-1.69.46-.34.95-.47,1.49-.2.46-.48.57-1.41.67-2.05.12-.76.15-1.53.08-2.3-.07-.75-.23-1.49-.49-2.21-.2-.56-.71-1.21-.76-1.79-.64-.66-1.43-1.09-2.24-1.49-.18-.07-.36-.13-.53-.2-.23-.07-.45-.15-.68-.22-.16-.05-.32-.09-.49-.14-.62-.07-1.23-.13-1.85-.2-.11,0-.23,0-.34,0-.13,0-.26,0-.39,0-.21.02-.42.04-.63.06-.6.15-1.22.25-1.79.48-.7.28-1.36.66-2.04,1-.91.7-1.75,1.41-2.41,2.35-.64.92-1.02,1.93-1.38,2.99-.02.06-.03.12-.05.18-.05.39-.1.77-.16,1.16-.01.51-.02,1.01-.03,1.52,0,.05-.01.1-.02.14,0,.05,0,.1,0,.14.17,1.54.77,3.16,1.73,4.38.14.08.29.16.43.24.2.12.4.25.6.38h0c1.14.49,2.19.95,3.44,1.11,1.24.16,2.41-.05,3.6-.33,0-.13,0-.26,0-.39.07-.44.3-.74.73-.88t0,0c.34-.06.53.14.68.4h0c.02.08.04.16.05.24.17.08.24-.06.34-.14M8.5,3.39c.62-.37,1.23-.37,1.88-.12.4.26.31.64.25,1.02.43.34-.53,1.14-.79,1.3-.52.32-1.25.42-1.74,0,.09-.02.14-.03.2-.05-.24-.1-.52-.14-.63-.44-.36-.64.31-1.41.83-1.72Zm-4.77,4.69c.33-.4.6-.69,1.1-.33.02.07.05.15.07.23.55.96-1.83,1.72-1.17.1Zm1.6,6.75c-.1.1-.19.2-.29.29h0c-.25.1-.49.26-.77.14-.29-.13-.49-.36-.59-.67-.1-.52-.14-1.04.21-1.49.19-.24.45-.36.76-.35.11.05.23.09.34.14,1.05-.33,1.18,1.74.34,1.95Zm3.55.19c.93.14,1.3.68.73,1.51-.35.47-.84.62-1.41.58-.12-.06-.25-.1-.35-.19-.36-.3-.4-.52-.24-.98h0s0-.03,0-.05c.01,0,.03,0,.04,0,.25-.51.67-.78,1.22-.88m1.12-3.2c-.36.23-.71.45-1.07.68h-1.17c-.07-.12-.11-.18-.14-.24-.67-.18-.96-.38-1.16-1.07,0-.13,0-.26,0-.38.19-.99.95-1.94,1.93-2.25,1.18-.37,1.75.32,1.77,1.42.02-.22.05-.43.07-.65.02,0,.05-.02.07-.03.58,1.01.28,1.61-.3,2.52Zm2.6,3.19c-.33.04-.35.03-.51-.36.04-.11.09-.23.15-.36.07-.05.13-.1.2-.15h0c.06,0,.13,0,.19,0,.06.05.13.1.19.14.11.29.05.53-.22.71Zm-.7-7.76c-.15-.14-.29-.29-.44-.43-.22-.74.36-1.29.99-1.57.78-.35,1.37-.15,2.03.31.2.2.15.44.12.67-.01.09-.05.17-.07.25.14.56-.6.99-1.08,1.11-.19.05-1.87.03-1.54-.34Zm1.66,9.87s0,0,0,0c0,0,0,0,0,0Zm.65-5.28c-.57.14-.94-.48-.76-.99.12-.58.76-.89,1.08-.64.15.12.23.33.34.49.16.45-.2,1.03-.65,1.14Zm3.27-2.31c-.62.11-.94-.59-.73-1.1.2-.46.54-.68.92-.59.28.07.41.26.44.53.21.43-.18,1.08-.64,1.16Z"/>
      </g>
    </g>
  </g>
</svg>