<?xml version="1.0" encoding="UTF-8"?>
<svg id="_레이어_2" data-name="레이어 2" xmlns="http://www.w3.org/2000/svg" xmlns:xlink="http://www.w3.org/1999/xlink" viewBox="0 0 22.53 26.81">
  <defs>
    <style>
      .cls-1 {
        clip-path: url(#clippath);
      }

      .cls-2 {
        fill: #68ba60;
      }

      .cls-3 {
        fill: #eb9d38;
      }

      .cls-4 {
        fill: #e79c3d;
      }

      .cls-5 {
        fill: #df983e;
      }

      .cls-6 {
        fill: #de6233;
      }

      .cls-7 {
        fill: #dfbc61;
      }

      .cls-8 {
        fill: #dc6434;
      }

      .cls-9 {
        fill: #ddb965;
      }

      .cls-10 {
        fill: #11253a;
      }
    </style>
    <clipPath id="clippath">
      <circle class="cls-5" cx="11.27" cy="11.27" r="8.46"/>
    </clipPath>
  </defs>
  <g id="_레이어_1-2" data-name="레이어 1">
    <g>
      <path class="cls-2" d="m22.53,11.27c0,7.67-11.27,15.55-11.27,15.55,0,0-11.27-7.87-11.27-15.55C0,5.04,5.04,0,11.27,0s11.27,5.04,11.27,11.27Z"/>
      <g>
        <circle class="cls-5" cx="11.27" cy="11.27" r="8.46"/>
        <g class="cls-1">
          <path class="cls-4" d="m12.06,1.94c.32.04.65.08.97.13,0,0,0,.02-.01.03.3.06.6.12.9.19.03.02.07.04.1.05.54.25,1.07.5,1.61.74.21.1.43.18.64.27.56.44,1.11.88,1.67,1.31-1.15.71-2.16,1.6-3.36,2.24-1.19.63-2.51,1.12-3.83,1.39-2.59.54-5.6.52-7.98-.78.42-.94.96-1.81,1.67-2.56.22-.23.44-.45.66-.67.93-.66,1.81-1.34,2.88-1.74,1-.38,2.03-.54,3.09-.62.33,0,.65.01.98.02Z"/>
          <path class="cls-8" d="m16.27,3.35c-.21-.09-.43-.18-.64-.27-.54-.25-1.07-.5-1.61-.74.15-.03.3-.07.44-.1,1.63-.57,3.26-1.03,4.94-1.42.11-.02.23-.03.34-.05.29-.04.59-.07.88-.11.24-.02.49-.03.73-.05.44,0,.89,0,1.33,0l.34.05s.1,0,.15,0c.19.02.39.05.58.07.07,0,.14,0,.18,0,.18.07.34.12.5.18.34.16.69.32,1.04.49.65.72,1.13,1.47,1.03,2.48-.1,1.02-.68,1.97-1.09,2.89-.28.41-.55.82-.83,1.22-.23.29-.46.59-.69.88-.1.11-.19.22-.29.33-.85.85-1.7,1.7-2.55,2.55-.16.16-.33.33-.49.49-.13.08-.26.14-.39.23-.17.11-.32.24-.49.36-.1-.8-.31-.81-1.08-.88.56-.53,1.12-1.06,1.67-1.6.11-.11.17-.27.25-.4.52-.25.91-.89,1.26-1.35.39-.52.74-1.07,1.01-1.67.4-.88.72-1.96.18-2.86-.59-1-1.91-1.26-2.98-1.29-.68-.02-1.37.05-2.04.15-.53.08-1.24.11-1.69.4Z"/>
          <path class="cls-6" d="m18.61,11.96c.77.06.98.08,1.08.88-.02.03-.03.07-.05.1-3.14,2.7-7.02,4.67-10.77,6.36-.35.13-.7.25-1.04.38-.06.02-.09.1-.14.15-.13.03-.26.07-.4.1-.23.08-.45.17-.68.25-.08.03-.16.06-.25.09-.11.04-.23.07-.34.11-.08.03-.16.06-.25.09-.11.04-.23.07-.34.11l-1.03.29c-.15.04-.29.07-.44.11-.12.03-.24.06-.35.08-.45.09-.89.18-1.34.26-.13.02-.27.02-.41.04-.31.02-.46-.52-.55-.76-.16-.43-.17-.75.22-1.06.3-.03.85.01,1.11-.13.51-.07,1.03-.12,1.54-.22.57-.11,1.13-.26,1.69-.39,1.8-.49,3.57-1.17,5.24-2,2.74-1.18,5.14-3.05,7.49-4.84Z"/>
          <path class="cls-3" d="m20.56,12.26c-.13.08-.26.14-.39.23-.17.11-.32.24-.49.36-.02.03-.03.07-.05.1.04.02.09.04.13.06-.72.92-1.55,1.68-2.33,2.54.07.1.14.2.2.3.13.19.27.36.43.54-.16-.17-.3-.35-.43-.54-.07-.1-.13-.19-.2-.3-1.39,1.02-2.71,2.03-4.3,2.71-.74.32-1.51.58-2.29.79-.24.06-2.03.47-1.98.27-.35.13-.7.25-1.04.38-.06.02-.09.1-.14.15.02.02.04.03.05.05.11.05.23.1.34.16.28.08.56.15.83.23.08.02.16.04.24.06.21.05.42.1.64.14.28.03.55.07.83.1.19.01.38.05.57.04.37-.02.73-.06,1.09-.09l.48-.06c.15-.03.3-.06.45-.08l2.04-.7c.22-.11.43-.22.65-.33.19-.12.38-.24.57-.36.59-.51,1.18-1.01,1.77-1.52,0,0,0,0,0,0,.24-.32.47-.64.71-.97.45-.61.78-1.29,1.06-2,.03-.07.06-.15.1-.22.03-.09.06-.19.09-.28.12-.47.24-.95.36-1.42,0-.11,0-.22,0-.33Z"/>
          <path class="cls-10" d="m21.05,11.76c.85-.85,1.7-1.7,2.55-2.55.03.08.06.16.09.24.13-.01.24-.02.35-.03.02.02.03.04.05.05-.24.31-.56.56-.87.81-.41.34-.73.69-1.07,1.09,0,0,0,0,0,0-.31.36-.62.72-.93,1.08-.31-.06,0-.4.07-.52-.1-.07-.17-.12-.24-.17Z"/>
          <path class="cls-10" d="m16.49,19c.59-.51,1.18-1.01,1.77-1.52.09.17.18.34.26.49-.23.41-.75.53-.88,1.02-.05-.03-.1-.07-.13-.09-.11.05-.21.09-.37.15-.05.14-.13.33-.2.52-.02,0-.05,0-.07,0-.11-.24-.19-.39-.38-.57Z"/>
          <path class="cls-10" d="m18.97,16.52c.45-.62.78-1.29,1.06-2,.03-.07.06-.15.1-.22.08.1.16.19.24.3-.15.11-.25.19-.36.28.06.09.11.15.17.23-.12.06-.24.12-.35.18.03.11.05.2.07.29-.09.04-.15.08-.21.11.02.1.04.19.06.29-.09.04-.16.06-.24.09.04.07.07.13.1.2.06-.02.11-.04.16-.05,0,.02.02.04.02.06-.23.11-.47.21-.73.33.03.06.08.14.14.24.07-.08.12-.12.16-.17.02.01.05.03.07.04-.06.11-.11.22-.16.32-.1-.01-.17-.02-.27-.03v.32s-.02,0-.03-.01c-.26.54-.3.57-.7.17.24-.32.47-.64.71-.97Z"/>
          <path class="cls-10" d="m24.44,10.5c-.18.24-.65.58-.62.91-.1.01-.19.02-.27.03-.43.52-.93.92-1.39,1.4-.34.36-.25,1.14-.6,1.37-.13-.75.3-1.59,1.01-1.94,0-.05,0-.1,0-.14.63-.53,1.19-1.22,1.89-1.64Z"/>
          <path class="cls-10" d="m20.21,14.01c.12-.47.24-.95.36-1.42.07.21.16.41.24.62-.13.14-.22.24-.32.35,0,.06,0,.13-.01.2.05.06.1.11.16.18-.03.06-.05.12-.08.19-.13-.04-.23-.08-.34-.11Z"/>
          <path class="cls-10" d="m21.55,14.21s.06.04.08.05c-.06.21-.12.42-.18.63-.04,0-.08,0-.11.01.01-.25-.12-.55.21-.7Z"/>
          <path class="cls-10" d="m21.35,15c0,.3-.18.53-.29.78-.15-.19.1-.66.29-.78Z"/>
          <path class="cls-9" d="m2.22,9.19c.19-.56.37-1.11.56-1.67,2.38,1.3,5.39,1.32,7.98.78,1.32-.27,2.64-.76,3.83-1.39,1.2-.64,2.21-1.53,3.36-2.24.06.05.12.1.18.16.69.72,1.22,1.54,1.64,2.43-.69.58-1.29,1.24-2.02,1.78-.7.53-1.45.99-2.23,1.4-1.71.9-3.48,1.36-5.36,1.76-1.16.14-2.32.14-3.47,0-.02,0-.03,0-.05,0-.78-.21-1.57-.35-2.32-.63-.79-.3-1.5-.75-2.23-1.17.03-.23.05-.46.08-.69.02-.17.04-.35.07-.52Z"/>
          <path class="cls-10" d="m19.76,7.26c-.42-.89-.96-1.72-1.64-2.43-.06-.06-.12-.11-.18-.16-.56-.44-1.11-.88-1.67-1.31.46-.29,1.16-.32,1.69-.4.67-.11,1.36-.17,2.04-.15,1.07.03,2.39.29,2.98,1.29.53.9.22,1.97-.18,2.86-.27.59-.62,1.15-1.01,1.67-.34.45-.74,1.1-1.26,1.35-.05-.26-.09-.52-.14-.78-.21-.64-.43-1.28-.64-1.91Z"/>
          <path class="cls-10" d="m2.66,19.41c-1.34.02-3.11-.02-3.85-1.35-.75-1.36.2-2.87.86-4.04.05-.07.11-.14.16-.21.56-.66,1.13-1.33,1.69-1.99.08.02.16.05.23.07.05.2-.07.47.27.47l.23,1.03c.15.76.42,1.47.8,2.15.09.16.19.33.28.49.02.04.03.09.06.13.67,1.04,1.47,1.95,2.5,2.65-.56.13-1.12.28-1.69.39-.51.1-1.02.15-1.54.22Z"/>
          <path class="cls-7" d="m20.39,9.17c-.62.67-1.1,1.45-1.72,2.12-.67.72-1.39,1.4-2.18,1.99-1.67,1.26-3.49,2.09-5.46,2.74-.88.27-1.78.41-2.69.49-.67.08-1.33.15-2.01.05-.18-.03-.36-.06-.54-.09-.2-.02-.39-.03-.59-.05-.44-.08-.88-.15-1.32-.24-.19-.04-.37-.1-.55-.15.02.04.03.09.06.13.67,1.04,1.47,1.95,2.5,2.65,1.8-.49,3.57-1.17,5.24-2,2.74-1.18,5.14-3.05,7.49-4.84.56-.53,1.12-1.06,1.67-1.6.11-.11.17-.27.25-.4-.05-.26-.09-.52-.14-.78Z"/>
          <path class="cls-9" d="m19.64,12.94s.09.04.13.06c-.72.92-1.55,1.68-2.33,2.54-1.39,1.02-2.71,2.03-4.3,2.71-.74.32-1.51.58-2.29.79-.24.06-2.03.47-1.98.27,3.74-1.7,7.63-3.67,10.77-6.36Z"/>
          <path class="cls-4" d="m6.33,16.56c-.18-.03-.36-.06-.54-.09.05,0,.09-.02.14-.03,0-.09.02-.17.03-.27-.1-.03-.19-.05-.24-.06-.23.08-.34.13-.51.31-.44-.08-.88-.15-1.32-.24-.19-.04-.37-.1-.55-.15-.09-.16-.19-.33-.28-.49.22.14.42.3.63.46.31-.12.54-.09.72.11.18.02.34.03.57.05-.15-.22-.26-.37-.4-.58-.01.16-.02.24-.02.32-.03,0-.06,0-.09,0,.03-.32.07-.65.11-1.03.05.12.08.18.12.28.1-.09.18-.15.21-.18.43.09.82.17,1.25.26.02,0,.09-.02.16-.03,0,.02,0,.04,0,.06h1.25c.07.03.16.06.29.11.3-.09.64-.19,1.02-.3.02.01.08.05.17.11-.14.06-.24.11-.34.16,0,.01,0,.02.01.04h.36c.09-.13.17-.24.23-.34.18.05.29.09.42.13,0-.1,0-.16.01-.22.41-.17.74-.16.82.02-.02.05-.05.11-.08.18.06.03.12.06.19.1.09-.12.18-.24.27-.36h.18c.14-.17.27-.31.38-.45.12.04.19.06.26.08.1-.1.19-.19.29-.28.05.04.1.08.15.13.17-.1.33-.19.52-.3h.35c.06-.07.11-.14.15-.18.1.01.16.02.2.02.07-.09.12-.16.16-.22.1-.01.18-.02.28-.03.04-.09.09-.18.14-.29.06-.04.14-.09.21-.14.08.02.16.03.25.05.05-.06.11-.12.16-.18,0,.01.01.03.02.04.22-.08.45-.17.65-.24.05-.12.09-.22.13-.32.09-.02.16-.03.21-.04.18-.12.33-.23.49-.33,0,0,.02.01.02.02.16-.14.32-.28.48-.42,0,0-.02-.02-.02-.03.09-.05.19-.11.28-.16-.06-.08-.1-.13-.15-.19.21-.07.4-.14.66-.23.26.02-.09.43.16.5.2-.26.39-.5.57-.75,0,0,0,0,.01.01.09-.15.17-.29.26-.44-.02-.09-.05-.19-.09-.32.1.05.17.09.28.15.05-.17.1-.32.15-.49.05-.02.11-.06.13-.07.1-.15.18-.27.28-.43-.08-.1-.17-.21-.28-.34-.31.23-.59.43-.88.65.01.05.03.11.04.2-.12.02-.25.04-.37.05-.04.09-.07.17-.1.27-.1,0-.2-.01-.29-.02-.2.44-.74.33-1,.66-.03.11-.06.22-.1.33-.13-.04-.23-.07-.38-.11-.39.18-.79.34-1.17.56-.32.19-.55.21-.89.31-.04.09-.07.18-.11.25-.15.02-.28.04-.43.06-.05-.02-.11-.05-.16-.07-.21.1-.28.12-.5.08-.08.51-.97.48-1.36.57,0,.02,0,.04,0,.07-.09-.03-.18-.07-.27-.1-.36.15-.8.17-1.18.25-.07-.05-.14-.1-.22-.16.07-.29.38-.16.53-.31-.02-.06-.04-.13-.08-.24.05-.04.11-.08.17-.12,1.88-.4,3.65-.86,5.36-1.76.78-.41,1.53-.87,2.23-1.4.72-.54,1.32-1.21,2.02-1.78.21.64.43,1.28.64,1.91-.62.67-1.1,1.45-1.72,2.12-.67.72-1.39,1.4-2.18,1.99-1.67,1.26-3.49,2.09-5.46,2.74-.88.27-1.78.41-2.69.49.09-.03.18-.05.27-.08.09-.18.18-.36.27-.54h-.48c-.06.08-.12.15-.15.19-.3.05-.58.1-.76.13-.37-.04-.65-.06-.99-.1-.11.09-.25.19-.4.31.12.07.18.1.24.14Zm4.98-.75c-.23-.36-.5-.56-.89-.29-.02.07-.04.13-.06.21-.12-.04-.22-.07-.34-.1-.04.08-.07.15-.1.22-.06-.04-.11-.08-.16-.11-.08.05-.14.1-.21.15-.18-.01-.36-.02-.56-.04.03.14.05.24.07.37.29-.02.57-.04.85-.06.04-.06.08-.12.12-.17.09,0,.17,0,.25-.01,0,0,0-.02,0-.02.12-.05.25-.1.39-.16,0-.04.03-.11.05-.19.12.05.22.08.3.12.06.08.1.14.16.22.06-.05.1-.09.13-.12Zm1-.37c.17-.14.33-.28.52-.43.04,0,.11.02.23.03.04-.13.07-.26.11-.37.08-.06.15-.12.27-.21-.31-.05-1.21.57-1.25.8.02.04.06.08.12.18Zm-6.55.08c.04-.1.07-.19.1-.27-.26-.07-.37-.05-.5.14.09-.01.17-.02.28-.03.03.04.07.1.12.17Z"/>
          <path class="cls-4" d="m10.15,12.21c-.06.04-.12.08-.17.12.04.12.06.18.08.24-.14.15-.45.03-.53.31.08.06.15.11.22.16h-.93c-.19.09-.4.26-.65.08-1.13.06-2.21-.27-3.3-.53,0,.02,0,.03-.01.05-.28-.15-.57-.31-.85-.46v.06c-.35-.08-.69-.16-1.03-.24-.07.05-.17.12-.3.22-.1-.28-.18-.51-.27-.78-.13-.06-.28-.12-.44-.19.03-.28.06-.55.09-.83.73.42,1.44.87,2.23,1.17.75.29,1.55.43,2.32.63-.05.11-.11.22-.16.34.02.01.04.02.06.04.09-.04.19-.08.3-.13-.06-.1-.1-.17-.15-.24,1.16.14,2.32.14,3.47,0Zm-.85.7c-.34-.27-1.01-.26-1.24,0h1.24Zm-3.27-.32c-.13-.2-.23-.36-.37-.56-.15.31.02.51.37.56Zm1.64.37s.02-.09.04-.13c-.11-.03-.22-.05-.34-.08-.01.04-.02.08-.03.12.11.03.22.06.33.1Z"/>
          <path class="cls-4" d="m6.67,12.21c.04.07.09.15.15.24-.12.05-.21.09-.3.13-.02-.01-.04-.02-.06-.04.05-.11.11-.22.16-.34.02,0,.03,0,.05,0Z"/>
          <path class="cls-4" d="m1.98,11.23c.16.07.31.14.44.19.09.27.17.5.27.78.13-.09.23-.17.3-.22.34.08.68.16,1.02.24v-.06c.29.15.58.31.86.46,0-.02,0-.03.01-.05,1.09.26,2.17.59,3.3.53.25.18.47.01.65-.08h.93c.38-.07.82-.1,1.18-.25.09.03.18.07.27.1,0-.02,0-.04,0-.07.39-.08,1.28-.06,1.36-.57.23.04.29.02.5-.08.05.02.11.05.16.07.15-.02.28-.04.43-.06.03-.07.07-.16.11-.25.33-.1.56-.11.89-.31.37-.23.77-.38,1.17-.56.15.04.25.07.38.11.03-.11.07-.23.1-.33.26-.33.8-.22,1-.66.09,0,.19.01.29.02.04-.09.07-.17.1-.27.12,0,.25-.03.37-.05-.02-.08-.03-.15-.04-.2.29-.22.57-.42.88-.65.11.13.2.24.28.34-.1.16-.18.28-.28.43-.02.01-.09.04-.13.07-.05.17-.1.32-.15.49-.1-.06-.17-.09-.28-.15.03.13.06.22.09.32-.09.15-.18.3-.26.44,0,0,0,0-.01-.01-.19.24-.37.49-.57.75-.24-.07.1-.48-.16-.5-.26.09-.45.16-.66.23.05.06.09.11.15.19-.09.06-.19.11-.28.16,0,0,.02.02.02.03-.16.14-.32.28-.48.42,0,0-.02-.01-.02-.02-.15.1-.31.21-.49.33-.05,0-.13.02-.21.04-.04.1-.08.2-.13.32-.21.08-.43.16-.65.24,0-.01-.01-.03-.02-.04-.05.06-.1.12-.16.18-.08-.02-.16-.03-.25-.05-.08.05-.15.1-.21.14-.05.11-.1.2-.14.29-.1.01-.18.02-.28.03-.04.06-.09.13-.16.22-.04,0-.1-.01-.2-.02-.03.04-.09.1-.15.18h-.35c-.19.11-.35.2-.52.3-.06-.05-.1-.09-.15-.13-.1.1-.19.19-.29.28-.06-.02-.14-.04-.26-.08-.12.14-.24.28-.38.45h-.18c-.09.13-.18.24-.27.36-.07-.04-.13-.07-.19-.1.03-.07.05-.13.08-.18-.09-.18-.42-.19-.82-.02,0,.05,0,.11-.01.22-.13-.04-.25-.08-.42-.13-.07.1-.14.21-.23.34h-.36s0-.02-.01-.04c.1-.05.2-.09.34-.16-.1-.06-.16-.1-.17-.11-.38.11-.72.21-1.02.3-.14-.05-.22-.08-.29-.11h-1.25s0-.04,0-.06c-.07.02-.14.03-.16.03-.44-.09-.82-.17-1.25-.26-.03.03-.11.09-.21.18-.04-.1-.07-.16-.12-.28-.04.38-.08.7-.11,1.03.03,0,.06,0,.09,0,0-.08.01-.16.02-.32.15.21.25.36.4.58-.24-.02-.39-.04-.57-.05-.17-.2-.41-.24-.72-.11-.21-.16-.41-.32-.63-.46-.38-.67-.65-1.39-.8-2.15.07-.03.14-.06.23-.1-.06-.15-.1-.26-.15-.39.08-.05.14-.09.21-.13-.03-.26-.05-.51-.08-.77-.19.05-.31.08-.43.12-.02-.21-.04-.42-.06-.63,0-.08,0-.17.01-.25Z"/>
          <path class="cls-4" d="m6.33,16.56c-.06-.03-.12-.07-.24-.14.15-.12.29-.23.4-.31.34.03.62.06.99.1.18-.03.45-.08.76-.13.03-.04.09-.11.15-.19h.48c-.09.18-.18.36-.27.54-.09.03-.18.05-.27.08-.67.08-1.33.15-2.01.05Z"/>
          <path class="cls-4" d="m5.21,16.41c.17-.17.28-.23.51-.31.05.01.14.04.24.06,0,.1-.02.17-.03.27-.05,0-.09.02-.14.03-.2-.02-.39-.03-.59-.05Z"/>
          <path class="cls-4" d="m11.31,15.81s-.07.07-.13.12c-.05-.08-.1-.14-.16-.22-.08-.03-.19-.07-.3-.12-.02.08-.04.15-.05.19-.15.06-.27.11-.39.16,0,0,0,.02,0,.02-.08,0-.16,0-.25.01-.04.05-.08.11-.12.17-.27.02-.55.04-.85.06-.02-.13-.04-.23-.07-.37.2.01.37.02.56.04.07-.05.13-.09.21-.15.05.03.1.07.16.11.03-.07.06-.13.1-.22.12.04.22.07.34.1.02-.08.04-.15.06-.21.4-.27.66-.08.89.29Z"/>
          <path class="cls-4" d="m12.31,15.43c-.07-.1-.1-.14-.12-.18.03-.23.93-.85,1.25-.8-.12.09-.19.15-.27.21-.03.11-.07.24-.11.37-.11-.01-.19-.02-.23-.03-.18.15-.34.29-.52.43Z"/>
          <path class="cls-4" d="m5.77,15.51c-.05-.07-.09-.13-.12-.17-.12.01-.19.02-.28.03.13-.18.24-.21.5-.14-.03.09-.06.17-.1.27Z"/>
          <path class="cls-4" d="m9.29,12.91h-1.24c.23-.26.9-.27,1.24,0Z"/>
          <path class="cls-4" d="m6.02,12.59c-.35-.05-.51-.26-.37-.56.13.2.23.36.37.56Z"/>
          <path class="cls-4" d="m7.66,12.96c-.11-.03-.22-.06-.33-.1.01-.04.02-.08.03-.12.11.03.22.05.34.08-.01.04-.02.09-.04.13Z"/>
        </g>
      </g>
    </g>
  </g>
</svg>